<?xml version="1.0" encoding="UTF-8"?>
<svg id="Layer_1" xmlns="http://www.w3.org/2000/svg" viewBox="0 0 150 150">
  <defs>
    <style>
      .cls-1 {
        fill: #e9955c;
      }

      .cls-2 {
        fill: #2e3b65;
      }

      .cls-3 {
        fill: #2e3652;
      }

      .cls-4 {
        fill: #e57970;
      }

      .cls-5 {
        fill: #8c6042;
      }

      .cls-6 {
        fill: #486ba5;
      }

      .cls-7 {
        fill: #243962;
      }

      .cls-8 {
        fill: #c55546;
      }

      .cls-9 {
        fill: #f5f9fd;
        font-family: HelveticaNeue-CondensedBold, 'Helvetica Neue';
        font-size: 18px;
        font-weight: 700;
      }

      .cls-10, .cls-11 {
        fill: #87d0cd;
      }

      .cls-12 {
        fill: #599dad;
      }

      .cls-13 {
        fill: #e0af8e;
      }

      .cls-14 {
        fill: #feebdd;
      }

      .cls-15 {
        fill: #ab423f;
      }

      .cls-16 {
        fill: #6db7c0;
      }

      .cls-17 {
        fill: #c75548;
      }

      .cls-18 {
        fill: #b27d59;
      }

      .cls-19 {
        fill: #fff;
      }

      .cls-20 {
        fill: #fbebdb;
      }

      .cls-11 {
        opacity: .74;
      }

      .cls-21 {
        fill: #efceb0;
      }

      .cls-22 {
        fill: #54351b;
      }

      .cls-23 {
        fill: #e47a71;
      }

      .cls-24 {
        fill: #d39e7a;
      }

      .cls-25 {
        fill: #2b488c;
      }

      .cls-26 {
        fill: #dce3f0;
      }

      .cls-27 {
        fill: #efcbac;
      }

      .cls-28 {
        fill: #f89748;
      }

      .cls-29 {
        fill: #fab17e;
      }

      .cls-30 {
        fill: #b5815e;
      }

      .cls-31 {
        fill: #ec7e2a;
      }
    </style>
  </defs>
  <g>
    <path class="cls-20" d="M2.61,111.01c-1.62,6.91,3.72,13.5,10.82,13.49l25.26-.04h2.35s76.26-.26,76.26-.26l25.16-.08s9.51-16.74,3.84-33.58c-1.67-4.97-4.44-9.3-8.08-13.02-10.79-11.07-20.75-12.57-28.91-11.81-6.52.6-11.89,2.63-15.65,2.39-8.47-.55-4.48-14.31-36.24-20.23-5.02-.94-10.61-1.66-16.21-1.66-15.66-.02-31.28,1.67-33.34,14.61-.3,1.87-.31,3.91,0,6.13.22,1.57.6,3.23,1.15,4.99,1.03,3.26,5.43,9.52,7.75,13.46,7.43,12.56-1.41,15.62-10.2,20.6-.36.2-.72.41-1.08.63-1.57.95-2.45,2.54-2.88,4.39Z"/>
    <g>
      <g>
        <path class="cls-12" d="M47.53,104.43s-3.17-3.7-.2-6.05c0,0,2.17-1.32,3.94-1.21,0,0-1.95,2.97-1.14,3.38.81.42,1.9-3.65,1.9-3.65,0,0,4.94-.48,6.53.29,0,0-4.23,3.46-3.34,3.66.89.21,5.45-3.19,5.45-3.19,0,0,4.6.78,4.36,3.59-.25,2.81-1.83,3.67-2.53,3.6-.7-.07-4.77-1.63-4.86-1.06-.09.57,2.36,2.44,4.08,2.52,0,0-3.24,3.58-5.4,2.54-2.16-1.03-2.34-2.67-3.68-3.28-1.34-.61-2.49-.61-1.94.01.55.63,2.99,1.23,3.76,2.59.77,1.36,1.46,2.28-.77,1.94-2.23-.34-5.86-1.97-6.01-3.84l-.16-1.87Z"/>
        <g>
          <path class="cls-12" d="M62.79,101.34s-12.5-.48-15.26,3.09c0,0-.61,1.83-2.49,3.49l-.29.8s2.17-2.28,2.94-2.42c0,0-1.21-4.43,15.1-4.96Z"/>
          <path class="cls-12" d="M45.05,107.92s-2.68,1.98-2.87,5.53l.49.04s.86-3.66,2.4-5.1c1.55-1.43-.02-.47-.02-.47Z"/>
        </g>
      </g>
      <g>
        <path class="cls-16" d="M35.14,101.05s4.5-3.63,1.53-7.01c0,0-2.25-2-4.34-2.26,0,0,2.02,5.45.98,5.77-1.04.31-1.81-6.24-1.81-6.24,0,0-5.66-1.63-7.68-1.08,0,0,4.18,4.95,3.1,5-1.08.05-5.67-4.9-5.67-4.9,0,0-5.54-.08-5.86,3.25-.32,3.33,1.34,4.68,2.17,4.74.83.06,5.92-.87,5.9-.19-.02.69-3.29,2.33-5.31,2.06,0,0,3.01,4.87,5.75,4.14,2.74-.74,3.31-2.61,5.01-3.03,1.7-.43,3.04-.18,2.26.43-.78.61-3.75.79-4.94,2.21-1.19,1.42-2.19,2.34.48,2.43,2.67.09,7.26-1.03,7.85-3.18l.59-2.15Z"/>
        <g>
          <path class="cls-16" d="M18.01,94.14s14.68,2.14,17.13,6.9c0,0,.32,2.26,2.15,4.61l.17.99s-2.03-3.13-2.91-3.46c0,0,2.37-4.9-16.54-9.05Z"/>
          <path class="cls-16" d="M37.28,105.66s2.7,2.89,2.15,7.07l-.58-.05s-.21-4.46-1.7-6.47c-1.5-2.01.13-.55.13-.55Z"/>
        </g>
      </g>
      <g>
        <path class="cls-10" d="M44.47,95.88s-6.65-3.72-3.54-8.77c0,0,2.48-3.1,5.14-3.9,0,0-1.42,7.53,0,7.71,1.42.18.97-8.51.97-8.51,0,0,7-3.37,9.75-3.1,0,0-4.34,7.35-2.92,7.18,1.42-.18,6.29-7.62,6.29-7.62,0,0,7.18-1.33,8.33,2.92,1.15,4.25-.71,6.38-1.77,6.65-1.06.27-7.89.18-7.71,1.06.18.89,4.78,2.3,7.35,1.51,0,0-2.84,7-6.56,6.65-3.72-.35-4.87-2.66-7.18-2.84-2.3-.18-3.99.44-2.84,1.06,1.15.62,5.05.2,6.91,1.79,1.86,1.58,3.37,2.56-.09,3.27-3.46.71-9.66.27-10.9-2.39l-1.24-2.66Z"/>
        <g>
          <path class="cls-16" d="M65.21,83.13s-18.61,6.03-20.73,12.76c0,0,.09,3.01-1.77,6.47v1.33s1.95-4.52,3.01-5.14c0,0-4.16-5.85,19.49-15.42Z"/>
          <path class="cls-16" d="M42.7,102.35s-2.87,4.36-1.23,9.66l.74-.2s-.72-5.84.78-8.78c1.5-2.94-.29-.68-.29-.68Z"/>
        </g>
      </g>
      <path class="cls-27" d="M44.25,123.52c7.19,0,13.02-5.83,13.02-13.02h-26.03c0,7.19,5.83,13.02,13.02,13.02Z"/>
      <path class="cls-14" d="M47.45,123.42c-.53.07-1.07.1-1.62.1-7.19,0-13.02-5.83-13.02-13.02h3.23c0,6.64,4.97,12.12,11.4,12.92Z"/>
      <path class="cls-27" d="M57.45,124.18h-26.39c0-.89.72-1.61,1.61-1.61h23.18c.89,0,1.61.72,1.61,1.61h0Z"/>
      <rect class="cls-21" x="30.8" y="110.5" width="26.76" height=".4"/>
    </g>
    <g>
      <path class="cls-12" d="M114.55,74.46s-6.25-1.61-4.81-6.42c0,0,1.36-3.08,3.37-4.31,0,0,.47,6.48,1.67,6.32,1.2-.16-1.05-7.18-1.05-7.18,0,0,5.01-4.28,7.32-4.66,0,0-4.43,7.2-1.86,7.41,1.21.1,4.52-8.5,4.52-8.5,0,0,5.59-2.65,7.46.59,1.87,3.24.8,5.38-.01,5.83-.81.45-6.43,1.86-6.09,2.54.34.69,4.42.85,6.35-.36,0,0-.81,6.35-3.93,6.87-3.13.52-4.57-1.12-6.5-.77-1.93.35-3.17,1.23-2.09,1.49,1.08.26,4.18-.93,6.05-.04,1.87.89,3.31,1.37.64,2.7-2.68,1.33-7.86,2.31-9.45.4l-1.59-1.91Z"/>
      <path class="cls-12" d="M110.25,80.15s-1.41,4.19,1.08,8.19l.56-.32s-1.85-4.63-1.26-7.37c.59-2.73-.39-.5-.39-.5Z"/>
    </g>
    <g>
      <path class="cls-10" d="M109.04,93.17s-7.44-3.88-4.19-9.54c0,0,2.63-3.5,5.53-4.46,0,0-1.31,8.34.25,8.49,1.57.15.79-9.4.79-9.4,0,0,5.14-3.89,10.63-3.73,0,0-4.54,8.24-2.98,8,1.55-.24,6.31-8,6.31-8,0,0,8.22-2.29,9.63,2.36,1.41,4.64-.57,7.05-1.73,7.37-1.16.33-8.67.45-8.45,1.42.22.97,5.34,2.38,8.14,1.42,0,0-2.89,7.8-7,7.53-4.11-.27-5.45-2.77-7.99-2.89-2.54-.12-4.37.62-3.09,1.26,1.29.64,5.57.06,7.67,1.74,2.1,1.68,3.79,2.7,0,3.6-3.78.89-10.62.61-12.08-2.28l-1.45-2.89Z"/>
      <g>
        <path class="cls-16" d="M131.44,78.44s-20.28,7.24-22.4,14.72c0,0,.2,3.31-1.74,7.18l.04,1.46s2-5.04,3.15-5.76c0,0-4.78-6.3,20.95-17.61Z"/>
        <path class="cls-16" d="M103.05,100.35s-3.02,4.89-1.04,10.68l.81-.24s-.98-6.41.58-9.69c1.56-3.28-.34-.74-.34-.74Z"/>
      </g>
    </g>
    <g>
      <rect class="cls-30" x="60.75" y="80.57" width="48.94" height="34.46" rx="17.23" ry="17.23"/>
      <path class="cls-30" d="M75.6,43.02h22.24c10.98,0,19.89,8.91,19.89,19.89h0c0,12.64-10.26,22.89-22.89,22.89h-22.24c-10.98,0-19.89-8.91-19.89-19.89h0c0-12.64,10.26-22.89,22.89-22.89Z"/>
      <path class="cls-30" d="M57.95,113.48h54.53c2.9,0,5.25,2.35,5.25,5.25h0c0,2.9-2.35,5.25-5.25,5.25h-54.53c-2.9,0-5.25-2.35-5.25-5.25h0c0-2.9,2.35-5.25,5.25-5.25Z"/>
      <path class="cls-5" d="M70.54,80.6h14.48c9.51,0,17.23,7.72,17.23,17.23h0c0,9.51-7.72,17.23-17.23,17.23h-14.48c-9.51,0-17.23-7.72-17.23-17.23h0c0-9.51,7.72-17.23,17.23-17.23Z"/>
      <path class="cls-24" d="M65.16,43.05h25.24c10.98,0,19.89,8.91,19.89,19.89h0c0,12.64-10.26,22.9-22.89,22.9h-19.24c-12.63,0-22.89-10.26-22.89-22.89h0c0-10.98,8.91-19.89,19.89-19.89Z"/>
      <path class="cls-24" d="M52.1,113.51h51.37c2.9,0,5.25,2.35,5.25,5.25h0c0,2.9-2.35,5.25-5.25,5.25h-51.37c-2.9,0-5.25-2.35-5.25-5.25h0c0-2.9,2.35-5.25,5.25-5.25Z"/>
      <g>
        <path class="cls-27" d="M93.55,99.15c-1.1-.68-3.24-.41-4.79-.09v-2.24c0-.5-.04-.98-.1-1.47h-23.25c-.06.48-.1.97-.1,1.47v4.56c0,6.45,5.27,11.72,11.72,11.72,3.49,0,6.64-1.55,8.79-3.99h0s5.53-1.36,7.27-3.42c1.74-2.06,2.3-5.4.45-6.54ZM92.32,103.37c-.59,1.52-3.22,2.33-4.53,2.65.52-1.2.84-2.5.94-3.86.8-1.1,2.07-1.74,3-1.57.83.15,1.33.86.59,2.78Z"/>
        <path class="cls-14" d="M67.22,96.81v4.56c0,6.44,5.27,11.72,11.72,11.72.53,0,1.06-.04,1.58-.11-5.71-.77-10.14-5.7-10.14-11.61v-4.56c0-.49.03-.99.1-1.47h-3.15c-.06.48-.1.97-.1,1.47Z"/>
        <rect class="cls-27" x="72.24" y="112.08" width="9.57" height="1.43"/>
      </g>
      <path class="cls-27" d="M64.09,49.13v25.49c0,1.48-1.21,2.69-2.69,2.69h-7.96c-1.48,0-2.69-1.21-2.69-2.69v-25.49c0-1.48,1.21.31,2.69.31h7.96c1.48,0,2.69-1.79,2.69-.31Z"/>
      <g>
        <path class="cls-27" d="M85.39,46.7c0-1.17.95.87,2.13.87s2.13-2.05,2.13-.87-.95,2.13-2.13,2.13-2.13-.95-2.13-2.13Z"/>
        <path class="cls-27" d="M92.41,46.7c0-1.17.95.87,2.13.87s2.13-2.05,2.13-.87-.95,2.13-2.13,2.13-2.13-.95-2.13-2.13Z"/>
        <path class="cls-27" d="M99.16,46.7c0-1.17.95.87,2.13.87s2.13-2.05,2.13-.87-.95,2.13-2.13,2.13-2.13-.95-2.13-2.13Z"/>
        <path class="cls-27" d="M85.39,53.22c0-1.17.95-2.13,2.13-2.13s2.13.95,2.13,2.13-.95,2.13-2.13,2.13-2.13-.95-2.13-2.13Z"/>
        <path class="cls-27" d="M92.41,53.22c0-1.17.95-2.13,2.13-2.13s2.13.95,2.13,2.13-.95,2.13-2.13,2.13-2.13-.95-2.13-2.13Z"/>
        <path class="cls-27" d="M99.16,53.22c0-1.17.95-2.13,2.13-2.13s2.13.95,2.13,2.13-.95,2.13-2.13,2.13-2.13-.95-2.13-2.13Z"/>
        <path class="cls-27" d="M102.5,60.82h-16.2c-.5,0-.91-.41-.91-.91h0c0-.5.41-.91.91-.91h16.2c.5,0,.91.41.91.91h0c0,.5-.41.91-.91.91Z"/>
      </g>
      <g>
        <path class="cls-27" d="M85.39,67.51c0-1.17.95-2.13,2.13-2.13s2.13.95,2.13,2.13-.95,2.13-2.13,2.13-2.13-.95-2.13-2.13Z"/>
        <path class="cls-27" d="M92.41,67.51c0-1.17.95-2.13,2.13-2.13s2.13.95,2.13,2.13-.95,2.13-2.13,2.13-2.13-.95-2.13-2.13Z"/>
        <path class="cls-27" d="M99.16,67.51c0-1.17.95-2.13,2.13-2.13s2.13.95,2.13,2.13-.95,2.13-2.13,2.13-2.13-.95-2.13-2.13Z"/>
        <path class="cls-27" d="M85.39,74.03c0-1.17.95-2.13,2.13-2.13s2.13.95,2.13,2.13-.95,2.13-2.13,2.13-2.13-.95-2.13-2.13Z"/>
        <path class="cls-27" d="M92.41,74.03c0-1.17.95-2.13,2.13-2.13s2.13.95,2.13,2.13-.95,2.13-2.13,2.13-2.13-.95-2.13-2.13Z"/>
        <path class="cls-27" d="M99.16,74.03c0-1.17.95-2.13,2.13-2.13s2.13.95,2.13,2.13-.95,2.13-2.13,2.13-2.13-.95-2.13-2.13Z"/>
        <path class="cls-27" d="M102.5,81.63h-16.2c-.5,0-.91-.41-.91-.91h0c0-.5.41-.91.91-.91h16.2c.5,0,.91.41.91.91h0c0,.5-.41.91-.91.91Z"/>
      </g>
      <path class="cls-11" d="M64.09,70.1v4.53c0,1.48-1.21,2.69-2.69,2.69h-7.96c-1.48,0-2.69-1.21-2.69-2.69v-4.53h13.33Z"/>
      <path class="cls-13" d="M60.08,48.83h-5.33c-.2,0-.37-.17-.37-.37h0c0-.2.17-.37.37-.37h5.33c.2,0,.37.17.37.37h0c0,.2-.17.37-.37.37Z"/>
      <path class="cls-13" d="M61.93,52.21h-9.03c-.2,0-.37-.17-.37-.37h0c0-.2.17-.37.37-.37h9.03c.2,0,.37.17.37.37h0c0,.2-.17.37-.37.37Z"/>
      <path class="cls-13" d="M61.93,53.79h-9.03c-.2,0-.37-.17-.37-.37h0c0-.2.17-.37.37-.37h9.03c.2,0,.37.17.37.37h0c0,.2-.17.37-.37.37Z"/>
      <path class="cls-5" d="M74.74,82.06h0c-.33,0-.59-.27-.59-.59v-34.9c0-.33.27-.59.59-.59h0c.33,0,.59.27.59.59v34.9c0,.33-.27.59-.59.59Z"/>
      <path class="cls-30" d="M73.28,85.84h7.61v2.28c0,1.97-1.6,3.57-3.57,3.57h0c-2.23,0-4.04-1.81-4.04-4.04v-1.8h0Z"/>
      <path class="cls-30" d="M77.01,93.75h0c-.43,0-.78-.35-.78-.78v-1.61c0-.43.35-.78.78-.78h0c.43,0,.78.35.78.78v1.61c0,.43-.35.78-.78.78Z"/>
    </g>
    <g>
      <path class="cls-8" d="M25.57,73.87s.86,0,2.94.96c.61.28,1.66,1.3,2.31,1.45.12.03.24.06.37.09.7.16,1.38.27,1.96.29,0,0,2.47-.95,4.85-3.59.17-.19.34-.38.5-.58.09-.11.06-.92-.02-1.92-.15-1.86-.46-4.39-.46-4.39,0,0-1.72,1.18-5.71,7.17-.13.19-.45.17-1.23.02-.99-.19-1.58.19-4.64-.26,0,0-.4-.06-.43.27-.06.74-.43.49-.43.49Z"/>
      <path class="cls-2" d="M41.07,55.57s4.64-3.36,5.82-.15c0,0,1.25.94,1.15,3.45-.1,2.57-2.19,4-2.91,3.33-.46-.43-1.11.41-1.11.41l-2.95-7.04Z"/>
      <path class="cls-2" d="M44.98,54.55s2.5-1.67,5.4.58c2.9,2.25-.17,6.96.73,8.82,0,0-1.51-1.4-.97-2.76,0,0-.85,2.25.07,3.59,1.52,2.21-2.53,5.08-4.02,4.17-1.22-.75-.12-1.19-1.83-4.17-1.06-1.85,4.5-5.38.63-10.22Z"/>
      <path class="cls-29" d="M49.01,84.8c-1.44-3.23-2.13-4.14-2.15-5.15-.02-.8.38-1.67,1.15-3.79.18-.5.31-1.02.38-1.54.61-4.09-1.76-8.52-3.23-8.82-.41-.11-1.1-1.59-1.09-3.97l-.18.04-3.1.61s.07.98.07,1.89c0,.77-.04,1.49-.22,1.58-.22.02-.35.03-.35.03,0,0-2.58,3.59-2.8,6.93-.22,3.34,2.07,4.79-.02,11.46-2.13,6.81,12.34,2.52,11.55.73Z"/>
      <path class="cls-1" d="M40.78,62.18s.07.98.07,1.89c1.73-.05,2.65-1.63,3.03-2.51l-3.1.61Z"/>
      <path class="cls-2" d="M44.19,61.22s.91-1.44,1.13-2.66c.16-.88-.29-4.13-3.56-3.66,0,0-.95.09-1.84.7-.71.48-1.73,1.51-.59,4.35l.3.96,4.56.32Z"/>
      <path class="cls-7" d="M45.37,115.76c-1.03,4.11-2.59,7.25-2.59,7.25l-1.35-.09s.66-3.16.63-7.42c-.03-2.98-.4-6.5-1.57-9.87-4.05-11.56-3.39-19.97-3.39-19.97l7.61.89.35.04c.03,3.5.12,8.24.2,11.95.07,3.34.13,5.84.13,5.84,1.46,3.15.93,7.6-.02,11.38Z"/>
      <path class="cls-25" d="M49.74,115.1c-.44,4.67-2.36,7.69-2.36,7.69l-.65.47s-.61-3.29-1.04-7.21c-.41-3.72-.98-7.66-1.62-8.86-2.54-4.77-3.3-22.76-3.3-22.76l7.72-.38c.78,1.3,1.11,3.45,1.19,5.88.2,6.14-1.24,14.15-1.46,15.31,0,0,0,0,0,0-.02.09,0,.18.05.26,1.54,3.04,1.76,6.52,1.47,9.6Z"/>
      <path class="cls-8" d="M36.97,73.49c-.08,3.33.28,8.1.76,11.59.08.56.16,2.37.56,2.7,1.88,1.56,4.98,1,6.07.76.91-.2,1.61-1.16,2.11-2.86.17,1.19.54,2.59,1.37,2.68.18.02.34.03.49.04,1.01.04,1.38.66,1.52.21.05-.15-.46-1.78-.48-2.04-.07-1.36-.16-4.01-.25-6.94-.03-.91-.06-1.86-.08-2.8-.05-1.79-.1-3.73-.13-5.45-.03-1.5-.05-2.83-.07-3.76-.02-.93-.68-1.72-1.59-1.89-.29-.05-.57-.1-.84-.13-.21-.03-.42-.04-.59-.06-.4-.03-.66-.04-.66-.04,0,0,.01.49,0,1.07-.02.77-.08,1.71-.29,1.9-.03.02-.08.05-.16.08,0,0,0,0,0,0-.98.34-5.57.77-5.69.2-.01-.05,0-.12,0-.19,0,0,0,0,0,0,.06-.35.35-.94.66-1.48,0,0,0,0,0,0,.38-.67.78-1.29.84-1.39,0,0-.09,0-.16.01h0s-.08,0-.08,0c-.21.03-.41.05-.58.08h0c-.32.04-.57.08-.77.12-.61.1-.76.18-.91.29-.54.54-1.23,1.86-1.29,4.23-.02.88.05,1.9.24,3.08Z"/>
      <path class="cls-29" d="M49.74,115.1c-.44,4.67-2.36,7.69-2.36,7.69l-.66.6s-.6-3.42-1.03-7.34c.46.03,2.47.11,4.06-.96Z"/>
      <path class="cls-15" d="M48.59,79.43c.19.11.37.17.53.2-.03-.91-.06-1.86-.08-2.8-.05-1.79-.1-3.73-.13-5.45-.99-.98-2.18-1.17-2.18-1.17-1.79.65-.36,7.96,1.86,9.22Z"/>
      <path class="cls-29" d="M45.37,115.76c-1.03,4.11-2.59,7.25-2.59,7.25l-1.35-.09s.66-3.16.63-7.42c.46.23,1.41.47,3.31.26Z"/>
      <g>
        <path class="cls-7" d="M43.57,124.15h-.86c-.29-.05-.5-.13-.8-.17-.45-.06-.66.13-.7.17,0,0,0,0,0,0h-3.67c-.09-.13,0-.44.08-.66.06-.15.19-.27.34-.31.39-.11,1.16-.21,1.86-.85.4-.36,1.91-1.31,1.91-1.31h0s.19.05.88.63c.36.3.96-.42.96-.42,0,0,.11.09.2.27.07.14.12.33.08.56-.05.33.12.94.26,1.36.09.25.16.43.16.43,0,0,.04.21-.7.3Z"/>
        <path class="cls-6" d="M43.77,121.49c-.21.15-.64.43-.93.47-.39.05-1.12-.94-1.12-.94h0s.19.05.88.63c.36.3.96-.42.96-.42,0,0,.11.09.2.27Z"/>
        <path class="cls-6" d="M43.57,124.15h-.86c-.29-.05-.5-.13-.8-.17-.45-.06-.66.13-.7.17,0,0,0,0,0,0h-3.67c-.09-.13,0-.44.08-.66.11-.1.14.43.2.51.06.08,2.99.03,3.16-.09.17-.12.68-.34,1.39-.17.62.15,1.52-.23,1.75-.33.09.25.16.43.16.43,0,0,.04.21-.7.3Z"/>
      </g>
      <g>
        <path class="cls-7" d="M48.18,124.15h-.86c-.29-.05-.5-.13-.8-.17-.45-.06-.66.13-.7.17,0,0,0,0,0,0h-3.67c-.09-.13,0-.44.08-.66.06-.15.19-.27.34-.31.39-.11,1.16-.21,1.86-.85.4-.36,1.91-1.31,1.91-1.31h0s.19.05.88.63c.36.3.96-.42.96-.42,0,0,.11.09.2.27.07.14.12.33.08.56-.05.33.12.94.26,1.36.09.25.16.43.16.43,0,0,.04.21-.7.3Z"/>
        <path class="cls-6" d="M48.38,121.49c-.21.15-.64.43-.93.47-.39.05-1.12-.94-1.12-.94h0s.19.05.88.63c.36.3.96-.42.96-.42,0,0,.11.09.2.27Z"/>
        <path class="cls-6" d="M48.18,124.15h-.86c-.29-.05-.5-.13-.8-.17-.45-.06-.66.13-.7.17,0,0,0,0,0,0h-3.67c-.09-.13,0-.44.08-.66.11-.1.14.43.2.51.06.08,2.99.03,3.16-.09.17-.12.68-.34,1.39-.17.62.15,1.52-.23,1.75-.33.09.25.16.43.16.43,0,0,.04.21-.7.3Z"/>
      </g>
      <path class="cls-15" d="M30.82,76.29c.12.03.24.06.37.09.7.16,1.38.27,1.96.29,0,0,2.47-.95,4.85-3.59.17-.19.34-.38.5-.58.09-.11.06-.92-.02-1.92-1.35,1.24-5.02,4.64-5.65,5.45,0,0-.62.4-1.48-.17-.43-.29-.53.04-.52.44Z"/>
      <path class="cls-29" d="M40.03,62.57s3.96,1.08,4.59-1.4c.63-2.48,1.57-4-.93-4.8-2.5-.79-3.24.02-3.65.8-.41.77-1.03,5.05-.02,5.39Z"/>
      <g>
        <path class="cls-28" d="M44.27,68.54h.84s0,0,0,0c.04-.11.73-2.21,1.3-2.94-.21-.03-.42-.04-.59-.06-.13.18-.38.55-.66,1.03-.32.56-.68,1.26-.89,1.98Z"/>
        <path class="cls-28" d="M38.29,68.54h.85s.24-.72.55-1.48c0,0,0,0,0,0,.21-.51.45-1.03.67-1.38-.04,0-.08,0-.08,0-.21.03-.41.05-.58.08h0c-.37.53-1.04,1.54-1.38,2.7,0,.03-.02.05-.02.08Z"/>
        <path class="cls-28" d="M36.69,102.12c0,.51.42.93.93.93h9.78c.51,0,.93-.42.93-.93l.49-9.72.55-10.92c-.01-.11-.22-3.34-.28-3.42-.93-1.17-2.28-4.4-2.91-6.76-.22-.82-.36-1.54-.36-2.03,0-.4-.32-.73-.71-.73h-.55s-.27,0-.27,0c-.02,0-.04,0-.06,0-2.24.27-4.14.14-5.28,0-.2-.03-.37-.05-.52-.08-.04,0-.09,0-.13,0-.27.02-.5.24-.52.53l-.29,3.4-.4,4.66c-.13.95-.41,25.07-.41,25.07Z"/>
      </g>
      <path class="cls-2" d="M41.9,55.85s.35,3.18,1.91,4.04c1.56.86,2.4.59,2.4.59,0,0-.5-2.18-.32-4.02,0,0-2.82-1.78-3.99-.61Z"/>
      <path class="cls-31" d="M42.41,75.32s1.56,13.7,6.41,17.08l.55-10.92c-.01-.11-.22-3.34-.28-3.42-.93-1.17-2.28-4.4-2.91-6.76-.06.02-.12.06-.18.12-2.22,2.27-3.6,3.9-3.6,3.9Z"/>
      <path class="cls-2" d="M42.11,56.16s-.98.44-1.34,1.02c-.36.58-.78,1.86-1.15,1.71,0,0-.32-2.18.89-3.07,1.28-.94,1.59.33,1.59.33Z"/>
      <path class="cls-2" d="M41.93,56.22s0,3.24,1.86,4.75c0,0-1.63-2.41-1.3-4.46.33-2.05-.56-.29-.56-.29Z"/>
      <path class="cls-19" d="M39.84,61.05s-.04.27.6.48c0,0,.54.17.63-.11,0,0-.43-.39-1.23-.36Z"/>
      <path class="cls-8" d="M32.89,74.49s3.25,1.64,6.08,2.31c.81.19,1.59.33,2.26.36,0,0,3.03-.93,5.35-4.18,4.47-6.27,1.02-6.94,1.02-6.94,0,0-2.99,1.86-7.21,7.8-.15.21-.52.16-1.48-.03-1.03-.21-3.07-.18-5.88-.6,0,0-.05.1-.08.44-.06.74-.06.83-.06.83Z"/>
      <path class="cls-1" d="M25.57,73.87s1.22.19,3.28,1.47c.68.42,1.58.86,2.33,1.03.3-1.35.09-2.4-.11-3.01-.99-.19-2.37.09-5.42-.36l-.08.87Z"/>
      <g>
        <g>
          <polygon class="cls-17" points="31.11 69.37 31.08 70.21 31 71.98 30.96 72.79 28.73 72.79 28.67 71.98 28.56 70.21 28.51 69.37 31.11 69.37"/>
          <polygon class="cls-26" points="31.16 68.8 28.5 68.8 28.39 69.37 31.23 69.37 31.16 68.8"/>
          <polygon class="cls-4" points="31.08 70.21 31 71.98 28.67 71.98 28.56 70.21 31.08 70.21"/>
        </g>
        <g>
          <polygon class="cls-17" points="27.05 69.37 27.01 70.21 26.94 71.98 26.9 72.79 24.66 72.79 24.61 71.98 24.5 70.21 24.45 69.37 27.05 69.37"/>
          <polygon class="cls-26" points="27.09 68.8 24.44 68.8 24.33 69.37 27.17 69.37 27.09 68.8"/>
          <polygon class="cls-4" points="27.01 70.21 26.94 71.98 24.61 71.98 24.5 70.21 27.01 70.21"/>
        </g>
        <rect class="cls-18" x="22.11" y="72.79" width="11.23" height=".59"/>
      </g>
      <path class="cls-29" d="M32.82,74.58s3.33,1.55,6.15,2.23c-.62-1.23-.38-2.3-.06-2.99-1.03-.21-3.08-.3-5.9-.71,0,0-.03.22-.06.55-.06.74-.13.92-.13.92Z"/>
      <path class="cls-29" d="M33.37,73.19s-.83-.16-1.51-.5c-.69-.34-2.52-.57-2.91-.21-.39.37.41,1.86,2.09,1.9,1.67.05,2.15.32,2.15.32l.18-1.51Z"/>
      <path class="cls-31" d="M49.53,77.87c.24,0,1.71.84,1.78,1.15.07.31-2.23,1.29-2.23,1.29,0,0,.21-2.44.45-2.44ZM50.82,79.07c.04-.13-.94-.43-1.12-.43-.18,0-.53,1.58-.53,1.58,0,0,1.61-1.02,1.65-1.15Z"/>
      <path class="cls-31" d="M50.63,80.22c.03.14-.24,1.12-.41,1.2-.17.08-1.07-1.11-1.07-1.11,0,0,1.45-.23,1.49-.09ZM50.11,81.14c.08,0,.12-.61.09-.71-.03-.1-1-.08-1-.08,0,0,.83.79.91.8Z"/>
      <path class="cls-31" d="M49.04,81.14s2.07,1.77,2.38,4.09c.31,2.33.85,2.67.85,2.67,0,0-.26.19-.45.09-.19-.1-.8-1.74-.81-2.51-.02-.77-.95-3.01-1.95-3.63-1-.61,0-.72,0-.72Z"/>
      <path class="cls-29" d="M32.65,73s-.32-.32-.39-.51c-.07-.19-1.07-.46-1.15-.39-.15.14.48.61.48.61l1.06.29Z"/>
      <path class="cls-1" d="M25.57,73.87s-.97.36-1.5.25c-.54-.12-1.28-.74-1.28-.74h2.82l-.04.49Z"/>
    </g>
    <path class="cls-3" d="M147.26,123.98c.16,0,.3.13.3.3h0c0,.16-.13.3-.3.3"/>
    <g id="man">
      <path class="cls-29" d="M100.05,58.07s4.87,1.33,7.28.03c0,0-.53-.98-1.75-1.38-.4-.17-.28-.44-.3-.75-.07-1.13-.18-1.76-.18-1.76l-3.15-1.67-.71-.37c.12.52.18,1.01.2,1.46,0,.04,0,.07,0,.11.07,2.73-1.39,4.33-1.39,4.33Z"/>
      <path class="cls-1" d="M101.41,53.7s.01.01.03.04c.23.27,1.79,2.03,3.84,2.23-.07-1.13-.18-1.76-.18-1.76l-3.15-1.67c-.28.49-.45.92-.51,1.09-.02.05-.03.07-.03.07Z"/>
      <path class="cls-29" d="M105.59,55.33s-4.38.16-4.43-2.57c-.06-2.73-.66-4.54,2.13-4.76,2.79-.22,3.36.81,3.6,1.72.24.91-.16,5.5-1.29,5.61Z"/>
      <path class="cls-2" d="M102.03,52.17s-.49-.65-.12-.97.49.26.75.27c.26.02.82-.68.95-1.37.12-.69,2.48.69,3.52.49,1.04-.2,2.09-1.42.62-2.34-.86-.54-5.18-3.31-7.2-1.33-2.59,2.53,0,5.87.34,6.37.34.5.58.4.58.4,0,0,.82-.86.56-1.52Z"/>
      <path class="cls-2" d="M100.77,47.09c-.03-.21-.09,2.24.03,1.88,0,0,.1-2.44.23-2.17.13.27-.26.29-.26.29Z"/>
      <path class="cls-2" d="M100.23,46.59s.55-.05.66.37l-.15.29s-.07-.54-.52-.66Z"/>
      <path class="cls-8" d="M110.84,75.84l-12.98.99s-.02-2.24-.05-5.21c-.03-2.85-.05-6.37-.07-9.24-.01-2.58-.01-4.64,0-5.23,0,0,.84-.37,3.14-.49,0,0,1.64,1.99,3.26,1.4,1.62-.58,1.16-1.59,1.16-1.59.16,0,.32,0,.48.01.25.01.5.02.74.04.87.07,1.67.19,2.34.39,3.82,1.13,1.98,18.92,1.98,18.92Z"/>
      <path class="cls-2" d="M100.57,124.01c-.51-.43-.27-3.81-.27-3.81,0,0,2.68-1.14,3.03.46.36,1.6,2.48,2.31,3.68,2.51.8.13,1.07.57,1.16.84h-7.61Z"/>
      <path class="cls-2" d="M113.8,124.01c-.51-.43-.2-2.86-.2-2.86,0,0,1.7-2.1,2.42-.65.72,1.47,3.02,2.47,4.23,2.67.8.13,1.07.57,1.16.84h-7.61Z"/>
      <path class="cls-7" d="M110.88,81.58s1.95,30.62,5.32,39.13c0,0-2.27,1.43-3.52.48,0,0-7.79-16.03-6.7-19.67.73-2.44-7.53-19.72-7.53-19.72l12.43-.23Z"/>
      <path class="cls-25" d="M98.05,79.79c-.18-.03-.34.13-.31.31.31,2.4,1.99,16.07.71,19.82-1.59,4.66,1.55,20.71,1.55,20.71,0,0,2.36,1,3.94.04,0,0,.49-17.37,1.16-20.82.68-3.45,4.3-18.34,4.3-18.34l-11.36-1.7Z"/>
      <path class="cls-15" d="M97.81,71.62c-.03-2.85-.05-6.37-.07-9.24,1.04.35,2.76,1.23,3.16,3.28.4,2-1.41,4.9-3.09,5.96Z"/>
      <path class="cls-8" d="M119.89,64.24s-.51-.04-1.32-.12c-1.72-.16-4.82-.47-7.41-.88h0c-2.07-.33-3.82-.72-4.26-1.15-1.27-1.22-.69-5.57-.69-5.57,0,0,1.34-.02,2.66.41,3.56,1.15,10.94,3.78,11.78,5.16,1.09,1.78-.76,2.16-.76,2.16Z"/>
      <path class="cls-8" d="M98.67,56.9s-2.26.41-2.78,1.5c-.52,1.09-3.84,9.15-3.61,12.1,0,0,.54,1.01,1.26,1.53,0,0,3.41-.57,3.66-2.95,0,0-.18-.34.02-.65.19-.31,4.35-4.23,4.38-5.4.03-1.18-2.93-6.12-2.93-6.12Z"/>
      <path class="cls-28" d="M112.52,91.64l-1.23-24.26c0-1.28-.54-2.27-.78-3.27-.15-.63-.59-.71-.98-.67-.3-.73-2.42-5.86-3.01-6.91-.24-.02-.49-.03-.74-.04.22.59,1.97,3.94,2.59,7.05h-.9s-5.12.1-5.12.1c-.11-.5-1.49-6.81-2.02-6.95l-.61.06s1.4,3.56,1.58,6.91h-.23c-.34,0-.62.29-.63.63-.05,2.73-2.66,4.52-2.66,4.52l-.05,11.24c.27,1.31.58,2.95.9,4.66.52,2.76,1.06,5.73,1.52,7.88.23,1.09,2.26.94,3.37.94h7.19c1.03,0,1.85-.87,1.8-1.9Z"/>
      <path class="cls-22" d="M111.71,73.56s-.67.71-.69,1.27l-.85-.11s.98-1.14,1.6-1.29l-.06.13Z"/>
      <path class="cls-31" d="M98.64,84.71h0c-.32-1.71-.63-3.35-.9-4.66l.05-11.24s2.61-1.79,2.66-4.52c0,0,5.15,17-1.81,20.42Z"/>
      <g>
        <path class="cls-8" d="M106.97,75.88c.23.36,1.06.68,1.06.68h0c.28.42.74.73,1.28.8,1,.13,1.93-.58,2.06-1.57l.09-.71c.01-.08.01-.15.02-.23l-3.6-.48c-.02.07-.03.15-.05.23l-.05.35c-.23-.08-.56-.17-.74-.09-.31.14-.29.67-.06,1.02ZM107.28,75.12c.15,0,.33.12.43.31-.01.21,0,.42.07.62-.2-.08-.59-.26-.65-.5-.08-.31.02-.41.15-.42Z"/>
        <path class="cls-23" d="M111.18,74.81l-.49-.07c0,.08,0,.15-.02.23l-.09.71c-.12.92-.91,1.59-1.81,1.59.08.02.16.04.24.05,1,.13,1.93-.58,2.06-1.57l.09-.71c.01-.08.02-.15.02-.23Z"/>
        <rect class="cls-8" x="108.56" y="77.2" width="1.5" height=".22" transform="translate(207.43 168.41) rotate(-172.4)"/>
      </g>
      <path class="cls-29" d="M107.8,75.53c-.07.41-.3,1.15-.86,1.19-.56.04-4.08-.86-4.08-.86-3.74-.51-6.98-2.52-8.86-3.93.93-.25,3.02-1.01,3.21-2.85.97.97,6.5,4.85,6.5,4.85.31-.06,1.84-.31,2.64-.11.89.22,1.53,1.3,1.45,1.71Z"/>
      <g>
        <path class="cls-8" d="M113.47,71.7h3.56c.08,0,.15.07.15.15v.28c0,.08-.07.15-.15.15h-3.56c-.08,0-.15-.07-.15-.15v-.28c0-.08.07-.15.15-.15Z" transform="translate(-20.64 71.89) rotate(-31.95)"/>
        <path class="cls-15" d="M115.06,71.29h1.84c.08,0,.15.07.15.15v.28c0,.08-.07.15-.15.15h-1.84c-.08,0-.15-.07-.15-.15v-.28c0-.08.07-.15.15-.15Z" transform="translate(-20.31 72.22) rotate(-31.95)"/>
        <g>
          <path class="cls-8" d="M115.54,74.23l.07.3c.02.07-.01.14-.07.18l-2.09,1.3s-.11.03-.16,0l-.27-.22s-.03-.03-.04-.05l-.93-2-.27-.14c-.09-.05-.09-.17,0-.22l.86-.52,1.22-.73c.07-.04.15,0,.18.06l.09.25,1.38,1.7s.03.05.04.09Z"/>
          <path class="cls-15" d="M115.54,74.28l.07.3c.02.07-.01.14-.07.18l-1.18.73s-.11.03-.16,0l-.27-.22s-.03-.03-.04-.05l-.93-2-.27-.14c-.07-.03-.09-.11-.05-.17l1.22-.73c.07-.04.15,0,.18.06l.09.25,1.38,1.7s.03.05.04.09Z"/>
        </g>
      </g>
      <path class="cls-19" d="M104.8,53.97s.07.29.79.25c0,0,.61-.04.59-.36,0,0-.59-.23-1.38.11Z"/>
      <path class="cls-15" d="M118.56,64.12c-1.72-.16-4.82-.47-7.41-.88.04-.02,1.2-.66,2.5-.46,1.32.2,3.9.38,4.65-.04.43-.24.55.6.25,1.38Z"/>
      <path class="cls-29" d="M121.39,64.24c0-2.25-1.69-2.86-1.69-2.86,0,0-.68-.36-1.57.75-1.02,1.27-2.07,7.1-2.07,7.1,0,0-1.02.92-.92,1.78.1.85.41,2.2.92,2.02.51-.18,1.12-.95,1.29-1.5.15-.45.1-1.28.08-1.55.18-.23,3.96-5.14,3.96-5.76Z"/>
    </g>
  </g>
  <text class="cls-9" transform="translate(54.97 144.07)"><tspan x="0" y="0">Coffee</tspan></text>
</svg>