<?xml version="1.0" encoding="UTF-8"?>
<svg id="Layer_1" xmlns="http://www.w3.org/2000/svg" viewBox="0 0 150 150">
  <defs>
    <style>
      .cls-1 {
        fill: #2e3b65;
      }

      .cls-2 {
        fill: #dfb697;
      }

      .cls-3 {
        fill: #fff4ea;
      }

      .cls-4 {
        fill: #597852;
      }

      .cls-5 {
        fill: #a2d5e4;
      }

      .cls-6 {
        fill: #e5bd9e;
      }

      .cls-7 {
        fill: #243962;
      }

      .cls-8 {
        fill: #a07960;
      }

      .cls-9 {
        fill: #f5f9fd;
        font-family: HelveticaNeue-CondensedBold, 'Helvetica Neue';
        font-size: 18px;
        font-weight: 700;
      }

      .cls-10 {
        fill: #87d0cd;
      }

      .cls-11 {
        fill: #e0b594;
      }

      .cls-12 {
        fill: #599dad;
      }

      .cls-13 {
        fill: #f8e6d3;
      }

      .cls-14 {
        fill: #d2a687;
      }

      .cls-15 {
        fill: #c08e4b;
      }

      .cls-16 {
        fill: #c59d7f;
      }

      .cls-17 {
        fill: #6db7c0;
      }

      .cls-18 {
        fill: #8dd3d7;
      }

      .cls-19 {
        fill: #fff;
      }

      .cls-20 {
        fill: #f7dfc8;
      }

      .cls-21 {
        fill: #2b488c;
      }

      .cls-22 {
        fill: #f89748;
      }

      .cls-23 {
        fill: #eda04b;
      }

      .cls-24 {
        fill: #faebdb;
      }

      .cls-25 {
        fill: #ee985e;
      }

      .cls-26 {
        fill: #fab17e;
      }

      .cls-27 {
        fill: #fab179;
      }
    </style>
  </defs>
  <g>
    <path class="cls-20" d="M122.47,124.15c3.5-2.31,8.76-6.84,13.01-11.58,3.59-3.99,6.85-8.53,9.26-13.36,5.37-10.73,7.27-24.22-1.79-39.06-4.34-7.11-10.45-12.35-18.18-15.65-16.71-7.14-36.09-3.03-40.41-.97,0,0-11.21-29.99-44.93-26.19C15.54,20.03,2.6,45.42,1.4,69.43c-.96,19.22,4.95,39.24,14.5,54.95l106.57-.23Z"/>
    <path class="cls-24" d="M84.36,43.53s-11.21-29.99-44.93-26.19c-10.59,1.19-19.03,6.85-25.25,14.86v89.24c.56.99,1.13,1.98,1.72,2.94l106.57-.23c2.89-1.91,6.98-5.33,10.71-9.13V49.33c-2.54-1.91-5.35-3.52-8.41-4.83-16.71-7.14-36.09-3.03-40.41-.97Z"/>
    <path class="cls-3" d="M14.18,32.2v7.63l77.49,11.42L15.89,30.16c-.58.66-1.15,1.34-1.71,2.04Z"/>
    <g>
      <path class="cls-13" d="M114.78,70.62h-1.01v-16.2h-10.65v30.37h-12.01v17.71h-4.49v4.46h-4.84v-7.68h-8.7v-20.88h-1.36v-2.08h-.19v2.08h-1.13s-5.64,0-5.64,0v-2.08h-.19v2.08h-1.47v38.54h-7.31v7.34l66.7-.14s.87-.58,2.31-1.67c2-1.53,5.09-4.07,8.41-7.46v-49.87s-.02-.02-.03-.03h-.28v12.83h-6.72v-20.65c-.09-.08-.17-.16-.25-.25h-1.63s-9.5-.01-9.5-.01h0s0,.01,0,.01v13.56Z"/>
      <polygon class="cls-13" points="31.22 51.25 31.22 124.34 49.58 124.3 49.58 51.25 31.22 51.25"/>
      <path class="cls-13" d="M14.18,61.8v59.57c.55,1,1.12,2,1.71,3l9.72-.02v-62.55h-11.43Z"/>
    </g>
    <g>
      <path class="cls-8" d="M60.22,124.38c-2.65-13.77-1.97-22.21-1.97-22.32,0-.21-.37-.4-.58-.41-.21,0-1.12-.06-1.23.12-.14.24-.67,10.64,3.28,22.61h.5Z"/>
      <path class="cls-14" d="M42.73,94.67c-.17-4.26-.53-7.96-.97-10.54-.69-4.12-1.32-6.48-1.33-6.51-.09-.36-1.41-1.83-4.35-1.78-2.94.05-2.66,1.97-2.66,1.97h0c0,.06,0,.13.02.17.03.1,2.73,10.12,2.61,23.07,0,.18-.02.5,0,.71,0,0,6.81.18,6.81,0,.24-1.13.12-4.27-.13-7.08Z"/>
      <path class="cls-6" d="M43.58,100.98c0,.18-.09.32-.21.32h0c-.11,0-.2-.15-.2-.32h-5.83c0,.18-.09.32-.21.32h0c-.12,0-.21-.15-.21-.33.03-3.71-.17-7.17-.48-10.22-.78-7.62-2.21-12.7-2.23-12.78-.01-.05-.02-.11-.02-.17,0,0-.28-1.92,2.66-1.97,2.94-.05,4.26,1.42,4.35,1.78,0,.02.36,1.36.83,3.77.16.8.32,1.71.5,2.74.44,2.58.8,6.29.97,10.54.25,2.81.33,5.18.1,6.31Z"/>
      <path class="cls-2" d="M43.58,100.98c0,.18-.09.32-.21.32h0c-.11,0-.2-.15-.2-.32h-5.83c0,.18-.09.32-.21.32h0c-.12,0-.21-.15-.21-.33.03-3.71-.17-7.17-.48-10.22.96-4.83,4.69-8.53,5.59-9.36.16.8.32,1.71.5,2.74.44,2.58.8,6.29.97,10.54.25,2.81.33,5.18.1,6.31Z"/>
      <path class="cls-14" d="M37.7,100.91h.02s0-.02,0-.04h0s0,0,0-.02c0-.24.49-.29,1.27-.29.17,0,.36,0,.56,0,.22,0,.46,0,.71,0,.74,0,1.72-.02,2.69-.2.63-.11.2-5.06-.24-9.68-.08-.79-.14-1.41-.16-1.77-.29-3.94-1.97-10.92-1.98-10.98-.07-.29-1.08-1.38-3.27-1.35-.81.01-1.39.22-1.72.61-.35.41-.29.87-.29.89,0,.04,0,.09.02.13,0,.04,1.52,9.06,1.77,11.24.41,3.64.57,11.27.58,11.38,0,0,0,.01,0,.02v.03s.03,0,.03,0ZM39.01,100.5c-.68,0-1.12.04-1.28.2-.03-1.12-.19-7.88-.57-11.23-.25-2.22-1.76-11.22-1.77-11.25,0-.03-.01-.08-.01-.12,0,0-.06-.46.27-.85.32-.37.88-.57,1.67-.58,2.15-.03,3.13,1.02,3.2,1.3.02.06,1.69,7.08,1.98,10.96.03.37.09.99.16,1.77.16,1.71.39,4.06.5,6.04.16,2.89-.02,3.54-.2,3.57-.97.17-1.94.2-2.68.2-.25,0-.49,0-.71,0-.2,0-.39,0-.56,0Z"/>
      <path class="cls-6" d="M36.49,101.3h22.88s-.53-2.21-13.78-1.88c-9.38.23-9.09,1.88-9.09,1.88Z"/>
      <path class="cls-14" d="M34.62,124.38c2.65-13.77,1.97-22.21,1.97-22.32,0-.21.37-.4.58-.41.21,0,1.12-.06,1.23.12.14.24.67,10.64-3.28,22.61h-.5Z"/>
      <path class="cls-14" d="M55.98,124.38c-2.65-13.77-1.97-22.21-1.97-22.32,0-.21-.37-.4-.58-.41-.21,0-1.12-.06-1.23.12-.14.24-.67,10.64,3.28,22.61h.5Z"/>
      <path class="cls-8" d="M38.88,124.38c2.65-13.77,1.97-22.21,1.97-22.32,0-.21.37-.4.58-.41.21,0,1.12-.06,1.23.12.14.24.67,10.64-3.28,22.61h-.5Z"/>
      <rect class="cls-14" x="36.03" y="100.73" width="23.81" height="1.28" rx=".62" ry=".62"/>
    </g>
    <g>
      <path class="cls-14" d="M108.07,94.2c.17-4.26.53-7.96.97-10.54.69-4.12,1.32-6.48,1.33-6.51.09-.36,1.41-1.83,4.35-1.78,2.94.05,2.66,1.97,2.66,1.97h0c0,.06,0,.13-.02.17-.03.1-2.73,10.12-2.61,23.07,0,.18.02.5,0,.71,0,0-6.81.18-6.81,0-.24-1.13-.12-4.27.13-7.08Z"/>
      <path class="cls-6" d="M107.22,100.51c0,.18.09.32.21.32h0c.11,0,.2-.15.2-.32h5.83c0,.18.09.32.21.32h0c.12,0,.21-.15.21-.33-.03-3.71.17-7.16.48-10.22.78-7.62,2.21-12.7,2.23-12.78.01-.05.02-.11.02-.17,0,0,.28-1.92-2.66-1.97-2.94-.05-4.26,1.42-4.35,1.78,0,.02-.36,1.36-.83,3.77-.16.8-.32,1.71-.5,2.74-.44,2.58-.8,6.29-.97,10.54-.25,2.81-.33,5.18-.1,6.31Z"/>
      <path class="cls-2" d="M107.22,100.51c0,.18.09.32.21.32h0c.11,0,.2-.15.2-.32h5.83c0,.18.09.32.21.32h0c.12,0,.21-.15.21-.33-.03-3.71.17-7.16.48-10.22-.96-4.83-4.69-8.53-5.59-9.36-.16.8-.32,1.71-.5,2.74-.44,2.58-.8,6.29-.97,10.54-.25,2.81-.33,5.18-.1,6.31Z"/>
      <path class="cls-14" d="M113.13,100.44v-.04s0-.01,0-.02c0-.11.16-7.75.58-11.38.25-2.17,1.76-11.2,1.77-11.24.01-.04.02-.09.02-.14,0-.01.06-.48-.29-.89-.33-.39-.91-.59-1.72-.61-2.19-.03-3.19,1.06-3.27,1.35-.02.05-1.69,7.05-1.98,10.97-.03.37-.09.99-.16,1.77-.44,4.62-.87,9.57-.24,9.68.98.18,1.95.2,2.69.2h0c.25,0,.49,0,.71,0,.2,0,.39,0,.56,0,.78,0,1.26.05,1.27.29,0,.03,0,.03,0,.04h0s.05.01.05.01ZM113.38,76.2s.06,0,.1,0c.79.01,1.36.21,1.67.58.33.39.27.84.27.84,0,.05,0,.09-.01.12,0,.03-1.52,9.04-1.77,11.25-.38,3.36-.55,10.12-.57,11.23-.16-.16-.59-.2-1.28-.2-.17,0-.36,0-.56,0-.22,0-.46,0-.71,0h0c-.74,0-1.71-.02-2.68-.2-.18-.03-.36-.68-.2-3.57.11-1.98.33-4.32.5-6.04.08-.79.14-1.41.16-1.77.29-3.95,1.96-10.9,1.98-10.96.07-.28,1.02-1.3,3.1-1.3Z"/>
      <path class="cls-6" d="M114.31,100.83h-22.88s.53-2.21,13.78-1.88c9.38.23,9.09,1.88,9.09,1.88Z"/>
      <path class="cls-14" d="M116.18,123.92c-2.65-13.77-1.97-22.21-1.97-22.32,0-.21-.37-.4-.58-.41-.21,0-1.12-.06-1.23.12-.14.24-.67,10.64,3.28,22.61h.5Z"/>
      <path class="cls-14" d="M94.82,123.92c2.65-13.77,1.97-22.21,1.97-22.32,0-.21.37-.4.58-.41.21,0,1.12-.06,1.23.12.14.24.67,10.64-3.28,22.61h-.5Z"/>
      <path class="cls-8" d="M90.58,123.92c2.65-13.77,1.97-22.21,1.97-22.32,0-.21.37-.4.58-.41.21,0,1.12-.06,1.23.12.14.24.67,10.64-3.28,22.61h-.5Z"/>
      <path class="cls-8" d="M111.91,123.92c-2.65-13.77-1.97-22.21-1.97-22.32,0-.21-.37-.4-.58-.41-.21,0-1.12-.06-1.23.12-.14.24-.67,10.64,3.28,22.61h.5Z"/>
      <rect class="cls-14" x="90.96" y="100.26" width="23.81" height="1.28" rx=".62" ry=".62" transform="translate(205.72 201.8) rotate(180)"/>
    </g>
    <g>
      <path class="cls-16" d="M58.21,123.92c.23,0,.43-.17.47-.4l2.32-13.53,3.34-19.46.93-5.44-2.38-.07-.41,3.16-2.9,22.19-1.72,13.16c-.03.2.13.39.34.39Z"/>
      <path class="cls-16" d="M82.56,85.09l1.06,6.17h0s2.92,17.03,2.92,17.03l2.62,15.23c.04.23.24.4.47.4.21,0,.37-.18.34-.39l-2.26-17.26-2.41-18.46-.36-2.79-2.38.07Z"/>
      <path class="cls-8" d="M83.62,91.26c-.14-2.65,1.68-3.45,1.68-3.45l-.36-2.79-2.38.07,1.06,6.17Z"/>
      <path class="cls-8" d="M62.49,88.18c1.54.7,1.86,2.35,1.86,2.35l.93-5.44-2.38-.07-.41,3.16Z"/>
    </g>
    <rect class="cls-11" x="49.58" y="82.96" width="48.68" height="4.27" rx="1.95" ry="1.95"/>
    <path class="cls-6" d="M130.22,47.31v70.58c.95-.88,1.95-1.84,2.96-2.88V49.33c-.97-.73-1.96-1.4-2.96-2.02Z"/>
    <path class="cls-3" d="M40.76,21.8l38.45,12.69c-1.53-2.1-3.44-4.36-5.78-6.54l-32.68-6.15Z"/>
    <path class="cls-3" d="M61.13,35.2c0-1.27-1.03-2.3-2.3-2.3s-2.3,1.03-2.3,2.3,1.03,2.3,2.3,2.3,2.3-1.03,2.3-2.3Z"/>
    <path class="cls-6" d="M12.7,34.18v84.4c.48.93.97,1.86,1.48,2.79.48.87.97,1.74,1.48,2.62V30.41c-.51.58-1,1.18-1.48,1.79-.51.64-1,1.3-1.48,1.98Z"/>
    <g>
      <path class="cls-12" d="M4.69,98.16c.55,1.99,1.16,3.99,1.85,5.99.09.26.18.52.27.78.85,2.43,2.59,6.66,3.66,9.1.7.23.6-1.4,1.2-1.31,2.69.41,1.86-.7.93-2.34-.93-1.64-3.86-2.38-4.53-3.13-.67-.76.72-.76,2.34-.02,1.62.74,1.84,2.72,4.45,3.96,2.6,1.25,6.52-3.07,6.52-3.07-2.07-.11-5.03-2.36-4.93-3.05.11-.69,5.03,1.19,5.87,1.28.84.09,2.75-.96,3.05-4.34.3-3.39-5.26-4.33-5.26-4.33,0,0-5.51,4.1-6.58,3.85-1.07-.25,4.03-4.42,4.03-4.42-1.92-.92-7.89-.34-7.89-.34,0,0-1.99,6.41-2.97,5.9-.98-.51,2.05-5.58,2.05-5.58-1.45-.09-3.12.61-4.04,1.07Z"/>
      <path class="cls-12" d="M6.54,104.15c.09.26.18.52.27.78,2.35-1.28,6.92-2.53,15.81-2.82,0,0-10.73-.41-16.08,2.04Z"/>
    </g>
    <g>
      <path class="cls-17" d="M142.89,98.04s-7.86-3.78-10.94-3.48c0,0,4.87,8.25,3.28,8.05s-7.06-8.55-7.06-8.55c0,0-8.05-1.49-9.35,3.28-1.29,4.77.8,7.16,1.99,7.46,1.19.3,8.85.2,8.65,1.19-.2.99-5.37,2.59-8.25,1.69,0,0,3.18,7.86,7.36,7.46,3.78-.36,5.2-2.51,7.35-3.06h0c2.54-2.88,4.91-6.03,6.9-9.36.01-2.25.07-4.68.07-4.68Z"/>
      <path class="cls-12" d="M139.47,107.7c-3.28-2.49-8.56-5.47-16.96-8.87.23.07,10.63,3.47,17.52,8.11l-.55.75Z"/>
    </g>
    <g>
      <path class="cls-10" d="M2.54,88.44c.33,1.94.72,3.9,1.17,5.88,2.67-.02,5.62-.64,7.65-1.46,3.95-1.6,1.94-2.43-.61-3.9-2.36-1.36-6.43-.31-8.21-.53Z"/>
      <path class="cls-10" d="M1.6,80.99c.04.41.07.83.11,1.24.16,1.65.37,3.31.63,4.99.66-.33,1.71-.62,2.94-.75,2.77-.29,4.65,2.19,9.14,1.79,4.5-.39,6.33-9.32,6.33-9.32-2.88,1.51-8.65.84-9.06-.18-.4-1.01,7.71-2.4,8.92-2.95,1.2-.55,2.95-3.48.65-8.28-2.3-4.8-10.53-1.65-10.53-1.65,0,0-4.15,9.9-5.8,10.42-1.64.52,1.9-9.16,1.9-9.16-1.37.12-3.46,1.13-5.44,2.27-.19,3.75-.13,7.61.21,11.56Z"/>
      <path class="cls-17" d="M17.66,69.84c-.15.08-9.63,5.23-16.06,11.15.04.41.07.83.11,1.24,3.02-3.23,7.96-7.32,15.94-12.4Z"/>
    </g>
    <g>
      <g>
        <path class="cls-26" d="M71.94,69.49h-1.33s-2.3-1-3.65,1.38c0,0-.48,1.02.33,1.11.81.09.51-.06,1.66.09,1.14.15,2.25-.24,2.66-.98l.75-.58-.43-1.02Z"/>
        <path class="cls-7" d="M70.93,70.39c-.24-.93-.16-1.07-.16-1.07,0,0,8.31-3.96,9.07-4.36.76-.41,9.57-8.87,9.57-8.87l8.44,2.79s-13.76,9.41-15.71,10.4c-3.23,1.63-10.54,2.28-10.54,2.28,0,0-.47-.45-.66-1.17Z"/>
      </g>
      <g>
        <path class="cls-1" d="M117.03,117.39s1.38,1.28,1.11,2.18c-.27.91-1.04,1.51-1.21,2.62-.17,1.11-.84,1.71-1.45,1.71h-3.35s-.45-.78.63-1.02c1.08-.24,1.48-1.54,1.41-2.75-.07-1.21.1-2.82.1-2.82l2.29-.54.47.61Z"/>
        <path class="cls-1" d="M99.85,123.87s-.09.03-.16.05h-7.65c.06-.27.3-.81,1.22-.95,1.2-.2,3.29-.9,3.76-2.44.01-.05.03-.1.04-.15.37-1.65,3.06.5,3.06.5,0,0,0,.07.02.18.06.6.22,2.56-.29,2.81Z"/>
        <path class="cls-21" d="M93.58,79.81s.41,5.1.89,11.22c.65,8.32,1.44,18.54,1.51,20.48.13,3.36.67,8.74.67,8.74,0,0,1.28,1.28,3.83.74,0,0,2.28-7.68,2.93-15.8,0-.13.02-.27.03-.4.61-8.27,1.55-25.68,1.55-25.68l-11.41.71Z"/>
        <path class="cls-7" d="M93.58,79.81s.41,5.1.89,11.22l8.95,14.16c0-.13.02-.27.03-.4.61-8.27,1.55-25.68,1.55-25.68l-11.41.71Z"/>
        <path class="cls-21" d="M95.44,80.42s7.36,18.45,12.2,27.13c4.84,8.67,6.35,11.09,6.35,11.09,0,0,2.77-1.11,3.03-1.87,0,0-1.85-16.74-5.09-20.82-1.83-2.31-3.98-9.23-4.08-11.65-.1-2.42-.66-7.21-.66-7.21l-11.75,3.33Z"/>
      </g>
      <path class="cls-26" d="M92.2,51.37s-3,5.28-5.94,5.97c0,0,.12-1.77.84-2.99-.29-.35-.55-.66-.77-.95-.74-.95-1.09-1.53-1.09-1.53l1-2.68.68-1.82c.33.59.68,1.09,1.06,1.52,1.92,2.21,4.24,2.46,4.24,2.46Z"/>
      <path class="cls-25" d="M87.97,48.9s.36,2.65-1.64,4.5c-.74-.95-1.09-1.53-1.09-1.53l1-2.68c1.07-.33,1.73-.3,1.73-.3Z"/>
      <path class="cls-26" d="M84.44,52.27s4.49-1.75,3.36-4.53c-1.13-2.78-1.32-4.87-4.23-3.88-2.91,1-3.03,2.29-2.88,3.3.15,1.02,2.56,5.48,3.76,5.1Z"/>
      <path class="cls-21" d="M107.63,78.49c-1.81,2.6-15.35,6.08-15.19,4.28.06-.69.14-1.91,0-3.55-.03-.39-.08-.79-.14-1.23-.34-2.37-1.16-5.41-2.98-8.93-.14-.26-.28-.53-.43-.8-.75-1.36-1.39-2.81-1.88-4.22-.94-2.71-1.32-5.3-.84-7,0,0,0-.02,0-.02,2.83-1.31,3.93-6.38,3.93-6.38,0,0,9.65,1.73,15.06,14.6,0,0,4.04,10.99,2.47,13.26Z"/>
      <path class="cls-7" d="M92.44,79.21c-.03-.39-.08-.79-.14-1.23-.34-2.37-1.16-5.41-2.98-8.93.31-1.9.84-9.3.85-10.15.09-7.72,8-1.55,8-1.55,0,0,3.8,13.4-5.72,21.87Z"/>
      <path class="cls-1" d="M88.44,42.58c.03-.06.12-.13.35-.2,0,0-.21-.07-.45-.02-.13-.31-.43-.83-1.01-.84,0,0,.33.09.45.42-.79-.5-2.25-.64-5.89.57-4.8,1.6-2.4,4.39-1.67,4.61.73.22,2.07-1.21,3.27-1.41,1.2-.2,1.86,1.48,2.32,1.62.46.14.2-.24.68-.62.48-.38.76.52.75,1.15-.01.63.93,1.23.93,1.23l.55-1.01c.55-1.01.4-4.67-.13-5.33-.05-.06-.09-.12-.14-.18Z"/>
      <g>
        <path class="cls-26" d="M78.82,77.16s-1.65-.34-2.03-.31c-.38.03-1.71.6-1.73.71-.02.11.05.2.28.21.23.01.99-.09.94,0-.05.09-2.23.55-2.25.99-.02.44,1.19,1.24,2.2,1.29,1.01.04,3.01-1.1,3.16-1.17.15-.07-.57-1.71-.57-1.71Z"/>
        <path class="cls-21" d="M78.95,78.39c-.53-.87-.4-1.42-.4-1.42,0,0,11.14-5.2,11.54-6.02.4-.82-.2-10.65-.2-10.65,0,0-.37-4.31,1.77-5.52,1.86-1.05,3.56-.53,4.85.32,1.53,1.01,2.28,2.87,1.89,4.67-.86,4.04-2.64,12.07-3.43,13.61-1.52,2.96-6.29,3.98-14.1,5.38-.36.06-1.04.32-1.36.19-.23-.1-.41-.29-.57-.55Z"/>
      </g>
      <g>
        <g>
          <g>
            <path class="cls-17" d="M66.78,65.78c1.16-.6.9-1.62.9-1.62-1.32.86-.9,1.62-.9,1.62Z"/>
            <path class="cls-17" d="M66.64,65.58s-.68.52-1.44-.11c0,0,.85-.39,1.44.11Z"/>
            <path class="cls-17" d="M72.5,80.3l.21.14s.07,0,.06-.05c-1.44-5.18-3.36-9.61-4.66-12.18-1.42-2.8-2.51-4.39-2.53-4.4h0s1.05,1.65,2.47,4.44c1.3,2.57,2.92,5.96,4.4,11.99,0,.03.02.05.05.06Z"/>
            <path class="cls-22" d="M65.4,63.11c.24.1,1.18.57.59,1.29,0,0-.51.33-.81-.05-.23-.29-.37-.65-.42-.8-.01-.04,0-.08.05-.1.04-.02.1-.04.15-.08.06-.05.07-.16.16-.21.05-.03.11-.06.18-.07.04,0,.08,0,.12.02Z"/>
            <path class="cls-17" d="M66.14,64.15s-.17.24-.01.5l.03.1s-.13-.25-.43-.25c0,0,.25-.04.41-.35Z"/>
            <path class="cls-18" d="M66.78,65.78c1.16-.6.9-1.62.9-1.62,0,0-.83.8-.9,1.62Z"/>
          </g>
          <g>
            <path class="cls-17" d="M67.78,64.77s.86.08,1.17-.86c0,0-.93.11-1.17.86Z"/>
            <path class="cls-17" d="M70.58,80.37l-.1.23s-.07.03-.08,0c-1.52-5.16-2.23-9.94-2.48-12.8-.28-3.13-.18-5.05-.18-5.07h0s-.02,1.95.25,5.07c.25,2.87.67,6.6,2.6,12.5,0,.03,0,.05,0,.08Z"/>
            <path class="cls-22" d="M67.52,62.02c-.15.21-.7,1.11.18,1.41,0,0,.61.01.67-.47.04-.37-.03-.74-.06-.9,0-.04-.05-.07-.09-.06-.04,0-.1.02-.17.01-.08,0-.14-.1-.24-.1-.06,0-.13,0-.19.03-.04.01-.07.04-.09.08Z"/>
            <path class="cls-17" d="M67.45,63.3s.27.11.28.42l.03.11s-.02-.28.23-.44c0,0-.24.1-.53-.08Z"/>
          </g>
          <g>
            <path class="cls-17" d="M67.2,63.95s-.78.36-1.39-.42c0,0,.91-.2,1.39.42Z"/>
            <path class="cls-17" d="M69.71,79.6l.17.18s.07,0,.07-.03c-.27-5.37-1.18-10.11-1.89-12.9-.77-3.04-1.5-4.83-1.5-4.85h0s.67,1.84,1.44,4.87c.71,2.79,1.55,6.45,1.68,12.66,0,.03.01.05.03.07Z"/>
            <path class="cls-22" d="M66.53,61.27c.21.15,1.02.81.29,1.39,0,0-.57.21-.78-.23-.16-.33-.22-.71-.24-.87,0-.04.03-.08.07-.08.04,0,.1-.02.16-.05.07-.03.1-.14.2-.17.06-.02.12-.03.19-.03.04,0,.08.02.11.04Z"/>
            <path class="cls-17" d="M67.02,62.45s-.22.2-.12.49v.11s-.07-.27-.35-.34c0,0,.26.02.48-.26Z"/>
          </g>
          <path class="cls-17" d="M66.27,63.22s-.18-.65-.79-.7c0,0,.03.57.79.7Z"/>
          <path class="cls-23" d="M67.3,61.82s-.15-.49.27-.76c0,0,.24.43-.27.76Z"/>
          <path class="cls-23" d="M66.62,65.21s-.37-.42-.03-.94c0,0,.33.48.03.94Z"/>
          <path class="cls-17" d="M66.29,65.26s-.06-.25-.31-.22c0,0,.02.22.31.22Z"/>
          <path class="cls-17" d="M68.4,63.77s.09-.46.74-.57c0,0,.03.47-.74.57Z"/>
        </g>
        <path class="cls-22" d="M69.01,81.38l-1.65-13.56c-.02-.13.07-.26.2-.3l.6-.17c.12-.03.25.03.3.14l5.47,12.51c.11.26-.03.56-.3.63l-4.06,1.12c-.27.07-.53-.11-.57-.38Z"/>
        <g>
          <path class="cls-27" d="M72.63,80.5l-4.68-13.08c.11-.02.22.04.27.15l5.47,12.51c.11.26-.03.56-.3.63l-.81.22c.08-.12.1-.28.05-.44Z"/>
          <path class="cls-27" d="M70.46,81.52l-1.12.31c-.1.03-.2.02-.28-.02l1.41-.29Z"/>
        </g>
      </g>
      <path class="cls-26" d="M70.43,69.43s-1.38-.5-2.03-.33c-.65.16,1.96,1.41,1.96,1.41l.06-1.08Z"/>
    </g>
    <polygon class="cls-19" points="82.03 85.09 82.03 75.12 84.72 73.71 84.72 73.39 87.88 71.96 89.09 85.76 85.17 85.62 85.11 85.2 82.03 85.09"/>
    <polygon class="cls-5" points="85.11 85.2 84.87 74.97 84.17 85.2 85.11 85.2"/>
    <path class="cls-5" d="M86.95,74.56l.87,10s-1.24-3.72-.87-10Z"/>
    <g>
      <polygon class="cls-1" points="16.7 124.14 38.03 124.14 33.82 91.19 13.28 91.19 16.7 124.14"/>
      <polygon class="cls-15" points="30.22 124.15 8.95 124.08 13.17 91.14 33.7 91.14 30.22 124.15"/>
      <path class="cls-4" d="M29.15,123.13H10.39c-.21,0-.38-.19-.35-.4l3.86-30.4c.02-.18.17-.31.35-.31h18.08c.21,0,.38.18.35.39l-3.18,30.4c-.02.18-.17.32-.35.32Z"/>
    </g>
    <g>
      <path class="cls-19" d="M17.94,96.67l1.08-1.51s.04-.04.07-.07c.03-.03.08-.05.15-.05h.32s.06.01.09.04c.02.02.03.05.03.09l-.36,2.96s-.02.06-.05.09c-.03.02-.06.04-.09.04h-.38s-.06-.01-.09-.04c-.02-.02-.03-.05-.03-.09l.22-1.79-.74,1.03s-.04.05-.08.08-.07.04-.11.04h-.25s-.08-.01-.1-.04c-.03-.03-.04-.05-.06-.08l-.49-1.03-.22,1.79s-.02.06-.05.09c-.03.02-.06.04-.09.04h-.38s-.06-.01-.09-.04c-.02-.02-.03-.05-.03-.09l.36-2.96s.02-.06.05-.09c.03-.02.06-.04.09-.04h.32c.06,0,.11.02.13.05.03.03.04.06.05.07l.71,1.51Z"/>
      <path class="cls-19" d="M22.31,97.67s.06.01.09.04c.02.02.03.05.03.09l-.04.33s-.02.06-.05.09c-.03.02-.06.04-.09.04h-2.08s-.06-.01-.09-.04c-.02-.02-.03-.05-.03-.09l.36-2.96s.02-.06.05-.09c.03-.02.06-.04.09-.04h2.04s.06.01.09.04c.02.02.03.05.03.09l-.04.33s-.02.06-.05.09c-.03.02-.06.04-.09.04h-1.53l-.09.73h1.42s.06.01.09.04c.02.02.03.05.03.09l-.04.33s-.02.06-.05.09c-.03.02-.06.04-.09.04h-1.42l-.09.76h1.56Z"/>
      <path class="cls-19" d="M25.1,98.24c-.05,0-.09-.01-.12-.04-.03-.03-.04-.05-.05-.06l-1.09-1.91-.23,1.89s-.02.06-.05.09c-.03.02-.06.04-.09.04h-.38s-.06-.01-.09-.04c-.02-.02-.03-.05-.03-.09l.36-2.96s.02-.06.05-.09c.03-.02.06-.04.09-.04h.33c.05,0,.09.01.12.04.03.03.04.05.05.06l1.09,1.91.23-1.89s.02-.06.05-.09c.03-.02.06-.04.09-.04h.38s.06.01.09.04c.02.02.03.05.03.09l-.36,2.96s-.02.06-.05.09c-.03.02-.06.04-.09.04h-.33Z"/>
      <path class="cls-19" d="M29.24,95.03s.06.01.09.04c.02.02.03.05.03.09l-.23,1.88c-.02.19-.07.36-.15.51-.08.15-.18.28-.3.39-.13.11-.28.19-.46.25-.18.06-.38.09-.6.09s-.42-.03-.58-.09c-.16-.06-.29-.14-.39-.25-.1-.11-.17-.24-.2-.39-.04-.15-.04-.32-.02-.51l.23-1.88s.02-.06.05-.09c.03-.02.06-.04.09-.04h.38s.06.01.09.04c.02.02.03.05.03.09l-.23,1.86c-.02.13-.01.23.01.32.02.09.06.16.12.22.06.06.13.1.21.12.09.03.18.04.28.04s.2-.01.3-.04c.09-.03.17-.07.24-.12.07-.06.13-.13.18-.22.05-.09.08-.2.09-.32l.23-1.86s.02-.06.05-.09c.03-.02.06-.04.09-.04h.38Z"/>
    </g>
    <path class="cls-19" d="M16.37,102.8h-2.66c-.14,0-.26-.12-.26-.26h0c0-.14.12-.26.26-.26h2.66c.14,0,.26.12.26.26h0c0,.14-.12.26-.26.26Z"/>
    <path class="cls-19" d="M30.23,102.8h-12.12c-.14,0-.26-.12-.26-.26h0c0-.14.12-.26.26-.26h12.12c.14,0,.26.12.26.26h0c0,.14-.12.26-.26.26Z"/>
    <path class="cls-19" d="M16.07,104.02h-2.66c-.14,0-.26-.12-.26-.26h0c0-.14.12-.26.26-.26h2.66c.14,0,.26.12.26.26h0c0,.14-.12.26-.26.26Z"/>
    <path class="cls-19" d="M29.93,104.02h-12.12c-.14,0-.26-.12-.26-.26h0c0-.14.12-.26.26-.26h12.12c.14,0,.26.12.26.26h0c0,.14-.12.26-.26.26Z"/>
    <path class="cls-19" d="M15.84,105.25h-2.66c-.14,0-.26-.12-.26-.26h0c0-.14.12-.26.26-.26h2.66c.14,0,.26.12.26.26h0c0,.14-.12.26-.26.26Z"/>
    <path class="cls-19" d="M29.7,105.25h-12.12c-.14,0-.26-.12-.26-.26h0c0-.14.12-.26.26-.26h12.12c.14,0,.26.12.26.26h0c0,.14-.12.26-.26.26Z"/>
    <path class="cls-19" d="M15.39,109.46h-2.66c-.14,0-.26-.12-.26-.26h0c0-.14.12-.26.26-.26h2.66c.14,0,.26.12.26.26h0c0,.14-.12.26-.26.26Z"/>
    <path class="cls-19" d="M29.25,109.46h-12.12c-.14,0-.26-.12-.26-.26h0c0-.14.12-.26.26-.26h12.12c.14,0,.26.12.26.26h0c0,.14-.12.26-.26.26Z"/>
    <path class="cls-19" d="M15.1,110.58h-2.66c-.14,0-.26-.12-.26-.26h0c0-.14.12-.26.26-.26h2.66c.14,0,.26.12.26.26h0c0,.14-.12.26-.26.26Z"/>
    <path class="cls-19" d="M28.96,110.58h-12.12c-.14,0-.26-.12-.26-.26h0c0-.14.12-.26.26-.26h12.12c.14,0,.26.12.26.26h0c0,.14-.12.26-.26.26Z"/>
  </g>
  <text class="cls-9" transform="translate(36.57 143.87)"><tspan x="0" y="0">Restaurant</tspan></text>
</svg>