<?xml version="1.0" encoding="UTF-8"?>
<svg xmlns="http://www.w3.org/2000/svg" xmlns:xlink="http://www.w3.org/1999/xlink" viewBox="0 0 244.27 136.46">
  <defs>
    <style>
      .cls-1, .cls-2 {
        fill: none;
      }

      .cls-3 {
        fill: #253e89;
      }

      .cls-4, .cls-5 {
        fill: #20b35b;
      }

      .cls-6, .cls-7, .cls-8, .cls-5, .cls-9, .cls-10, .cls-11, .cls-12 {
        mix-blend-mode: multiply;
      }

      .cls-6, .cls-10 {
        opacity: .49;
      }

      .cls-13 {
        fill: url(#linear-gradient-3);
      }

      .cls-14 {
        fill: url(#linear-gradient-2);
      }

      .cls-7 {
        opacity: .75;
      }

      .cls-8 {
        opacity: .37;
      }

      .cls-8, .cls-15, .cls-9 {
        fill: #82c0e9;
      }

      .cls-2 {
        stroke: #253e89;
        stroke-miterlimit: 10;
        stroke-width: .75px;
      }

      .cls-16 {
        font-size: 3.68px;
      }

      .cls-17 {
        fill: #d2d3d4;
      }

      .cls-18 {
        font-size: 5.22px;
      }

      .cls-19, .cls-20, .cls-21, .cls-22 {
        fill: #fff;
      }

      .cls-19, .cls-11 {
        opacity: .31;
      }

      .cls-20 {
        opacity: .3;
      }

      .cls-5 {
        opacity: .43;
      }

      .cls-23 {
        fill: #2b90cf;
      }

      .cls-24 {
        isolation: isolate;
      }

      .cls-25 {
        clip-path: url(#clippath-1);
      }

      .cls-26 {
        fill: url(#linear-gradient);
        opacity: .51;
      }

      .cls-27 {
        letter-spacing: 0em;
      }

      .cls-10, .cls-11, .cls-12, .cls-28 {
        fill: #f9aa1a;
      }

      .cls-12 {
        opacity: .22;
      }

      .cls-29 {
        letter-spacing: 0em;
      }

      .cls-30 {
        fill: #b71e44;
      }

      .cls-30, .cls-31 {
        font-size: 17.05px;
      }

      .cls-30, .cls-31, .cls-22 {
        font-family: Montserrat-Bold, Montserrat;
        font-weight: 700;
      }

      .cls-31, .cls-32 {
        fill: #f05b72;
      }

      .cls-33 {
        letter-spacing: 0em;
      }

      .cls-34 {
        fill: #32baec;
      }

      .cls-35 {
        letter-spacing: 0em;
      }

      .cls-36 {
        opacity: .73;
      }

      .cls-37 {
        fill: #f36c21;
      }

      .cls-38 {
        letter-spacing: -.02em;
      }

      .cls-39 {
        letter-spacing: -.01em;
      }

      .cls-40 {
        letter-spacing: 0em;
      }

      .cls-41 {
        letter-spacing: .02em;
      }

      .cls-42 {
        letter-spacing: .02em;
      }

      .cls-43 {
        clip-path: url(#clippath);
      }

      .cls-44 {
        letter-spacing: .05em;
      }
    </style>
    <linearGradient id="linear-gradient" x1="115.98" y1="87.5" x2="115.49" y2="7.55" gradientUnits="userSpaceOnUse">
      <stop offset="0" stop-color="#52c4c6" stop-opacity=".6"/>
      <stop offset=".99" stop-color="#82c0e9" stop-opacity=".2"/>
    </linearGradient>
    <linearGradient id="linear-gradient-2" x1="121.08" y1="98.42" x2="120.93" y2="73.47" gradientUnits="userSpaceOnUse">
      <stop offset=".01" stop-color="#82c0e9" stop-opacity="0"/>
      <stop offset="1" stop-color="#52c4c6"/>
    </linearGradient>
    <linearGradient id="linear-gradient-3" x1="121.06" y1="96.46" x2="120.95" y2="77.47" xlink:href="#linear-gradient-2"/>
    <clipPath id="clippath">
      <rect class="cls-1" x="73.74" y="37.54" width="90.15" height="49.27"/>
    </clipPath>
    <clipPath id="clippath-1">
      <rect class="cls-1" x="73.74" y="37.54" width="90.15" height="49.27"/>
    </clipPath>
  </defs>
  <g class="cls-24">
    <g id="Layer_1">
      <g>
        <path class="cls-26" d="M71.87,83.12c4.61.2,9.33-.07,13.73-.05,10.18.04,20.37.08,30.55.12,10.43.04,20.89-.1,31.3-.03,8.81.06,18.09,1.27,25.86-3.27,4.64-2.71,7.78-7.22,8.36-12.01.58-4.78-1.41-9.75-5.29-13.22-1.22-1.09-2.62-2.05-3.54-3.33-1.85-2.56-1.42-5.89-.3-8.75,1.11-2.86,2.84-5.56,3.45-8.53.85-4.14-.68-8.6-4.01-11.69-3.33-3.09-8.39-4.74-13.28-4.34-4.71.39-8.59,2.69-13.09,3.63-5.33,1.12-9.61-.6-14.28-3-7.4-3.79-15.84-7.17-24.69-5.97-7.42,1.01-14.09,5.42-17.1,11.31-1.04,2.03-1.82,4.38-4.03,5.54-3.43,1.8-7.67-.39-11.55-1.32-5.54-1.32-11.88.3-15.67,4-3.79,3.7-4.83,9.3-2.57,13.83,1.46,2.94,4.25,5.88,3.17,8.94-.85,2.4-3.75,3.73-5.76,5.56-5.13,4.68-3.65,12.85,1.75,17.3,4.69,3.87,10.74,4.99,17.01,5.26Z"/>
        <g class="cls-36">
          <path class="cls-14" d="M193.68,86.64c0-2.19-27.16-3.96-60.67-3.96-4.11,0-8.12.03-12,.08-3.88-.05-7.89-.08-12-.08-33.51,0-60.67,1.77-60.67,3.96,0,1.07,6.57,2.05,17.23,2.76-5.01.58-7.87,1.24-7.87,1.95,0,2.19,27.16,3.96,60.67,3.96s60.67-1.77,60.67-3.96c0-.62-2.2-1.21-6.11-1.73,12.71-.73,20.74-1.79,20.74-2.98Z"/>
          <path class="cls-13" d="M176.33,87.49c0-1.66-20.68-3.01-46.19-3.01-3.13,0-6.18.02-9.13.06-2.95-.04-6.01-.06-9.13-.06-25.51,0-46.19,1.35-46.19,3.01,0,.82,5,1.56,13.12,2.1-3.81.44-5.99.94-5.99,1.48,0,1.66,20.68,3.01,46.19,3.01s46.19-1.35,46.19-3.01c0-.47-1.67-.92-4.65-1.32,9.68-.55,15.79-1.36,15.79-2.27Z"/>
        </g>
        <g>
          <path class="cls-4" d="M150.34,77.64s1.38-37.83,20.09-49.66c18.72-11.83,21.57,5.29,16.52,14.99-5.05,9.7-28.1,20.94-36.61,34.67Z"/>
          <path class="cls-5" d="M180.44,31.25c3.29-2.86,5.67-4.51,6.35-4.96-2.72-3.09-7.93-3.63-16.35,1.69-18.72,11.83-20.09,49.66-20.09,49.66,1.52-5.08,3.38-9.77,5.46-14.09,3.24-1.42,6.93-1.74,6.93-1.74-2.28-.66-5.01.16-6.42.7.63-1.27,1.28-2.51,1.94-3.71,4.66-2.38,10.56-2.89,10.56-2.89-3.71-1.08-8.28.71-9.68,1.32.93-1.62,1.88-3.18,2.85-4.67,4.51-2.39,10.4-2.91,10.4-2.91-3.58-1.04-7.98.69-9.31,1.27,1.08-1.59,2.17-3.11,3.26-4.55,5.97-3.15,13.74-3.83,13.74-3.83-4.41-1.28-9.77.61-11.92,1.5,1.04-1.29,2.07-2.51,3.09-3.66,6.06-3.62,14.71-4.38,14.71-4.38-4.59-1.33-10.22.77-12.17,1.61,1.63-1.71,3.19-3.22,4.63-4.55,4.22-1.8,8.93-2.21,8.93-2.21-2.3-.67-4.95-.19-6.9.39Z"/>
        </g>
        <g>
          <path class="cls-4" d="M152.24,82.28s10.88-21.11,24.67-22.83c13.78-1.72,10.83,8.76,5.38,12.92-5.45,4.16-21.55,4.39-30.04,9.91Z"/>
          <path class="cls-5" d="M181.72,63.97c2.63-.74,4.42-1.04,4.93-1.12-.72-2.48-3.53-4.18-9.74-3.41-13.78,1.72-24.67,22.83-24.67,22.83,2.22-2.48,4.53-4.64,6.86-6.54,2.22.06,4.4.86,4.4.86-1.12-.99-2.89-1.25-3.83-1.32.7-.55,1.39-1.08,2.09-1.59,3.28-.11,6.77,1.18,6.77,1.18-1.82-1.6-4.89-1.81-5.85-1.84.96-.67,1.92-1.3,2.87-1.89,3.2-.15,6.68,1.13,6.68,1.13-1.75-1.54-4.71-1.74-5.63-1.76,1.04-.62,2.06-1.19,3.06-1.71,4.23-.2,8.82,1.49,8.82,1.49-2.16-1.9-5.71-2.26-7.17-2.33.93-.45,1.85-.87,2.73-1.25,4.41-.44,9.52,1.44,9.52,1.44-2.25-1.98-6.01-2.29-7.34-2.33,1.38-.54,2.67-.98,3.84-1.35,2.88.11,5.66,1.13,5.66,1.13-1.13-1-2.76-1.43-4.02-1.62Z"/>
        </g>
        <g>
          <path class="cls-4" d="M82.8,86.73s-8.53-13.72-17.97-14.13c-9.44-.41-6.86,6.53-2.94,9.05,3.92,2.52,14.85,1.8,20.91,5.08Z"/>
          <path class="cls-5" d="M61.82,75.94c-1.83-.36-3.06-.47-3.4-.49.35-1.72,2.17-3.03,6.42-2.84,9.44.41,17.97,14.13,17.97,14.13-1.64-1.56-3.33-2.9-5.01-4.06-1.5.16-2.94.82-2.94.82.71-.73,1.89-1,2.53-1.1-.5-.34-1-.66-1.5-.96-2.23.11-4.52,1.17-4.52,1.17,1.15-1.19,3.22-1.49,3.86-1.56-.69-.4-1.37-.78-2.05-1.13-2.18.07-4.47,1.13-4.47,1.13,1.1-1.14,3.1-1.44,3.72-1.5-.74-.36-1.46-.69-2.17-.99-2.88.1-5.9,1.49-5.9,1.49,1.36-1.41,3.75-1.85,4.73-1.97-.66-.26-1.3-.49-1.92-.7-3.01-.06-6.38,1.5-6.38,1.5,1.42-1.47,3.95-1.88,4.85-1.98-.97-.29-1.86-.52-2.68-.7-1.95.23-3.78,1.08-3.78,1.08.71-.74,1.79-1.12,2.64-1.32Z"/>
        </g>
        <g>
          <path class="cls-4" d="M85.29,85.87s-5.74-33.54-23.82-41.84c-18.08-8.31-18.58,7.29-12.93,15.32,5.65,8.04,27.53,15.31,36.75,26.52Z"/>
          <path class="cls-5" d="M52.94,48.13c-3.27-2.15-5.59-3.34-6.25-3.66,2.06-3.08,6.63-4.18,14.77-.44,18.08,8.31,23.82,41.84,23.82,41.84-1.96-4.34-4.18-8.3-6.54-11.9-3.06-.88-6.38-.73-6.38-.73,1.96-.86,4.48-.46,5.8-.14-.71-1.06-1.44-2.08-2.17-3.08-4.43-1.56-9.75-1.32-9.75-1.32,3.18-1.4,7.46-.36,8.78.02-1.02-1.33-2.06-2.61-3.1-3.82-4.3-1.59-9.61-1.35-9.61-1.35,3.06-1.35,7.19-.34,8.45.02-1.15-1.29-2.3-2.51-3.45-3.66-5.7-2.1-12.69-1.77-12.69-1.77,3.78-1.67,8.77-.62,10.79-.08-1.08-1.02-2.14-1.99-3.19-2.89-5.83-2.51-13.63-2.14-13.63-2.14,3.93-1.74,9.19-.53,11.03-.02-1.65-1.33-3.22-2.49-4.66-3.5-3.98-1.1-8.22-.9-8.22-.9,1.97-.87,4.39-.76,6.19-.48Z"/>
        </g>
        <rect class="cls-28" x="73.74" y="37.54" width="90.15" height="49.27"/>
        <g class="cls-43">
          <g>
            <g>
              <rect class="cls-10" x="124.57" y="75.57" width="4.12" height="1.62" rx=".81" ry=".81" transform="translate(253.27 152.76) rotate(180)"/>
              <rect class="cls-10" x="126.59" y="77.35" width="4.12" height="1.62" rx=".81" ry=".81" transform="translate(257.31 156.32) rotate(180)"/>
              <rect class="cls-10" x="122.24" y="77.35" width="4.12" height="1.62" rx=".81" ry=".81" transform="translate(248.59 156.32) rotate(180)"/>
              <rect class="cls-11" x="120.3" y="75.57" width="4.12" height="1.62" rx=".81" ry=".81" transform="translate(244.71 152.76) rotate(180)"/>
              <rect class="cls-11" x="117.59" y="73.75" width="4.12" height="1.62" rx=".81" ry=".81" transform="translate(239.31 149.12) rotate(-180)"/>
              <rect class="cls-10" x="124.57" y="79.13" width="4.12" height="1.62" rx=".81" ry=".81" transform="translate(253.27 159.89) rotate(-180)"/>
              <rect class="cls-11" x="120.3" y="79.13" width="4.12" height="1.62" rx=".81" ry=".81" transform="translate(244.71 159.89) rotate(-180)"/>
              <rect class="cls-12" x="117.93" y="77.31" width="4.12" height="1.62" rx=".81" ry=".81" transform="translate(239.99 156.24) rotate(-180)"/>
              <rect class="cls-12" x="111.44" y="77.31" width="4.12" height="1.62" rx=".81" ry=".81" transform="translate(227 156.24) rotate(180)"/>
              <rect class="cls-10" x="122.17" y="71.94" width="4.12" height="1.62" rx=".81" ry=".81" transform="translate(248.46 145.5) rotate(180)"/>
            </g>
            <g>
              <rect class="cls-10" x="168.12" y="82.82" width="4.12" height="1.62" rx=".81" ry=".81" transform="translate(340.35 167.27) rotate(180)"/>
              <rect class="cls-10" x="170.14" y="84.61" width="4.12" height="1.62" rx=".81" ry=".81" transform="translate(344.39 170.84) rotate(180)"/>
              <rect class="cls-10" x="165.78" y="84.61" width="4.12" height="1.62" rx=".81" ry=".81" transform="translate(335.68 170.84) rotate(180)"/>
              <rect class="cls-11" x="163.84" y="82.82" width="4.12" height="1.62" rx=".81" ry=".81" transform="translate(331.8 167.27) rotate(-180)"/>
              <rect class="cls-11" x="161.14" y="81.01" width="4.12" height="1.62" rx=".81" ry=".81" transform="translate(326.4 163.63) rotate(180)"/>
              <rect class="cls-10" x="168.12" y="86.39" width="4.12" height="1.62" rx=".81" ry=".81" transform="translate(340.35 174.4) rotate(-180)"/>
              <rect class="cls-11" x="163.84" y="86.39" width="4.12" height="1.62" rx=".81" ry=".81" transform="translate(331.8 174.4) rotate(-180)"/>
              <rect class="cls-12" x="161.48" y="84.57" width="4.12" height="1.62" rx=".81" ry=".81" transform="translate(327.08 170.76) rotate(180)"/>
              <rect class="cls-12" x="154.99" y="84.57" width="4.12" height="1.62" rx=".81" ry=".81" transform="translate(314.09 170.76) rotate(-180)"/>
              <rect class="cls-10" x="165.72" y="79.19" width="4.12" height="1.62" rx=".81" ry=".81" transform="translate(335.55 160.01) rotate(180)"/>
            </g>
            <g>
              <rect class="cls-10" x="73.78" y="66.73" width="4.12" height="1.62" rx=".81" ry=".81" transform="translate(151.68 135.07) rotate(-180)"/>
              <rect class="cls-10" x="75.8" y="68.51" width="4.12" height="1.62" rx=".81" ry=".81" transform="translate(155.72 138.64) rotate(180)"/>
              <rect class="cls-10" x="71.44" y="68.51" width="4.12" height="1.62" rx=".81" ry=".81" transform="translate(147 138.64) rotate(-180)"/>
              <rect class="cls-11" x="69.5" y="66.73" width="4.12" height="1.62" rx=".81" ry=".81" transform="translate(143.12 135.07) rotate(-180)"/>
              <rect class="cls-11" x="66.8" y="64.91" width="4.12" height="1.62" rx=".81" ry=".81" transform="translate(137.72 131.44) rotate(-180)"/>
              <rect class="cls-10" x="73.78" y="70.29" width="4.12" height="1.62" rx=".81" ry=".81" transform="translate(151.68 142.2) rotate(180)"/>
              <rect class="cls-11" x="69.5" y="70.29" width="4.12" height="1.62" rx=".81" ry=".81" transform="translate(143.12 142.2) rotate(180)"/>
              <rect class="cls-12" x="67.14" y="68.47" width="4.12" height="1.62" rx=".81" ry=".81" transform="translate(138.4 138.56) rotate(180)"/>
              <rect class="cls-12" x="60.65" y="68.47" width="4.12" height="1.62" rx=".81" ry=".81" transform="translate(125.41 138.56) rotate(-180)"/>
              <rect class="cls-10" x="71.38" y="63.1" width="4.12" height="1.62" rx=".81" ry=".81" transform="translate(146.88 127.82) rotate(-180)"/>
            </g>
            <g>
              <rect class="cls-10" x="80.91" y="55.52" width="4.12" height="1.62" rx=".81" ry=".81" transform="translate(165.94 112.66) rotate(180)"/>
              <rect class="cls-10" x="82.93" y="57.3" width="4.12" height="1.62" rx=".81" ry=".81" transform="translate(169.98 116.23) rotate(-180)"/>
              <rect class="cls-10" x="78.57" y="57.3" width="4.12" height="1.62" rx=".81" ry=".81" transform="translate(161.26 116.23) rotate(180)"/>
              <rect class="cls-11" x="76.63" y="55.52" width="4.12" height="1.62" rx=".81" ry=".81" transform="translate(157.38 112.66) rotate(180)"/>
              <rect class="cls-11" x="73.93" y="53.7" width="4.12" height="1.62" rx=".81" ry=".81" transform="translate(151.98 109.03) rotate(-180)"/>
              <rect class="cls-10" x="80.91" y="59.09" width="4.12" height="1.62" rx=".81" ry=".81" transform="translate(165.94 119.8) rotate(-180)"/>
              <rect class="cls-11" x="76.63" y="59.09" width="4.12" height="1.62" rx=".81" ry=".81" transform="translate(157.38 119.8) rotate(-180)"/>
              <rect class="cls-12" x="74.27" y="57.26" width="4.12" height="1.62" rx=".81" ry=".81" transform="translate(152.66 116.15) rotate(-180)"/>
              <rect class="cls-12" x="67.78" y="57.26" width="4.12" height="1.62" rx=".81" ry=".81" transform="translate(139.67 116.15) rotate(-180)"/>
              <rect class="cls-10" x="78.51" y="51.89" width="4.12" height="1.62" rx=".81" ry=".81" transform="translate(161.14 105.41) rotate(180)"/>
            </g>
            <g>
              <rect class="cls-10" x="117.81" y="84.21" width="4.12" height="1.62" rx=".81" ry=".81" transform="translate(239.73 170.04) rotate(180)"/>
              <rect class="cls-10" x="119.83" y="85.99" width="4.12" height="1.62" rx=".81" ry=".81" transform="translate(243.77 173.61) rotate(180)"/>
              <rect class="cls-10" x="115.47" y="85.99" width="4.12" height="1.62" rx=".81" ry=".81" transform="translate(235.06 173.61) rotate(180)"/>
              <rect class="cls-11" x="113.53" y="84.21" width="4.12" height="1.62" rx=".81" ry=".81" transform="translate(231.18 170.04) rotate(180)"/>
              <rect class="cls-11" x="110.83" y="82.39" width="4.12" height="1.62" rx=".81" ry=".81" transform="translate(225.77 166.4) rotate(-180)"/>
              <rect class="cls-10" x="117.81" y="87.77" width="4.12" height="1.62" rx=".81" ry=".81" transform="translate(239.73 177.17) rotate(180)"/>
              <rect class="cls-11" x="113.53" y="87.77" width="4.12" height="1.62" rx=".81" ry=".81" transform="translate(231.18 177.17) rotate(180)"/>
              <rect class="cls-12" x="111.17" y="85.95" width="4.12" height="1.62" rx=".81" ry=".81" transform="translate(226.45 173.53) rotate(180)"/>
              <rect class="cls-12" x="104.67" y="85.95" width="4.12" height="1.62" rx=".81" ry=".81" transform="translate(213.47 173.53) rotate(180)"/>
              <rect class="cls-10" x="115.41" y="80.58" width="4.12" height="1.62" rx=".81" ry=".81" transform="translate(234.93 162.78) rotate(180)"/>
            </g>
            <g>
              <rect class="cls-10" x="165.65" y="51.82" width="4.12" height="1.62" rx=".81" ry=".81" transform="translate(335.43 105.27) rotate(180)"/>
              <rect class="cls-10" x="167.67" y="53.6" width="4.12" height="1.62" rx=".81" ry=".81" transform="translate(339.47 108.83) rotate(-180)"/>
              <rect class="cls-10" x="163.32" y="53.6" width="4.12" height="1.62" rx=".81" ry=".81" transform="translate(330.75 108.83) rotate(-180)"/>
              <rect class="cls-11" x="161.38" y="51.82" width="4.12" height="1.62" rx=".81" ry=".81" transform="translate(326.87 105.27) rotate(180)"/>
              <rect class="cls-11" x="158.67" y="50" width="4.12" height="1.62" rx=".81" ry=".81" transform="translate(321.47 101.63) rotate(180)"/>
              <rect class="cls-10" x="165.65" y="55.39" width="4.12" height="1.62" rx=".81" ry=".81" transform="translate(335.43 112.4) rotate(180)"/>
              <rect class="cls-11" x="161.38" y="55.39" width="4.12" height="1.62" rx=".81" ry=".81" transform="translate(326.87 112.4) rotate(180)"/>
              <rect class="cls-12" x="159.01" y="53.56" width="4.12" height="1.62" rx=".81" ry=".81" transform="translate(322.15 108.75) rotate(-180)"/>
              <rect class="cls-12" x="152.52" y="53.56" width="4.12" height="1.62" rx=".81" ry=".81" transform="translate(309.16 108.75) rotate(-180)"/>
              <rect class="cls-10" x="163.25" y="48.19" width="4.12" height="1.62" rx=".81" ry=".81" transform="translate(330.62 98.01) rotate(180)"/>
            </g>
            <g>
              <rect class="cls-10" x="157.8" y="73.13" width="4.12" height="1.62" rx=".81" ry=".81" transform="translate(319.73 147.89) rotate(180)"/>
              <rect class="cls-10" x="159.83" y="74.91" width="4.12" height="1.62" rx=".81" ry=".81" transform="translate(323.77 151.45) rotate(180)"/>
              <rect class="cls-10" x="155.47" y="74.91" width="4.12" height="1.62" rx=".81" ry=".81" transform="translate(315.05 151.45) rotate(-180)"/>
              <rect class="cls-11" x="153.53" y="73.13" width="4.12" height="1.62" rx=".81" ry=".81" transform="translate(311.17 147.89) rotate(-180)"/>
              <rect class="cls-11" x="150.83" y="71.31" width="4.12" height="1.62" rx=".81" ry=".81" transform="translate(305.77 144.25) rotate(-180)"/>
              <rect class="cls-10" x="157.8" y="76.7" width="4.12" height="1.62" rx=".81" ry=".81" transform="translate(319.73 155.02) rotate(180)"/>
              <rect class="cls-11" x="153.53" y="76.7" width="4.12" height="1.62" rx=".81" ry=".81" transform="translate(311.17 155.02) rotate(-180)"/>
              <rect class="cls-12" x="151.17" y="74.87" width="4.12" height="1.62" rx=".81" ry=".81" transform="translate(306.45 151.37) rotate(-180)"/>
              <rect class="cls-12" x="144.67" y="74.87" width="4.12" height="1.62" rx=".81" ry=".81" transform="translate(293.46 151.37) rotate(-180)"/>
              <rect class="cls-10" x="155.4" y="69.5" width="4.12" height="1.62" rx=".81" ry=".81" transform="translate(314.93 140.63) rotate(180)"/>
            </g>
            <g>
              <rect class="cls-10" x="161.94" y="62.18" width="4.12" height="1.62" rx=".81" ry=".81" transform="translate(328 125.99) rotate(180)"/>
              <rect class="cls-10" x="163.96" y="63.96" width="4.12" height="1.62" rx=".81" ry=".81" transform="translate(332.04 129.55) rotate(-180)"/>
              <rect class="cls-10" x="159.61" y="63.96" width="4.12" height="1.62" rx=".81" ry=".81" transform="translate(323.33 129.55) rotate(-180)"/>
              <rect class="cls-11" x="157.66" y="62.18" width="4.12" height="1.62" rx=".81" ry=".81" transform="translate(319.45 125.99) rotate(180)"/>
              <rect class="cls-11" x="154.96" y="60.36" width="4.12" height="1.62" rx=".81" ry=".81" transform="translate(314.05 122.35) rotate(-180)"/>
              <rect class="cls-10" x="161.94" y="65.75" width="4.12" height="1.62" rx=".81" ry=".81" transform="translate(328 133.12) rotate(-180)"/>
              <rect class="cls-11" x="157.66" y="65.75" width="4.12" height="1.62" rx=".81" ry=".81" transform="translate(319.45 133.12) rotate(-180)"/>
              <rect class="cls-12" x="155.3" y="63.92" width="4.12" height="1.62" rx=".81" ry=".81" transform="translate(314.73 129.47) rotate(-180)"/>
              <rect class="cls-12" x="148.81" y="63.92" width="4.12" height="1.62" rx=".81" ry=".81" transform="translate(301.74 129.47) rotate(180)"/>
              <rect class="cls-10" x="159.54" y="58.55" width="4.12" height="1.62" rx=".81" ry=".81" transform="translate(323.2 118.73) rotate(-180)"/>
            </g>
            <g>
              <rect class="cls-10" x="131.79" y="56.37" width="4.12" height="1.62" rx=".81" ry=".81" transform="translate(267.71 114.37) rotate(-180)"/>
              <rect class="cls-10" x="133.81" y="58.15" width="4.12" height="1.62" rx=".81" ry=".81" transform="translate(271.75 117.93) rotate(-180)"/>
              <rect class="cls-10" x="129.46" y="58.15" width="4.12" height="1.62" rx=".81" ry=".81" transform="translate(263.03 117.93) rotate(180)"/>
              <rect class="cls-11" x="127.52" y="56.37" width="4.12" height="1.62" rx=".81" ry=".81" transform="translate(259.15 114.37) rotate(180)"/>
              <rect class="cls-11" x="124.81" y="54.55" width="4.12" height="1.62" rx=".81" ry=".81" transform="translate(253.75 110.73) rotate(180)"/>
              <rect class="cls-10" x="131.79" y="59.94" width="4.12" height="1.62" rx=".81" ry=".81" transform="translate(267.71 121.5) rotate(180)"/>
              <rect class="cls-11" x="127.52" y="59.94" width="4.12" height="1.62" rx=".81" ry=".81" transform="translate(259.15 121.5) rotate(-180)"/>
              <rect class="cls-12" x="125.15" y="58.11" width="4.12" height="1.62" rx=".81" ry=".81" transform="translate(254.43 117.85) rotate(180)"/>
              <rect class="cls-12" x="118.66" y="58.11" width="4.12" height="1.62" rx=".81" ry=".81" transform="translate(241.44 117.85) rotate(180)"/>
              <rect class="cls-10" x="129.39" y="52.74" width="4.12" height="1.62" rx=".81" ry=".81" transform="translate(262.9 107.11) rotate(-180)"/>
            </g>
            <g>
              <rect class="cls-10" x="73.03" y="47.42" width="4.12" height="1.62" rx=".81" ry=".81" transform="translate(150.17 96.46) rotate(-180)"/>
              <rect class="cls-10" x="75.05" y="49.2" width="4.12" height="1.62" rx=".81" ry=".81" transform="translate(154.21 100.03) rotate(-180)"/>
              <rect class="cls-10" x="70.69" y="49.2" width="4.12" height="1.62" rx=".81" ry=".81" transform="translate(145.5 100.03) rotate(-180)"/>
              <rect class="cls-11" x="68.75" y="47.42" width="4.12" height="1.62" rx=".81" ry=".81" transform="translate(141.62 96.46) rotate(180)"/>
              <rect class="cls-11" x="66.05" y="45.6" width="4.12" height="1.62" rx=".81" ry=".81" transform="translate(136.22 92.83) rotate(-180)"/>
              <rect class="cls-10" x="73.03" y="50.98" width="4.12" height="1.62" rx=".81" ry=".81" transform="translate(150.17 103.59) rotate(-180)"/>
              <rect class="cls-11" x="68.75" y="50.98" width="4.12" height="1.62" rx=".81" ry=".81" transform="translate(141.62 103.59) rotate(-180)"/>
              <rect class="cls-12" x="66.39" y="49.16" width="4.12" height="1.62" rx=".81" ry=".81" transform="translate(136.9 99.95) rotate(-180)"/>
              <rect class="cls-12" x="59.9" y="49.16" width="4.12" height="1.62" rx=".81" ry=".81" transform="translate(123.91 99.95) rotate(180)"/>
              <rect class="cls-10" x="70.63" y="43.79" width="4.12" height="1.62" rx=".81" ry=".81" transform="translate(145.37 89.21) rotate(-180)"/>
            </g>
            <g>
              <rect class="cls-10" x="78" y="78.9" width="4.12" height="1.62" rx=".81" ry=".81"/>
              <rect class="cls-10" x="75.98" y="80.69" width="4.12" height="1.62" rx=".81" ry=".81"/>
              <rect class="cls-10" x="80.34" y="80.69" width="4.12" height="1.62" rx=".81" ry=".81"/>
              <rect class="cls-11" x="82.28" y="78.9" width="4.12" height="1.62" rx=".81" ry=".81"/>
              <rect class="cls-10" x="78" y="82.47" width="4.12" height="1.62" rx=".81" ry=".81"/>
              <rect class="cls-11" x="82.28" y="82.47" width="4.12" height="1.62" rx=".81" ry=".81"/>
              <rect class="cls-12" x="84.64" y="80.65" width="4.12" height="1.62" rx=".81" ry=".81"/>
              <rect class="cls-10" x="80.41" y="77.12" width="4.12" height="1.62" rx=".81" ry=".81"/>
            </g>
            <g>
              <rect class="cls-10" x="117.15" y="48.13" width="4.12" height="1.62" rx=".81" ry=".81"/>
              <rect class="cls-10" x="115.13" y="49.92" width="4.12" height="1.62" rx=".81" ry=".81"/>
              <rect class="cls-10" x="119.48" y="49.92" width="4.12" height="1.62" rx=".81" ry=".81"/>
              <rect class="cls-11" x="121.43" y="48.13" width="4.12" height="1.62" rx=".81" ry=".81"/>
              <rect class="cls-10" x="117.15" y="51.7" width="4.12" height="1.62" rx=".81" ry=".81"/>
              <rect class="cls-11" x="121.43" y="51.7" width="4.12" height="1.62" rx=".81" ry=".81"/>
              <rect class="cls-12" x="123.79" y="49.88" width="4.12" height="1.62" rx=".81" ry=".81"/>
              <rect class="cls-10" x="119.55" y="46.35" width="4.12" height="1.62" rx=".81" ry=".81"/>
            </g>
            <g>
              <rect class="cls-10" x="92.07" y="80.75" width="4.12" height="1.62" rx=".81" ry=".81"/>
              <rect class="cls-10" x="90.05" y="82.53" width="4.12" height="1.62" rx=".81" ry=".81"/>
              <rect class="cls-10" x="94.41" y="82.53" width="4.12" height="1.62" rx=".81" ry=".81"/>
              <rect class="cls-11" x="96.35" y="80.75" width="4.12" height="1.62" rx=".81" ry=".81"/>
              <rect class="cls-11" x="99.05" y="78.93" width="4.12" height="1.62" rx=".81" ry=".81"/>
              <rect class="cls-10" x="92.07" y="84.32" width="4.12" height="1.62" rx=".81" ry=".81"/>
              <rect class="cls-11" x="96.35" y="84.32" width="4.12" height="1.62" rx=".81" ry=".81"/>
              <rect class="cls-12" x="98.71" y="82.49" width="4.12" height="1.62" rx=".81" ry=".81"/>
              <rect class="cls-12" x="105.21" y="82.49" width="4.12" height="1.62" rx=".81" ry=".81"/>
              <rect class="cls-10" x="94.47" y="77.12" width="4.12" height="1.62" rx=".81" ry=".81"/>
            </g>
          </g>
        </g>
        <rect class="cls-23" x="75.65" y="29.51" width="89" height="4.77"/>
        <rect class="cls-3" x="131.09" y="48.16" width="26.54" height="38.88"/>
        <g>
          <rect class="cls-15" x="126.83" y="56.24" width="35.06" height="22.72" transform="translate(211.95 -76.76) rotate(90)"/>
          <polygon class="cls-9" points="134.46 51.53 155.71 51.53 155.71 50.07 133 50.07 133 85.13 134.46 85.13 134.46 51.53"/>
          <g>
            <polygon class="cls-19" points="155.79 85.22 143.71 85.22 133 50.07 145.08 50.07 155.79 85.22"/>
            <polygon class="cls-20" points="147.67 49.97 155.54 75.04 155.71 50.07 147.67 49.97"/>
          </g>
        </g>
        <g>
          <rect class="cls-3" x="80.93" y="50.07" width="43.15" height="25.04"/>
          <rect class="cls-15" x="91.9" y="42.92" width="21.22" height="39.33" transform="translate(165.09 -39.92) rotate(90)"/>
          <g>
            <rect class="cls-3" x="94.37" y="50.05" width="2.02" height="24.95"/>
            <rect class="cls-3" x="108.74" y="50.05" width="2.02" height="24.95"/>
          </g>
          <polygon class="cls-9" points="94.29 51.98 82.84 51.98 82.84 52.02 82.84 52.89 82.84 73.2 83.61 73.2 83.61 52.89 94.29 52.89 94.29 51.98"/>
          <g>
            <polygon class="cls-19" points="84.44 51.86 94.4 64.22 94.4 58.59 89.65 52.03 84.44 51.86"/>
            <polygon class="cls-19" points="82.81 53.62 94.38 68.53 94.32 66.69 82.84 51.98 82.81 53.62"/>
          </g>
          <polygon class="cls-9" points="108.76 51.98 96.35 51.98 96.35 52.02 96.35 52.89 96.35 73.2 97.12 73.2 97.12 52.89 108.76 52.89 108.76 51.98"/>
          <g>
            <polygon class="cls-19" points="98.06 51.86 108.67 65.02 108.67 59.03 103.6 52.04 98.06 51.86"/>
            <polygon class="cls-19" points="96.32 53.74 108.64 69.61 108.58 67.65 96.36 51.98 96.32 53.74"/>
          </g>
          <polygon class="cls-9" points="122.15 51.98 110.7 51.98 110.7 52.02 110.7 52.89 110.7 73.2 111.47 73.2 111.47 52.89 122.15 52.89 122.15 51.98"/>
          <g>
            <polygon class="cls-19" points="112.3 51.86 122.26 64.22 122.26 58.59 117.51 52.03 112.3 51.86"/>
            <polygon class="cls-19" points="110.67 53.62 122.24 68.53 122.18 66.69 110.7 51.98 110.67 53.62"/>
          </g>
        </g>
        <polygon class="cls-21" points="169.23 45.04 72.93 45.04 76.38 31.99 160.64 31.99 169.23 45.04"/>
        <g class="cls-25">
          <g class="cls-6">
            <path class="cls-37" d="M69.16,48.9h4.1c1.28,0,2.32-1.64,2.32-3.67h-8.75c0,2.02,1.04,3.67,2.32,3.67Z"/>
            <path class="cls-37" d="M104.81,48.9h4.1c1.28,0,2.32-1.64,2.32-3.67h-8.75c0,2.02,1.04,3.67,2.32,3.67Z"/>
            <path class="cls-37" d="M140.21,48.9h4.1c1.28,0,2.32-1.64,2.32-3.67h-8.75c0,2.02,1.04,3.67,2.32,3.67Z"/>
            <path class="cls-37" d="M158.03,48.9h4.1c1.28,0,2.32-1.64,2.32-3.67h-8.75c0,2.02,1.04,3.67,2.32,3.67Z"/>
            <path class="cls-37" d="M164.33,45.23v.03c0,2.01,1.03,3.63,2.3,3.63h4.34c1.27,0,2.3-1.63,2.3-3.63v-.03h-8.95Z"/>
            <path class="cls-37" d="M93.27,45.23h-17.68c0,2.02,1.04,3.67,2.32,3.67h4.46c1.09,0,2-1.18,2.25-2.78.23,1.59,1.14,2.78,2.22,2.78h4.18c1.18,0,2.16-1.43,2.26-3.25.13,1.83,1.11,3.25,2.31,3.25h4.46c1.28,0,2.32-1.64,2.32-3.67h-9.11Z"/>
            <path class="cls-37" d="M148.92,48.9h4.46c1.28,0,2.32-1.64,2.32-3.67h-9.11c0,2.02,1.04,3.67,2.32,3.67Z"/>
            <path class="cls-37" d="M128.87,45.23h-17.79c0,2.02,1.04,3.67,2.32,3.67h4.46c1.12,0,2.05-1.24,2.27-2.9.21,1.65,1.13,2.9,2.24,2.9h4.23c1.21,0,2.2-1.48,2.28-3.36.1,1.88,1.1,3.36,2.31,3.36h4.46c1.28,0,2.32-1.64,2.32-3.67h-9.11Z"/>
          </g>
        </g>
        <path class="cls-23" d="M102.32,45.04h8.78c0,1.28-1.04,2.32-2.32,2.32h-4.13c-1.28,0-2.32-1.04-2.32-2.32h0Z"/>
        <path class="cls-23" d="M137.9,45.04h8.73c0,1.28-1.04,2.32-2.32,2.32h-4.08c-1.28,0-2.32-1.04-2.32-2.32h0Z"/>
        <path class="cls-23" d="M155.66,45.04h8.74c0,1.28-1.04,2.32-2.32,2.32h-4.09c-1.28,0-2.32-1.04-2.32-2.32h0Z"/>
        <g>
          <rect class="cls-8" x="135.49" y="62.46" width="19.32" height="12.88" rx="5.29" ry="5.29"/>
          <g>
            <polyline class="cls-2" points="136.26 63.04 145.06 57.32 152.93 63.33"/>
            <rect class="cls-32" x="135.15" y="61.95" width="19.32" height="12.88" rx="5.29" ry="5.29"/>
          </g>
          <text class="cls-22" transform="translate(136.78 67.15)"><tspan class="cls-16"><tspan class="cls-38" x="0" y="0">W</tspan><tspan class="cls-29" x="4.23" y="0">E ARE</tspan></tspan><tspan class="cls-18"><tspan x="0" y="4.88">O</tspan><tspan class="cls-39" x="4.4" y="4.88">P</tspan><tspan x="8.17" y="4.88">EN</tspan></tspan></text>
        </g>
        <g>
          <g>
            <g>
              <path class="cls-34" d="M75.47,45.19h-8.71c3.52-5.27,5.28-7.91,8.8-13.18,2.91,0,4.36,0,7.27,0-2.94,5.27-4.42,7.91-7.36,13.18Z"/>
              <path class="cls-21" d="M84.32,45.19h-8.71c2.93-5.27,4.4-7.91,7.33-13.18,2.91,0,4.36,0,7.27,0-2.36,5.27-3.54,7.91-5.9,13.18Z"/>
            </g>
            <g>
              <path class="cls-34" d="M93.27,45.19h-8.71c2.34-5.27,3.51-7.91,5.86-13.18,2.91,0,4.36,0,7.27,0-1.77,5.27-2.65,7.91-4.42,13.18Z"/>
              <path class="cls-21" d="M102.12,45.19h-8.71c1.76-5.27,2.64-7.91,4.4-13.18,2.91,0,4.36,0,7.27,0-1.18,5.27-1.77,7.91-2.96,13.18Z"/>
            </g>
            <g>
              <path class="cls-34" d="M111.06,45.19h-8.7c1.17-5.27,1.75-7.91,2.92-13.18,2.91,0,4.36,0,7.27,0-.59,5.27-.89,7.91-1.48,13.18Z"/>
              <path class="cls-21" d="M119.91,45.19h-8.7c.58-5.27.87-7.91,1.46-13.18,2.91,0,4.36,0,7.27,0,0,5.27-.01,7.91-.02,13.18Z"/>
            </g>
            <g>
              <path class="cls-34" d="M128.85,45.19h-8.7c0-5.27-.01-7.91-.02-13.18,2.91,0,4.36,0,7.27,0,.58,5.27.87,7.91,1.46,13.18Z"/>
              <path class="cls-21" d="M137.7,45.19h-8.7c-.59-5.27-.89-7.91-1.48-13.18,2.91,0,4.36,0,7.27,0,1.17,5.27,1.75,7.91,2.92,13.18Z"/>
            </g>
            <g>
              <path class="cls-34" d="M146.65,45.19h-8.71c-1.18-5.27-1.77-7.91-2.96-13.18,2.91,0,4.36,0,7.27,0,1.76,5.27,2.64,7.91,4.4,13.18Z"/>
              <path class="cls-21" d="M155.5,45.19h-8.71c-1.77-5.27-2.65-7.91-4.42-13.18,2.91,0,4.36,0,7.27,0,2.34,5.27,3.51,7.91,5.86,13.18Z"/>
            </g>
            <g>
              <path class="cls-34" d="M164.44,45.19h-8.71c-2.36-5.27-3.54-7.91-5.9-13.18,2.91,0,4.36,0,7.27,0,2.93,5.27,4.4,7.91,7.33,13.18Z"/>
              <path class="cls-21" d="M173.3,45.19h-8.71c-2.94-5.27-4.42-7.91-7.36-13.18,2.91,0,4.36,0,7.27,0,3.52,5.27,5.28,7.91,8.8,13.18Z"/>
            </g>
          </g>
          <g>
            <path class="cls-23" d="M73.26,47.37h-4.1c-1.28,0-2.32-1.04-2.32-2.32h8.75c0,1.28-1.04,2.32-2.32,2.32Z"/>
            <path class="cls-17" d="M82.37,47.37h-4.46c-1.28,0-2.32-1.04-2.32-2.32h9.11c0,1.28-1.04,2.32-2.32,2.32Z"/>
            <path class="cls-17" d="M164.33,45.04h8.95c0,1.28-1.04,2.32-2.32,2.32h-4.3c-1.28,0-2.32-1.04-2.32-2.32h0Z"/>
            <path class="cls-23" d="M84.56,45.04h8.73c0,1.28-1.04,2.32-2.32,2.32h-4.09c-1.28,0-2.32-1.04-2.32-2.32h0Z"/>
            <path class="cls-17" d="M100.06,47.37h-4.46c-1.28,0-2.32-1.04-2.32-2.32h9.11c0,1.28-1.04,2.32-2.32,2.32Z"/>
            <path class="cls-17" d="M117.86,47.37h-4.46c-1.28,0-2.32-1.04-2.32-2.32h9.11c0,1.28-1.04,2.32-2.32,2.32Z"/>
            <path class="cls-17" d="M135.65,47.37h-4.46c-1.28,0-2.32-1.04-2.32-2.32h9.11c0,1.28-1.04,2.32-2.32,2.32Z"/>
            <path class="cls-17" d="M153.38,47.37h-4.46c-1.28,0-2.32-1.04-2.32-2.32h9.11c0,1.28-1.04,2.32-2.32,2.32Z"/>
          </g>
          <path class="cls-23" d="M120.08,45.04h8.8c0,1.28-1.04,2.32-2.32,2.32h-4.15c-1.28,0-2.32-1.04-2.32-2.32h0Z"/>
        </g>
        <g>
          <g class="cls-7">
            <text class="cls-30" transform="translate(91.13 29.44)"><tspan class="cls-44" x="0" y="0">S</tspan><tspan class="cls-40" x="11.73" y="0">T</tspan><tspan class="cls-27" x="22.09" y="0">O</tspan><tspan class="cls-41" x="36.48" y="0">R</tspan><tspan x="49.35" y="0">E</tspan></text>
          </g>
          <text class="cls-31" transform="translate(89.31 29.44)"><tspan class="cls-44" x="0" y="0">S</tspan><tspan class="cls-40" x="11.73" y="0">T</tspan><tspan class="cls-35" x="22.09" y="0">O</tspan><tspan class="cls-42" x="36.48" y="0">R</tspan><tspan class="cls-33" x="49.35" y="0">E</tspan></text>
        </g>
      </g>
    </g>
  </g>
</svg>