<?xml version="1.0" encoding="UTF-8"?>
<svg xmlns="http://www.w3.org/2000/svg" xmlns:xlink="http://www.w3.org/1999/xlink" viewBox="0 0 360 360">
  <defs>
    <style>
      .cls-1 {
        fill: url(#linear-gradient-7);
      }

      .cls-2 {
        fill: url(#linear-gradient-5);
      }

      .cls-3 {
        fill: url(#linear-gradient-6);
      }

      .cls-4 {
        fill: url(#linear-gradient-4);
      }

      .cls-5 {
        fill: url(#linear-gradient-3);
      }

      .cls-6 {
        fill: url(#linear-gradient-2);
      }

      .cls-7 {
        fill: url(#linear-gradient);
      }

      .cls-8, .cls-9, .cls-10, .cls-11 {
        fill: #fff;
      }

      .cls-8, .cls-12, .cls-13 {
        opacity: .6;
      }

      .cls-9 {
        opacity: .78;
      }

      .cls-14 {
        isolation: isolate;
      }

      .cls-15 {
        fill: url(#linear-gradient-9);
      }

      .cls-15, .cls-16, .cls-17, .cls-18, .cls-19, .cls-20, .cls-21, .cls-22, .cls-23, .cls-24, .cls-25, .cls-26 {
        opacity: .63;
      }

      .cls-16 {
        fill: url(#linear-gradient-8);
      }

      .cls-27, .cls-12 {
        fill: #e5bd9d;
      }

      .cls-17 {
        fill: url(#linear-gradient-20);
      }

      .cls-18 {
        fill: url(#linear-gradient-21);
      }

      .cls-19 {
        fill: url(#linear-gradient-19);
      }

      .cls-20 {
        fill: url(#linear-gradient-14);
      }

      .cls-21 {
        fill: url(#linear-gradient-10);
      }

      .cls-22 {
        fill: url(#linear-gradient-13);
      }

      .cls-23 {
        fill: url(#linear-gradient-12);
      }

      .cls-24 {
        fill: url(#linear-gradient-18);
      }

      .cls-25 {
        fill: url(#linear-gradient-16);
      }

      .cls-26 {
        fill: url(#linear-gradient-17);
      }

      .cls-28 {
        fill: url(#linear-gradient-43);
      }

      .cls-29 {
        fill: url(#linear-gradient-40);
      }

      .cls-30 {
        fill: url(#linear-gradient-41);
      }

      .cls-31 {
        fill: url(#linear-gradient-42);
      }

      .cls-32 {
        fill: url(#linear-gradient-49);
      }

      .cls-33 {
        fill: url(#linear-gradient-48);
      }

      .cls-34 {
        fill: url(#linear-gradient-45);
      }

      .cls-35 {
        fill: url(#linear-gradient-47);
      }

      .cls-36 {
        fill: url(#linear-gradient-44);
      }

      .cls-37 {
        fill: url(#linear-gradient-46);
      }

      .cls-38 {
        fill: url(#linear-gradient-11);
      }

      .cls-39 {
        fill: url(#linear-gradient-22);
      }

      .cls-40 {
        fill: url(#linear-gradient-23);
      }

      .cls-41 {
        fill: url(#linear-gradient-28);
      }

      .cls-42 {
        fill: url(#linear-gradient-25);
      }

      .cls-43 {
        fill: url(#linear-gradient-32);
      }

      .cls-44 {
        fill: url(#linear-gradient-31);
      }

      .cls-45 {
        fill: url(#linear-gradient-33);
      }

      .cls-46 {
        fill: url(#linear-gradient-30);
      }

      .cls-47 {
        fill: url(#linear-gradient-15);
      }

      .cls-48 {
        fill: url(#linear-gradient-35);
      }

      .cls-49 {
        fill: url(#linear-gradient-34);
      }

      .cls-50 {
        fill: url(#linear-gradient-36);
      }

      .cls-51 {
        fill: url(#linear-gradient-38);
      }

      .cls-52 {
        fill: url(#linear-gradient-27);
      }

      .cls-53 {
        fill: url(#linear-gradient-24);
      }

      .cls-54 {
        fill: url(#linear-gradient-26);
      }

      .cls-55 {
        fill: url(#linear-gradient-29);
      }

      .cls-56 {
        fill: url(#linear-gradient-37);
      }

      .cls-57 {
        fill: url(#linear-gradient-39);
      }

      .cls-58 {
        fill: url(#linear-gradient-53);
      }

      .cls-59 {
        fill: url(#linear-gradient-50);
      }

      .cls-60 {
        fill: url(#linear-gradient-51);
      }

      .cls-61 {
        fill: url(#linear-gradient-52);
      }

      .cls-62 {
        opacity: .7;
      }

      .cls-11 {
        mix-blend-mode: soft-light;
        opacity: .2;
      }

      .cls-63 {
        fill: #f9eada;
        opacity: .3;
      }
    </style>
    <linearGradient id="linear-gradient" x1="74.14" y1="320.91" x2="259.54" y2="84.86" gradientUnits="userSpaceOnUse">
      <stop offset="0" stop-color="#293882"/>
      <stop offset="1" stop-color="#171042"/>
    </linearGradient>
    <linearGradient id="linear-gradient-2" x1="-430.33" y1="3325.88" x2="-266.03" y2="3083.49" gradientTransform="translate(549.86 -2972.61) rotate(.97)" gradientUnits="userSpaceOnUse">
      <stop offset="0" stop-color="#8d50a0"/>
      <stop offset="1" stop-color="#ef4a7b"/>
    </linearGradient>
    <linearGradient id="linear-gradient-3" x1="160.1" y1="3.78" x2="95.26" y2="89.07" gradientTransform="translate(38.96 18.89) rotate(1.49)" xlink:href="#linear-gradient"/>
    <linearGradient id="linear-gradient-4" x1="-293.08" y1="3010.05" x2="-357.87" y2="3095.28" gradientTransform="translate(549.86 -2972.61) rotate(.97)" xlink:href="#linear-gradient"/>
    <linearGradient id="linear-gradient-5" x1="-301.24" y1="3015.26" x2="-345.98" y2="3097.41" gradientTransform="translate(549.86 -2972.61) rotate(.97)" xlink:href="#linear-gradient"/>
    <linearGradient id="linear-gradient-6" x1="179.35" y1="155.24" x2="280.66" y2="319.5" gradientUnits="userSpaceOnUse">
      <stop offset="0" stop-color="#66cdf3"/>
      <stop offset="1" stop-color="#4a5aa8"/>
    </linearGradient>
    <linearGradient id="linear-gradient-7" x1="231.72" y1="239.86" x2="241.91" y2="197.61" xlink:href="#linear-gradient"/>
    <linearGradient id="linear-gradient-8" x1="194.27" y1="241.6" x2="211.98" y2="241.6" xlink:href="#linear-gradient"/>
    <linearGradient id="linear-gradient-9" x1="219.19" y1="241.6" x2="236.89" y2="241.6" xlink:href="#linear-gradient"/>
    <linearGradient id="linear-gradient-10" x1="243.12" y1="241.6" x2="260.83" y2="241.6" xlink:href="#linear-gradient"/>
    <linearGradient id="linear-gradient-11" x1="281.54" y1="235.83" x2="242.07" y2="282.36" gradientUnits="userSpaceOnUse">
      <stop offset="0" stop-color="#cb266e"/>
      <stop offset="1" stop-color="#4c286e"/>
    </linearGradient>
    <linearGradient id="linear-gradient-12" x1="194.27" y1="258.98" x2="211.98" y2="258.98" xlink:href="#linear-gradient"/>
    <linearGradient id="linear-gradient-13" x1="219.19" y1="258.98" x2="236.89" y2="258.98" xlink:href="#linear-gradient"/>
    <linearGradient id="linear-gradient-14" x1="243.12" y1="258.98" x2="260.83" y2="258.98" xlink:href="#linear-gradient"/>
    <linearGradient id="linear-gradient-15" x1="267.71" y1="258.98" x2="285.42" y2="258.98" xlink:href="#linear-gradient"/>
    <linearGradient id="linear-gradient-16" x1="194.27" y1="275.05" x2="211.98" y2="275.05" xlink:href="#linear-gradient"/>
    <linearGradient id="linear-gradient-17" x1="219.19" y1="275.05" x2="236.89" y2="275.05" xlink:href="#linear-gradient"/>
    <linearGradient id="linear-gradient-18" x1="243.12" y1="275.05" x2="260.83" y2="275.05" xlink:href="#linear-gradient"/>
    <linearGradient id="linear-gradient-19" x1="194.27" y1="291.77" x2="211.98" y2="291.77" xlink:href="#linear-gradient"/>
    <linearGradient id="linear-gradient-20" x1="219.19" y1="291.77" x2="236.89" y2="291.77" xlink:href="#linear-gradient"/>
    <linearGradient id="linear-gradient-21" x1="243.12" y1="291.77" x2="260.83" y2="291.77" xlink:href="#linear-gradient"/>
    <linearGradient id="linear-gradient-22" x1="268.7" y1="283.73" x2="283.12" y2="283.73" xlink:href="#linear-gradient"/>
    <linearGradient id="linear-gradient-23" x1="151.29" y1="142.1" x2="167.02" y2="123.84" gradientTransform="translate(89.91 -69.53) rotate(31.72)" gradientUnits="userSpaceOnUse">
      <stop offset="0" stop-color="#f9ee4a"/>
      <stop offset="1" stop-color="#da3d66"/>
    </linearGradient>
    <linearGradient id="linear-gradient-24" x1="175.91" y1="110.52" x2="129.39" y2="180.8" gradientTransform="matrix(1,0,0,1,0,0)" xlink:href="#linear-gradient-23"/>
    <linearGradient id="linear-gradient-25" x1="174.52" y1="112.54" x2="149.75" y2="154.12" gradientTransform="matrix(1,0,0,1,0,0)" xlink:href="#linear-gradient-23"/>
    <linearGradient id="linear-gradient-26" x1="172.79" y1="141.99" x2="200.17" y2="110.21" gradientTransform="translate(270.35 -108.26) rotate(79.1)" xlink:href="#linear-gradient-23"/>
    <linearGradient id="linear-gradient-27" x1="215.65" y1="87.02" x2="134.67" y2="209.36" gradientTransform="translate(261.24 -110.96) rotate(76.72)" xlink:href="#linear-gradient-23"/>
    <linearGradient id="linear-gradient-28" x1="213.23" y1="90.53" x2="170.11" y2="162.92" gradientTransform="matrix(1,0,0,1,0,0)" xlink:href="#linear-gradient-23"/>
    <linearGradient id="linear-gradient-29" x1="186.06" y1="188.54" x2="214.24" y2="155.83" gradientTransform="translate(307.84 -92.95) rotate(74.71)" xlink:href="#linear-gradient-23"/>
    <linearGradient id="linear-gradient-30" x1="230.16" y1="131.97" x2="146.83" y2="257.86" gradientTransform="translate(229.74 -109.4) rotate(57.39)" xlink:href="#linear-gradient-23"/>
    <linearGradient id="linear-gradient-31" x1="227.67" y1="135.58" x2="183.3" y2="210.07" gradientTransform="matrix(1,0,0,1,0,0)" xlink:href="#linear-gradient-23"/>
    <linearGradient id="linear-gradient-32" x1="220.69" y1="151" x2="241.34" y2="127.03" gradientTransform="translate(333.55 -130.42) rotate(82.03)" xlink:href="#linear-gradient-23"/>
    <linearGradient id="linear-gradient-33" x1="253.01" y1="109.55" x2="191.95" y2="201.79" gradientTransform="translate(294.38 -141.21) rotate(73.49)" xlink:href="#linear-gradient-23"/>
    <linearGradient id="linear-gradient-34" x1="251.19" y1="112.2" x2="218.68" y2="166.78" gradientTransform="matrix(1,0,0,1,0,0)" xlink:href="#linear-gradient-23"/>
    <linearGradient id="linear-gradient-35" x1="9041.27" y1="301.3" x2="8984.12" y2="363.46" gradientTransform="translate(-8938.51)" xlink:href="#linear-gradient"/>
    <linearGradient id="linear-gradient-36" x1="9022.72" y1="305.92" x2="9027.79" y2="305.92" gradientTransform="translate(-8938.51)" gradientUnits="userSpaceOnUse">
      <stop offset="0" stop-color="#f7b777"/>
      <stop offset="1" stop-color="#f47960"/>
    </linearGradient>
    <linearGradient id="linear-gradient-37" x1="156.95" y1="198.86" x2="78.26" y2="269.02" xlink:href="#linear-gradient-11"/>
    <linearGradient id="linear-gradient-38" x1="9028.45" y1="289.51" x2="8971.3" y2="351.67" gradientTransform="translate(-8938.51)" xlink:href="#linear-gradient"/>
    <linearGradient id="linear-gradient-39" x1="9004.42" y1="305.66" x2="9008.81" y2="305.66" xlink:href="#linear-gradient-36"/>
    <linearGradient id="linear-gradient-40" x1="151.21" y1="192.43" x2="72.52" y2="262.59" xlink:href="#linear-gradient-11"/>
    <linearGradient id="linear-gradient-41" x1="93.06" y1="174.21" x2="45.84" y2="263.22" xlink:href="#linear-gradient-6"/>
    <linearGradient id="linear-gradient-42" x1="-7440.26" y1="143.27" x2="-7431.3" y2="168.86" gradientTransform="translate(-7313.23) rotate(-180) scale(1 -1)" xlink:href="#linear-gradient-36"/>
    <linearGradient id="linear-gradient-43" x1="164.06" y1="144.28" x2="124.71" y2="155.1" gradientTransform="matrix(1,0,0,1,0,0)" xlink:href="#linear-gradient-36"/>
    <linearGradient id="linear-gradient-44" x1="-7441.03" y1="162.3" x2="-7447.78" y2="148.69" gradientTransform="translate(-7313.23) rotate(-180) scale(1 -1)" xlink:href="#linear-gradient-36"/>
    <linearGradient id="linear-gradient-45" x1="75.84" y1="165.08" x2="28.63" y2="254.09" xlink:href="#linear-gradient-6"/>
    <linearGradient id="linear-gradient-46" x1="8986.86" y1="210.22" x2="9019.68" y2="210.22" xlink:href="#linear-gradient-36"/>
    <linearGradient id="linear-gradient-47" x1="9040.91" y1="175.03" x2="9037.06" y2="191.91" gradientTransform="translate(-8938.51)" xlink:href="#linear-gradient-2"/>
    <linearGradient id="linear-gradient-48" x1="105.15" y1="184.4" x2="97.94" y2="191.39" gradientTransform="matrix(1,0,0,1,0,0)" xlink:href="#linear-gradient-2"/>
    <linearGradient id="linear-gradient-49" x1="9017.24" y1="206.78" x2="9027.47" y2="206.78" xlink:href="#linear-gradient-36"/>
    <linearGradient id="linear-gradient-50" x1="9012.06" y1="175.13" x2="9025.03" y2="175.13" xlink:href="#linear-gradient-36"/>
    <linearGradient id="linear-gradient-51" x1="-2570.32" y1="1928.47" x2="-2586.71" y2="1950.14" gradientTransform="translate(1540.04 -2706.64) rotate(-26.21)" xlink:href="#linear-gradient-36"/>
    <linearGradient id="linear-gradient-52" x1="90.14" y1="154.89" x2="71.99" y2="184.62" xlink:href="#linear-gradient-11"/>
    <linearGradient id="linear-gradient-53" x1="-2594.32" y1="1945.63" x2="-2581.18" y2="1932.15" gradientTransform="translate(1540.04 -2706.64) rotate(-26.21)" xlink:href="#linear-gradient-36"/>
  </defs>
  <g class="cls-14">
    <g id="Layer_1">
      <g>
        <path class="cls-63" d="M297.28,227.41c-26.54,61.35-96.61,87.71-151.51,83.21-14.99-1.23-45.15-3.7-68.7-25.72-45.22-42.29-38.26-130.69,5.03-182.74,5.57-6.7,44.16-51.61,104.3-51.01,44.03.44,74.93,25.03,78.69,28.1,4.75,3.87,15.22,13.07,24.65,27.66,22.17,34.29,24.12,82.15,7.53,120.49Z"/>
        <g>
          <path class="cls-27" d="M279.35,92.93c1.63-2.59,5.64-1.13,5.24,1.9-2.1,15.63-4.59,42.92.33,60.75,7.23,26.22,20.22,103.36-53.07,122.88,0,0,6.98-121.26,47.51-185.54Z"/>
          <path class="cls-8" d="M273.16,125.34s-.07.15-.18.43c-.11.28-.28.71-.47,1.27-.39,1.12-.87,2.79-1.36,4.95-.48,2.16-.97,4.8-1.3,7.86-.34,3.06-.59,6.52-.61,10.31-.06,1.89.06,3.86.08,5.9.04,1.02.11,2.05.17,3.11.03.53.06,1.06.09,1.59.04.53.1,1.07.15,1.61.1,1.08.21,2.17.31,3.28.05.53.14,1.11.2,1.66.07.56.13,1.13.21,1.69.3,2.24.67,4.55,1.06,6.9.39,2.35.81,4.74,1.19,7.17.19,1.22.38,2.44.55,3.68.09.62.18,1.24.27,1.86.08.62.16,1.25.24,1.87.17,1.25.29,2.51.43,3.78.14,1.27.23,2.54.34,3.82.07,1.28.16,2.56.19,3.85l.04,1.93.02.97v.97c-.04,5.16-.48,10.34-1.46,15.35-.98,5-2.46,9.82-4.31,14.3-.23.56-.46,1.12-.69,1.67-.26.54-.52,1.08-.77,1.62-.52,1.07-1,2.15-1.58,3.16-.56,1.02-1.09,2.04-1.67,3.02-.6.97-1.18,1.92-1.76,2.87-2.41,3.71-4.92,7.06-7.43,9.97-.62.73-1.24,1.45-1.83,2.15-.63.67-1.25,1.32-1.85,1.96-.6.64-1.19,1.25-1.76,1.86-.6.58-1.17,1.14-1.73,1.68-2.2,2.21-4.29,3.95-5.96,5.43-.82.75-1.63,1.35-2.3,1.89-.68.54-1.25,1-1.72,1.37-.93.75-1.43,1.14-1.43,1.14-.07.06-.17.04-.23-.03-.05-.07-.05-.16.02-.22h0s.47-.43,1.35-1.24c.44-.4.98-.9,1.62-1.48.32-.29.66-.61,1.02-.94.18-.17.37-.34.56-.52.19-.18.38-.37.58-.57.79-.78,1.67-1.64,2.62-2.58.24-.23.48-.47.73-.72.25-.24.48-.51.73-.77.49-.52,1.01-1.07,1.54-1.63.53-.56,1.07-1.14,1.64-1.74.53-.62,1.08-1.26,1.65-1.91.56-.65,1.14-1.33,1.73-2.01.56-.71,1.14-1.44,1.73-2.18.29-.37.59-.75.89-1.12.15-.19.3-.38.45-.57.14-.2.28-.4.43-.6.57-.8,1.16-1.61,1.75-2.44.61-.81,1.15-1.7,1.72-2.58.29-.44.57-.88.86-1.33.15-.22.29-.45.44-.67.14-.23.27-.46.41-.7.54-.93,1.09-1.88,1.65-2.84.53-.97,1.02-1.98,1.54-2.98.54-1,.98-2.05,1.45-3.1.24-.53.47-1.06.71-1.59.21-.54.42-1.09.64-1.63,1.73-4.36,3.08-9.04,3.94-13.88.88-4.84,1.31-9.84,1.3-14.86,0-5.01-.38-10.04-.98-14.97-.08-.62-.15-1.23-.22-1.85-.08-.61-.17-1.23-.25-1.84-.16-1.22-.35-2.44-.53-3.65-.36-2.43-.72-4.82-1.07-7.18-.35-2.37-.68-4.69-.95-7.01-.14-1.16-.24-2.26-.34-3.41-.07-1.13-.14-2.24-.21-3.35-.03-.55-.07-1.1-.1-1.64-.01-.54-.03-1.08-.04-1.62-.03-1.07-.07-2.13-.08-3.16.03-2.08.02-4.08.16-6,.03-.48.05-.96.08-1.43.01-.24.03-.47.04-.7.02-.23.04-.46.06-.69.08-.92.17-1.81.25-2.69.08-.87.22-1.72.33-2.54.06-.41.11-.82.17-1.22.07-.4.14-.79.2-1.17.14-.77.25-1.52.4-2.23.15-.71.3-1.4.44-2.06.33-1.31.62-2.52.96-3.59.63-2.15,1.27-3.8,1.75-4.9.24-.55.44-.97.58-1.25.14-.28.22-.42.22-.42h0c.04-.08.14-.11.22-.07.07.04.1.13.07.21Z"/>
        </g>
        <g>
          <path class="cls-27" d="M243.67,277.99s32.92,11.4,57.51-24.62c23.1-33.83,9.22-76.13-.97-100.29-.53-1.26-2.38-1.02-2.58.33-3.06,20.35-17.28,99.9-55.71,124.52l1.76.06Z"/>
          <path class="cls-8" d="M247.1,278.45s.1-.02.28-.06c.18-.04.46-.1.81-.18.71-.17,1.76-.43,3.06-.85.66-.19,1.37-.45,2.15-.7.77-.29,1.62-.58,2.49-.95,1.77-.7,3.72-1.6,5.79-2.69,2.08-1.07,4.25-2.39,6.47-3.87,1.09-.78,2.22-1.55,3.32-2.43.28-.21.56-.43.84-.65l.42-.33.41-.35c.54-.47,1.09-.94,1.64-1.41,2.15-1.96,4.3-4.07,6.26-6.42.25-.29.5-.58.74-.87l.37-.44.35-.46c.46-.61.93-1.23,1.4-1.84.48-.6.9-1.26,1.33-1.9l1.3-1.93,1.19-2,.59-1c.1-.17.2-.33.29-.5l.27-.51c.36-.69.71-1.37,1.06-2.05.18-.34.35-.68.53-1.02.16-.35.31-.7.47-1.05.31-.7.62-1.39.93-2.08.15-.35.32-.69.45-1.04.13-.35.27-.7.4-1.05.27-.7.53-1.4.79-2.09.13-.35.27-.69.39-1.03.11-.35.22-.7.33-1.05.22-.69.44-1.38.66-2.06.21-.68.45-1.35.61-2.04.36-1.36.71-2.68,1.06-3.98.3-1.3.54-2.58.81-3.82.13-.62.28-1.22.38-1.82.1-.6.19-1.19.29-1.77.19-1.16.37-2.26.55-3.32.14-1.06.25-2.07.36-3.01.12-.95.23-1.83.33-2.65.1-.82.13-1.58.19-2.26.11-1.37.2-2.44.28-3.18.07-.73.1-1.13.1-1.13h0c0-.1.09-.16.18-.16.08,0,.15.08.15.16,0,0,0,.39.02,1.13.01.74.02,1.82.03,3.2,0,.69.02,1.46-.02,2.29-.04.83-.09,1.73-.14,2.69-.06.96-.11,1.98-.19,3.06-.12,1.07-.25,2.2-.39,3.38-.07.59-.14,1.19-.22,1.8-.08.61-.21,1.23-.31,1.86-.23,1.26-.46,2.57-.72,3.9-.32,1.33-.65,2.69-.99,4.08-.16.7-.39,1.39-.6,2.09-.22.7-.44,1.4-.66,2.11-.11.36-.22.71-.33,1.07-.12.35-.26.71-.39,1.06-.27.71-.54,1.42-.81,2.14-.14.36-.27.72-.41,1.08-.14.36-.31.71-.47,1.06-.32.71-.64,1.42-.96,2.13-.16.36-.32.71-.49,1.07-.18.35-.37.7-.55,1.05-.37.7-.73,1.4-1.1,2.1l-.28.53c-.09.17-.2.34-.3.51l-.61,1.02-1.23,2.04-1.36,1.96c-.45.65-.89,1.32-1.39,1.93-.49.62-.97,1.25-1.46,1.87l-.36.47-.39.44c-.26.3-.52.59-.78.89-2.03,2.39-4.29,4.5-6.54,6.46-.58.47-1.15.94-1.71,1.41l-.42.35-.44.32c-.29.22-.58.43-.87.64-1.13.88-2.32,1.63-3.46,2.38-.57.37-1.16.7-1.72,1.05-.28.17-.57.34-.84.51-.28.16-.57.31-.85.47-.56.31-1.12.61-1.66.9-.56.27-1.1.54-1.64.8-2.15,1.01-4.16,1.84-5.99,2.48-.9.34-1.77.59-2.56.85-.8.23-1.53.46-2.21.62-1.34.35-2.41.55-3.14.69-.36.06-.65.11-.84.14-.19.03-.29.04-.29.04-.09.01-.17-.05-.18-.14-.01-.09.05-.17.13-.18h0Z"/>
        </g>
        <g>
          <path class="cls-7" d="M102.91,73.89l140.86,2.4c7.77.13,14.08,6.33,14.34,14.1l6.92,204.39c.21,6.08-4.66,11.12-10.74,11.13l-161.49.18c-5.71,0-10.32-4.68-10.23-10.39l3.5-205.53c.16-9.15,7.7-16.44,16.85-16.28Z"/>
          <path class="cls-10" d="M116.45,302.96h0l-18.06-.54c-6.01-.18-10.81-5.22-10.71-11.22l.46-27.27c0-.18.15-.31.33-.32.18,0,.33.15.32.33l-.46,27.27c-.1,5.65,4.42,10.39,10.07,10.56l18.06.54c.18,0,.32.16.32.34,0,.18-.15.32-.33.32Z"/>
          <path class="cls-10" d="M88.61,255.81h0c-.18,0-.33-.15-.32-.33l.08-4.42c0-.18.16-.34.33-.32.18,0,.33.15.32.33l-.08,4.42c0,.18-.15.32-.33.32Z"/>
          <g>
            <path class="cls-6" d="M103.37,72.24c19.19,2.94,85.2,12.13,139.96,8.86,2.5-.15,4.63,1.78,4.72,4.28l7.41,205.31c.1,2.82-2.09,5.18-4.9,5.3-23.02.97-117.84,4.62-151.57.5-2.05-.25-3.58-2.01-3.56-4.08l2.4-215.48c.03-2.93,2.65-5.15,5.54-4.71Z"/>
            <path class="cls-12" d="M105.34,77.59c18.47,2.83,81.99,11.67,134.69,8.53,2.4-.14,4.46,1.71,4.54,4.12l7.13,197.58c.1,2.71-2.01,4.99-4.72,5.1-22.16.93-113.4,4.44-145.86.48-1.98-.24-3.45-1.93-3.43-3.92l2.31-207.36c.03-2.82,2.55-4.95,5.33-4.53Z"/>
            <g class="cls-13">
              <path class="cls-10" d="M238.3,103.44c.72.01,1.28-.57,1.25-1.29v-.22c-.05-.72-.67-1.32-1.39-1.34l-119.68-2.98c-.72-.02-.95.44-.51,1.01l1.37,1.78c.44.57,1.39,1.05,2.11,1.06l116.85,1.99Z"/>
            </g>
            <g class="cls-13">
              <path class="cls-10" d="M118.35,105.5c-.72-.02-.95.44-.51,1.01l1.37,1.78c.44.57,1.39,1.05,2.11,1.06l116.85,1.99c.72.01,1.28-.57,1.25-1.29v-.22c-.05-.72-.67-1.32-1.39-1.34l-119.68-2.98Z"/>
            </g>
            <path class="cls-10" d="M137.8,177.55s-.03,0-.04,0l-15.86.09c-2.28.01-4.19-1.53-4.44-3.59l-1.6-13.28c-.09-.79.14-1.58.66-2.21.58-.71,1.47-1.17,2.43-1.25h0c1.34-.11,3.18-.3,5.2-.5,4.41-.44,9.4-.95,12.34-1.03.02,0,.04,0,.06,0,2.1-.03,3.93,1.22,4.46,3.07.87,3.05.89,8.83.83,14.99-.02,2.02-1.83,3.68-4.04,3.71ZM119.06,158.6c-.62.05-1.18.33-1.54.78-.3.36-.43.8-.38,1.24l1.6,13.28c.17,1.41,1.52,2.46,3.15,2.45l15.86-.09s.02,0,.03,0c1.52-.02,2.75-1.11,2.77-2.43.06-6.06.05-11.74-.78-14.62-.37-1.27-1.76-2.2-3.24-2.13-2.89.08-8.08.6-12.25,1.02-2.03.2-3.88.39-5.22.5h0Z"/>
            <path class="cls-8" d="M120.79,159.91c3.33-.28,10.55-1.12,13.99-1.22,1.45-.04,2.74.82,3.1,2.07.7,2.44.69,7.32.64,11.83-.01,1.35-1.24,2.45-2.75,2.46l-12.67.07c-1.56,0-2.87-1.03-3.03-2.41l-1.28-10.61c-.13-1.1.77-2.09,2-2.19Z"/>
            <g class="cls-13">
              <path class="cls-10" d="M151.52,163.54c-.72,0-1.15.56-.96,1.25l1.5,5.36c.19.69.94,1.25,1.67,1.24l79.8-1.22c.72-.01,1.29-.61,1.26-1.33l-.12-3.29c-.03-.72-.64-1.32-1.36-1.32l-81.79-.69Z"/>
            </g>
            <path class="cls-10" d="M138.73,141.96s-.03,0-.04,0l-15.86.09c-2.28.01-4.19-1.53-4.44-3.59l-1.6-13.28c-.09-.79.14-1.58.66-2.21.58-.71,1.47-1.17,2.43-1.25h0c1.34-.11,3.18-.3,5.2-.5,4.41-.44,9.4-.95,12.34-1.03.02,0,.04,0,.06,0,2.1-.03,3.93,1.22,4.46,3.07.87,3.05.89,8.83.83,14.99-.02,2.02-1.83,3.68-4.04,3.71ZM119.99,123c-.62.05-1.18.33-1.54.78-.3.36-.43.8-.38,1.24l1.6,13.28c.17,1.41,1.52,2.46,3.15,2.45l15.86-.09s.02,0,.03,0c1.52-.02,2.75-1.11,2.77-2.43.06-6.06.05-11.74-.78-14.62-.37-1.27-1.76-2.2-3.24-2.13-2.89.08-8.08.6-12.25,1.02-2.03.2-3.88.39-5.22.5h0Z"/>
            <path class="cls-8" d="M121.72,124.31c3.33-.28,10.55-1.12,13.99-1.22,1.45-.04,2.74.82,3.1,2.07.7,2.44.69,7.32.64,11.83-.01,1.35-1.24,2.45-2.75,2.46l-12.67.07c-1.56,0-2.87-1.03-3.03-2.41l-1.28-10.61c-.13-1.1.77-2.09,2-2.19Z"/>
            <g class="cls-13">
              <path class="cls-10" d="M152.45,127.94c-.72,0-1.15.56-.96,1.25l1.5,5.36c.19.69.94,1.25,1.67,1.24l79.8-1.22c.72-.01,1.29-.61,1.26-1.33l-.12-3.29c-.03-.72-.64-1.32-1.36-1.32l-81.79-.69Z"/>
            </g>
            <path class="cls-10" d="M138.32,211.53s-.03,0-.04,0l-15.86.09c-2.28.01-4.19-1.53-4.44-3.59l-1.6-13.28c-.09-.79.14-1.58.66-2.21.58-.71,1.47-1.17,2.43-1.25h0c1.34-.11,3.18-.3,5.2-.5,4.41-.44,9.4-.95,12.34-1.03.02,0,.04,0,.06,0,2.1-.03,3.93,1.22,4.46,3.07.87,3.05.89,8.83.83,14.99-.02,2.02-1.83,3.68-4.04,3.71ZM119.59,192.58c-.62.05-1.18.33-1.54.78-.3.36-.43.8-.38,1.24l1.6,13.28c.17,1.41,1.52,2.46,3.15,2.45l15.86-.09s.02,0,.03,0c1.52-.02,2.75-1.11,2.77-2.43.06-6.06.05-11.74-.78-14.62-.37-1.28-1.76-2.19-3.24-2.13-2.89.08-8.08.6-12.25,1.02-2.03.2-3.88.39-5.22.5h0Z"/>
            <path class="cls-8" d="M121.31,193.89c3.33-.28,10.55-1.12,13.99-1.22,1.45-.04,2.74.82,3.1,2.07.7,2.44.69,7.32.64,11.83-.01,1.35-1.24,2.45-2.75,2.46l-12.67.07c-1.56,0-2.87-1.03-3.03-2.41l-1.28-10.61c-.13-1.1.77-2.09,2-2.19Z"/>
            <g class="cls-13">
              <path class="cls-10" d="M152.04,197.51c-.72,0-1.15.56-.96,1.25l1.5,5.36c.19.69.94,1.25,1.67,1.24l79.8-1.22c.72-.01,1.29-.61,1.26-1.33l-.12-3.29c-.03-.72-.64-1.32-1.36-1.32l-81.79-.69Z"/>
            </g>
            <path class="cls-10" d="M137.34,244.18s-.03,0-.04,0l-15.86.09c-2.28.01-4.19-1.53-4.44-3.59l-1.6-13.28c-.09-.79.14-1.58.66-2.21.58-.71,1.47-1.17,2.43-1.25h0c1.33-.11,3.17-.3,5.19-.5,4.19-.42,9.41-.95,12.34-1.03,2.09-.04,3.99,1.2,4.52,3.06.87,3.05.89,8.83.83,14.99-.02,2.02-1.83,3.68-4.04,3.71ZM118.6,225.23c-.62.05-1.18.33-1.54.78-.3.36-.43.8-.38,1.24l1.6,13.28c.17,1.41,1.52,2.46,3.15,2.45l15.86-.09c1.49-.05,2.79-1.1,2.8-2.43.06-6.06.05-11.74-.78-14.62-.37-1.27-1.76-2.17-3.24-2.13-2.89.08-8.08.6-12.25,1.02-2.03.2-3.87.39-5.22.5h0Z"/>
            <path class="cls-8" d="M120.33,226.53c3.33-.28,10.55-1.12,13.99-1.22,1.45-.04,2.74.82,3.1,2.07.7,2.44.69,7.32.64,11.83-.01,1.35-1.24,2.45-2.75,2.46l-12.67.07c-1.56,0-2.87-1.03-3.03-2.41l-1.28-10.61c-.13-1.1.77-2.09,2-2.19Z"/>
            <g class="cls-13">
              <path class="cls-10" d="M151.06,230.16c-.72,0-1.15.56-.96,1.25l1.5,5.36c.19.69.94,1.25,1.67,1.24l79.8-1.22c.72-.01,1.29-.61,1.26-1.33l-.12-3.29c-.03-.72-.64-1.32-1.36-1.32l-81.79-.69Z"/>
            </g>
            <path class="cls-10" d="M136.06,277.85s-.03,0-.04,0l-15.86.09c-2.28.01-4.19-1.53-4.44-3.59l-1.6-13.28c-.09-.79.14-1.58.66-2.21.58-.71,1.47-1.17,2.43-1.25h0c1.34-.11,3.18-.3,5.2-.5,4.41-.44,9.4-.95,12.34-1.03,2.15,0,3.99,1.2,4.52,3.06.87,3.05.89,8.83.83,14.99-.02,2.02-1.83,3.68-4.04,3.71ZM117.32,258.9c-.62.05-1.18.33-1.54.78-.3.36-.43.8-.38,1.24l1.6,13.28c.17,1.41,1.52,2.46,3.15,2.45l15.86-.09s.02,0,.03,0c1.52-.02,2.75-1.11,2.77-2.43.06-6.06.05-11.74-.78-14.62-.37-1.27-1.76-2.16-3.24-2.13-2.89.08-8.08.6-12.25,1.02-2.03.2-3.88.39-5.22.5h0Z"/>
            <path class="cls-8" d="M119.04,260.21c3.33-.28,10.55-1.12,13.99-1.22,1.45-.04,2.74.82,3.1,2.07.7,2.44.69,7.32.64,11.83-.01,1.35-1.24,2.45-2.75,2.46l-12.67.07c-1.56,0-2.87-1.03-3.03-2.41l-1.28-10.61c-.13-1.1.77-2.09,2-2.19Z"/>
            <g class="cls-13">
              <path class="cls-10" d="M149.77,263.83c-.72,0-1.15.56-.96,1.25l1.5,5.36c.19.69.94,1.25,1.67,1.24l79.8-1.22c.72-.01,1.29-.61,1.26-1.33l-.12-3.29c-.03-.72-.64-1.32-1.36-1.32l-81.79-.69Z"/>
            </g>
          </g>
          <path class="cls-5" d="M182.55,47.39c-5.03-3.63-9.45-3.63-12.58-2.77-2.86.79-4.74,3.5-4.52,6.46l1.09,14.68,15.96,1.69s9.92-12.95.06-20.06ZM175.32,59.1c-2.2-.04-3.95-1.85-3.92-4.05.04-2.2,1.85-3.95,4.05-3.92,2.2.04,3.95,1.85,3.92,4.05-.04,2.2-1.85,3.95-4.05,3.92Z"/>
          <path class="cls-10" d="M167.96,59.98c-.28-.11-.48-.36-.5-.68l-.17-2.34c-.03-.44.29-.82.73-.85.44-.03.82.29.85.73l.17,2.34c.03.44-.29.82-.73.85-.12,0-.24,0-.34-.05ZM167.62,55.39c-.28-.11-.48-.36-.5-.68l-.13-1.78c-.22-3.01,1.71-5.77,4.61-6.57,1.98-.55,4.01-.6,6.04-.15.42.1.7.52.6.95-.09.43-.52.7-.94.6-1.77-.4-3.55-.35-5.28.13-2.17.6-3.62,2.67-3.45,4.93l.13,1.78c.03.44-.29.82-.73.85-.12,0-.24,0-.34-.05Z"/>
          <path class="cls-4" d="M144.56,74.87l.13-7.37c.04-2.54,2.19-4.55,4.73-4.42l50.79,2.61c2.25.12,4.05,1.93,4.15,4.18l.3,7.09-60.09-2.09Z"/>
          <path class="cls-10" d="M163.67,66.04h0l-2.19-.04c-.18,0-.33-.15-.32-.33,0-.18.15-.32.33-.32h0l2.19.04c.18,0,.33.15.32.33,0,.18-.15.32-.33.32Z"/>
          <path class="cls-10" d="M147.08,72.95c-.3-.12-.51-.41-.51-.75l.05-2.98c.02-1.22.52-2.37,1.4-3.22.88-.85,2.04-1.31,3.26-1.29l8.03.14c.44,0,.79.37.78.81,0,.44-.37.79-.81.78l-8.03-.14c-1.65-.03-3.02,1.29-3.05,2.95l-.05,2.98c0,.44-.37.79-.81.78-.1,0-.19-.02-.27-.05Z"/>
          <path class="cls-2" d="M128.69,71.9l88.86,1.51c3.2.05,5.89,2.4,6.38,5.56l.07.44c.54,3.46-2.17,6.57-5.67,6.51l-91.17-1.55c-2.09-.04-3.73-1.82-3.6-3.91l.27-4.08c.17-2.55,2.31-4.52,4.86-4.48Z"/>
        </g>
        <g>
          <g>
            <g>
              <path class="cls-3" d="M186.98,191.79c-.57,20.34-2.42,90.5-1.54,115.37.09,2.63,2.48,4.75,5.45,4.83,14.72.43,68.66,1.51,92.73.61,5.01-.19,9-3.78,9.1-8.22.5-21.35,1.6-81.4-1.02-108.91-.31-3.3-3.24-5.92-6.95-6.25-16.03-1.42-70.2-4.89-91-3.69-3.75.22-6.69,2.94-6.78,6.26Z"/>
              <path class="cls-1" d="M193.54,196.53c-.79,4.75-3.29,20.57-2.5,26.42.12.85,2.74,1.55,6.07,1.6,13.71.21,60.5.66,80.62.25,3.62-.07,6.46-.83,6.66-1.76,1.02-4.85,3.95-19.58,3.19-25.36-.12-.92-2.91-1.68-6.49-1.76-14.84-.34-64.55-1.15-81.65-.91-3.21.04-5.76.7-5.9,1.53Z"/>
              <path class="cls-11" d="M281.34,200.66c-.73-.75-1.73-1.19-2.77-1.2l-77.07-1.22c-2.06-.03-3.8,1.53-3.99,3.58l-1.6,17.1c-.13,1.4,2.17,2.58,5.11,2.61l75.77.92c2.93.04,5.36-1.08,5.38-2.48l.29-16.49c.02-1.05-.38-2.06-1.11-2.81Z"/>
            </g>
            <g>
              <rect class="cls-16" x="194.27" y="236.03" width="17.7" height="11.15" rx="5.51" ry="5.51"/>
              <rect class="cls-15" x="219.19" y="236.03" width="17.7" height="11.15" rx="5.51" ry="5.51"/>
              <rect class="cls-21" x="243.12" y="236.03" width="17.7" height="11.15" rx="5.51" ry="5.51"/>
              <path class="cls-38" d="M284.91,242.27c0,3.09-2.51,5.6-5.6,5.6h-6.48c-3.09,0-5.6-2.51-5.6-5.6h0c0-3.09,2.51-5.6,5.6-5.6h6.48c3.09,0,5.6,2.51,5.6,5.6h0Z"/>
            </g>
            <g>
              <rect class="cls-23" x="194.27" y="253.41" width="17.7" height="11.15" rx="5.51" ry="5.51"/>
              <rect class="cls-22" x="219.19" y="253.41" width="17.7" height="11.15" rx="5.51" ry="5.51"/>
              <rect class="cls-20" x="243.12" y="253.41" width="17.7" height="11.15" rx="5.51" ry="5.51"/>
              <rect class="cls-47" x="267.71" y="253.41" width="17.7" height="11.15" rx="5.51" ry="5.51"/>
            </g>
            <g>
              <rect class="cls-25" x="194.27" y="269.47" width="17.7" height="11.15" rx="5.51" ry="5.51"/>
              <rect class="cls-26" x="219.19" y="269.47" width="17.7" height="11.15" rx="5.51" ry="5.51"/>
              <rect class="cls-24" x="243.12" y="269.47" width="17.7" height="11.15" rx="5.51" ry="5.51"/>
            </g>
            <g>
              <rect class="cls-19" x="194.27" y="286.19" width="17.7" height="11.15" rx="5.51" ry="5.51"/>
              <rect class="cls-17" x="219.19" y="286.19" width="17.7" height="11.15" rx="5.51" ry="5.51"/>
              <rect class="cls-18" x="243.12" y="286.19" width="17.7" height="11.15" rx="5.51" ry="5.51"/>
            </g>
            <rect class="cls-39" x="268.7" y="270.13" width="14.43" height="27.21" rx="6.97" ry="6.97"/>
          </g>
          <g class="cls-62">
            <path class="cls-10" d="M273.62,203.08c0,.63-.51,1.15-1.15,1.15h-3.61c-.63,0-1.15-.51-1.15-1.15h0c0-.63.51-1.15,1.15-1.15h3.61c.63,0,1.15.51,1.15,1.15h0Z"/>
            <path class="cls-10" d="M273.62,219.47c0,.63-.51,1.15-1.15,1.15h-3.61c-.63,0-1.15-.51-1.15-1.15h0c0-.63.51-1.15,1.15-1.15h3.61c.63,0,1.15.51,1.15,1.15h0Z"/>
            <path class="cls-10" d="M268.37,210.29c0,.63-.51,1.15-1.15,1.15h0c-.63,0-1.15-.51-1.15-1.15v-3.61c0-.63.51-1.15,1.15-1.15h0c.63,0,1.15.51,1.15,1.15v3.61Z"/>
            <path class="cls-10" d="M268.37,216.85c0,.63-.51,1.15-1.15,1.15h0c-.63,0-1.15-.51-1.15-1.15v-3.61c0-.63.51-1.15,1.15-1.15h0c.63,0,1.15.51,1.15,1.15v3.61Z"/>
            <path class="cls-10" d="M276.24,210.29c0,.63-.51,1.15-1.15,1.15h0c-.63,0-1.15-.51-1.15-1.15v-3.61c0-.63.51-1.15,1.15-1.15h0c.63,0,1.15.51,1.15,1.15v3.61Z"/>
            <path class="cls-10" d="M276.24,216.85c0,.63-.51,1.15-1.15,1.15h0c-.63,0-1.15-.51-1.15-1.15v-3.61c0-.63.51-1.15,1.15-1.15h0c.63,0,1.15.51,1.15,1.15v3.61Z"/>
          </g>
        </g>
        <g>
          <g>
            <circle class="cls-40" cx="167.34" cy="123.47" r="11.73" transform="translate(-39.92 106.42) rotate(-31.72)"/>
            <circle class="cls-53" cx="167.34" cy="123.47" r="11.34"/>
            <path class="cls-10" d="M157.99,119.09s-.1-.01-.15-.04c-.16-.08-.23-.28-.14-.44,1.85-3.66,5.54-5.94,9.64-5.94.65,0,1.31.06,1.95.18.18.03.3.2.26.38-.03.18-.2.3-.38.26-.6-.11-1.21-.16-1.83-.16-3.85,0-7.32,2.14-9.06,5.58-.06.11-.17.18-.29.18Z"/>
            <circle class="cls-9" cx="167.59" cy="123.72" r="9.6" transform="translate(8.67 258.4) rotate(-76.72)"/>
            <path class="cls-42" d="M166.64,130.85v-1.04c-1.09-.04-2.16-.3-2.93-.64-.27-.12-.41-.43-.33-.71l.27-.97c.1-.36.49-.54.83-.4.76.32,1.7.57,2.7.57s1.83-.36,1.83-1.08c0-.66-.6-1.05-2.06-1.44-2.08-.57-3.57-1.47-3.57-3.3,0-1.65,1.21-2.91,3.3-3.25v-1.04c0-.34.27-.61.61-.61h.61c.34,0,.61.27.61.61v.94c1.01.04,1.74.21,2.32.42.3.1.46.43.38.73l-.24.9c-.09.35-.46.54-.8.41-.54-.2-1.29-.41-2.28-.41-1.24,0-1.6.52-1.6.98,0,.57.75.96,2.36,1.46,2.31.69,3.27,1.65,3.27,3.38,0,1.58-1.17,3-3.45,3.36v1.17c0,.34-.27.61-.61.61h-.61c-.34,0-.61-.27-.61-.61Z"/>
          </g>
          <g>
            <circle class="cls-54" cx="200.73" cy="109.56" r="20.42" transform="translate(55.18 285.95) rotate(-79.1)"/>
            <circle class="cls-52" cx="200.73" cy="109.56" r="19.74" transform="translate(47.97 279.75) rotate(-76.72)"/>
            <path class="cls-10" d="M184.45,101.69s-.1-.01-.15-.04c-.16-.08-.23-.28-.14-.44,3.18-6.29,9.52-10.2,16.57-10.2,1.13,0,2.25.1,3.35.3.18.03.3.2.26.38-.03.18-.2.3-.38.26-1.06-.19-2.14-.29-3.23-.29-6.8,0-12.92,3.77-15.98,9.84-.06.11-.17.18-.29.18Z"/>
            <circle class="cls-9" cx="201.16" cy="109.99" r="16.71" transform="translate(-4.78 9.23) rotate(-2.6)"/>
            <path class="cls-41" d="M199.52,122.41v-1.82c-1.89-.08-3.77-.52-5.1-1.11-.48-.21-.72-.74-.58-1.24l.46-1.69c.17-.62.84-.94,1.44-.69,1.32.55,2.95.99,4.71.99s3.19-.62,3.19-1.89c0-1.14-1.05-1.82-3.59-2.51-3.62-.99-6.22-2.57-6.22-5.75,0-2.88,2.1-5.07,5.75-5.66v-1.82c0-.58.47-1.06,1.06-1.06h1.07c.58,0,1.06.47,1.06,1.06v1.63c1.75.07,3.03.37,4.04.73.52.18.8.74.66,1.27l-.42,1.57c-.16.6-.81.93-1.39.71-.93-.35-2.25-.72-3.96-.72-2.17,0-2.78.9-2.78,1.7,0,.99,1.3,1.67,4.11,2.54,4.02,1.21,5.69,2.88,5.69,5.88,0,2.75-2.04,5.23-6,5.85v2.03c0,.58-.47,1.06-1.06,1.06h-1.07c-.58,0-1.06-.47-1.06-1.06Z"/>
          </g>
          <g>
            <circle class="cls-55" cx="214.81" cy="155.17" r="21.01" transform="translate(8.49 321.45) rotate(-74.71)"/>
            <circle class="cls-46" cx="214.81" cy="155.17" r="20.31" transform="translate(-31.67 252.48) rotate(-57.39)"/>
            <path class="cls-10" d="M198.06,147.06s-.1-.01-.15-.04c-.16-.08-.23-.28-.14-.44,3.27-6.47,9.8-10.49,17.04-10.49,1.16,0,2.31.1,3.44.31.18.03.3.2.26.38-.03.18-.2.3-.38.26-1.09-.2-2.21-.3-3.32-.3-7,0-13.3,3.88-16.46,10.13-.06.11-.17.18-.29.18Z"/>
            <circle class="cls-9" cx="215.25" cy="155.61" r="17.19" transform="translate(-4.34 305.03) rotate(-70.1)"/>
            <path class="cls-44" d="M213.56,168.39v-1.87c-1.95-.08-3.88-.54-5.25-1.14-.49-.21-.74-.76-.6-1.28l.48-1.74c.17-.64.87-.97,1.48-.71,1.36.57,3.04,1.02,4.85,1.02s3.28-.64,3.28-1.94c0-1.18-1.08-1.88-3.69-2.58-3.72-1.02-6.4-2.64-6.4-5.92,0-2.96,2.16-5.22,5.92-5.82v-1.87c0-.6.49-1.09,1.09-1.09h1.1c.6,0,1.09.49,1.09,1.09v1.68c1.8.07,3.12.38,4.16.75.53.19.83.76.68,1.31l-.44,1.61c-.17.62-.83.96-1.43.73-.96-.36-2.32-.74-4.08-.74-2.23,0-2.86.92-2.86,1.75,0,1.02,1.34,1.72,4.23,2.61,4.14,1.24,5.86,2.96,5.86,6.05,0,2.83-2.1,5.38-6.17,6.02v2.09c0,.6-.49,1.09-1.09,1.09h-1.1c-.6,0-1.09-.49-1.09-1.09Z"/>
          </g>
          <g>
            <circle class="cls-43" cx="241.76" cy="126.55" r="15.39" transform="translate(82.9 348.42) rotate(-82.03)"/>
            <circle class="cls-45" cx="241.76" cy="126.55" r="14.88" transform="translate(51.72 322.37) rotate(-73.49)"/>
            <path class="cls-10" d="M229.49,120.7s-.1-.01-.15-.04c-.16-.08-.23-.28-.14-.44,2.41-4.77,7.22-7.74,12.56-7.74.85,0,1.71.08,2.54.23.18.03.3.2.26.38-.03.18-.2.3-.38.26-.79-.14-1.61-.22-2.42-.22-5.09,0-9.68,2.83-11.98,7.38-.06.11-.17.18-.29.18Z"/>
            <circle class="cls-9" cx="242.08" cy="126.87" r="12.6" transform="translate(-27.87 169.59) rotate(-36.65)"/>
            <path class="cls-49" d="M240.85,136.24v-1.37c-1.43-.06-2.84-.39-3.84-.83-.36-.16-.54-.56-.44-.94l.35-1.28c.13-.47.64-.71,1.08-.52,1,.42,2.22.75,3.55.75s2.4-.47,2.4-1.42c0-.86-.79-1.38-2.71-1.89-2.73-.75-4.69-1.94-4.69-4.34,0-2.17,1.59-3.82,4.34-4.27v-1.37c0-.44.36-.8.8-.8h.81c.44,0,.8.36.8.8v1.23c1.32.05,2.28.28,3.05.55.39.14.61.56.5.96l-.32,1.18c-.12.46-.61.7-1.05.54-.7-.27-1.7-.54-2.99-.54-1.63,0-2.1.68-2.1,1.28,0,.75.98,1.26,3.1,1.91,3.03.91,4.29,2.17,4.29,4.43,0,2.08-1.54,3.94-4.52,4.41v1.53c0,.44-.36.8-.8.8h-.81c-.44,0-.8-.36-.8-.8Z"/>
          </g>
        </g>
        <g>
          <path class="cls-48" d="M84.69,305.93s-.59,3.35-.88,6.67c-.11,1.3.89,2.42,2.19,2.48,4.42.18,13.86.54,17.25.39.51-.02.84-.54.65-1.02-.16-.4-.46-.72-.85-.9l-15.61-7.17-2.76-.45Z"/>
          <path class="cls-50" d="M84.21,303.96l.48,4.01s2.73,1.27,4.6-.16l-1.13-4.47-3.94.62Z"/>
          <path class="cls-56" d="M84.56,228.62c-.21,1.05-1.1,52.23,4.37,75.16.09.37-.1.76-.46.91-.84.34-2.48.84-4.46.91-.61.02-1.16-.38-1.33-.96-1.56-5.32-9.06-31.98-10.03-57.45-1.09-28.46,0-.97,0-.97l.64-17.59h11.27Z"/>
          <path class="cls-51" d="M66.74,307.68s-.94,1.69-1.85,6.19c-.16.81.4,1.59,1.23,1.67,1.46.14,3.7.33,5.5.32.83,0,1.48-.73,1.38-1.55-.2-1.64-.82-4.33-2.74-6.43l-3.51-.19Z"/>
          <path class="cls-57" d="M65.91,302.52l1.11,6.06s1.1.82,3.27.22l-.53-6.52-3.85.24Z"/>
          <path class="cls-29" d="M62.91,230.19c-4.47,27,.97,66.74,2.81,74.52.11.48.5.84.98.92.82.14,2.17.25,3.5-.14.46-.13.78-.55.8-1.02.25-6.29-.2-44.89,3.97-60.14.21-.77.68-1.45,1.34-1.91l8.09-5.75.62-9.3-22.11,2.83Z"/>
          <g>
            <path class="cls-30" d="M91.42,179.02c-13.41-.22-28.2,3.52-28.2,3.52-4,23.32-.7,50.22-.7,50.22,10.38,2.72,22.09-1.66,22.09-1.66,1.73-9.75,9.78-37.18,9.78-37.18,6.55-.81,11.95-2.7,16.39-5.2-3.39-3.93-4.99-8.93-5.68-11.89-4.74,1.47-9.54,2.26-13.67,2.19Z"/>
            <path class="cls-31" d="M131.03,159.27c-1.32-1.59-2.98-.84-2.98-.84-1.97,8.33-12.32,15.09-22.95,18.4.69,2.96,2.29,7.96,5.68,11.89,17.64-9.92,20.25-29.44,20.25-29.44Z"/>
          </g>
          <g>
            <path class="cls-28" d="M130.71,159.68c.14.44-1.46,1.11-2.4-.69-.03-.86-.56-4.54-.04-5.24,2.73-3.73,8.03-8.4,8.03-8.4.9.88.16,1.75.16,1.75l-2.57,2.68c.54.97,1.19,1.79,1.5,2.97.23.89.09,1.84-.36,2.65-.45.81-1.07,1.87-1.65,2.7-1.1,1.57-2.67,1.58-2.67,1.58Z"/>
            <path class="cls-36" d="M132.76,151.52l-2.34,1.99-.74,1.98,2.09,2.32s.7-3.92,1.22-4.77c.52-.85.25-1.26-.23-1.51Z"/>
          </g>
          <path class="cls-34" d="M68.36,195.53l-5.14-12.98s-12.52,8.51-14.58,19.3c2.37.17,6.67.79,10.89,2.92.93-5.09,8.84-9.23,8.84-9.23Z"/>
          <path class="cls-37" d="M79.31,207.74s-14.06,7.95-18.81,1.16c-.99-1.41-1.22-2.81-.98-4.14-4.22-2.13-8.52-2.74-10.89-2.92-.62,3.25-.29,6.71,1.62,10.21,8.31,15.2,30.91-.84,30.91-.84l-1.86-3.47Z"/>
          <g>
            <path class="cls-27" d="M77.62,217.8l7.67-26.8c.09-.3.35-.53.66-.56,1.39-.16,5.42-.62,10.07-1.01,5.6-.47,12.11-.86,16-.53.55.05.89.63.64,1.13-2.21,4.47-11.31,22.67-15.86,28.63-.15.2-.38.31-.63.31l-17.81-.17c-.52,0-.89-.5-.75-1Z"/>
            <path class="cls-35" d="M96.82,187.1l5.56-.93c.3-.05.54.23.44.52l-.55,1.67c-.05.15-.17.25-.33.27l-5.35.72c-.28.04-.51-.21-.44-.49l.34-1.46c.04-.16.16-.28.32-.3Z"/>
            <path class="cls-33" d="M92.65,191.81l.46-2.39c.05-.24.24-.42.49-.45l11.24-1.14c.38-.04.68.31.59.68l-.71,2.98c-.06.24-.26.41-.51.42l-10.98.55c-.36.02-.64-.3-.57-.66Z"/>
            <path class="cls-32" d="M79.47,211.32s-1.07-4.4-.64-5.96c.43-1.56,1.27-3.56,4.05-3.12,2.78.45,6.07,1.62,6.07,1.62,0,0-.17,2.03-2.28,1.38l1.31,1.02s-.19,1.63-1.98.76l1.22,1.35s-.77,1.34-2.08.48c-1.32-.86-1.95,3.01-5.68,2.48Z"/>
          </g>
          <path class="cls-59" d="M77.84,168.14l-4.27,12.34c-.07.2.01.43.2.54,1.16.64,5.35,2.5,10.4-.7.53-.33.88-.88.96-1.5l1.38-10.68h-8.68Z"/>
          <g>
            <path class="cls-60" d="M88.85,157.19c.1.19,1.7,14.39,1.7,14.39l-8.12.75-3.52-13.22s8.34-5.15,9.94-1.91Z"/>
            <path class="cls-61" d="M81.56,161.44l1.31,7.11c.02.09.04.18.09.26.25.51,1.24,2.2,2.9,1.08,1.51-1.01,2.91-1.91,4.07-1.94.52,0,.96.38,1.02.9.15,1.29.42,4.2.27,6.77-.03.52-.46.93-.98.94-1.57.05-4.89.06-7.56-.56-.36-.08-.65-.35-.75-.71-.49-1.74-1.98-7.04-2.63-8.45-.61-1.32-2.56-1.6-3.39-1.66-.27-.02-.52-.15-.7-.36-.62-.74-1.72-2.56.5-4.17.46-.34.56-.99.2-1.44-.7-.9-1.36-2.42.28-3.9,1.67-1.51,3.46-.94,4.53-.35.43.24.96.12,1.27-.25.18-.22.45-.36.87-.25.57.14,1.13-.26,1.21-.84.16-1.11.77-2.45,2.79-2.74,3.58-.52,5.18,3.11,5.01,5.6-.18,2.49-4.09,2.84-6.28,2.32-1.66-.39-3.18,1.08-3.81,1.8-.2.23-.28.54-.23.84Z"/>
            <path class="cls-58" d="M79.81,169.43s.13-4.36-1.62-4.85c-1.74-.49-3.7.7-2.32,3.37,1.72,3.33,3.93,1.48,3.93,1.48Z"/>
          </g>
        </g>
      </g>
    </g>
  </g>
</svg>