<?xml version="1.0" encoding="UTF-8"?>
<svg id="Layer_1" xmlns="http://www.w3.org/2000/svg" viewBox="0 0 360 360">
  <defs>
    <style>
      .cls-1 {
        fill: #9a4b4e;
      }

      .cls-2 {
        fill: #fabca7;
      }

      .cls-3 {
        fill: #ebebeb;
      }

      .cls-4, .cls-5, .cls-6, .cls-7 {
        fill: #6d58a5;
      }

      .cls-4, .cls-8 {
        opacity: .8;
      }

      .cls-5 {
        opacity: .9;
      }

      .cls-6, .cls-9 {
        opacity: .2;
      }

      .cls-10, .cls-11, .cls-12, .cls-13, .cls-14, .cls-15, .cls-16, .cls-17 {
        fill: #455b64;
      }

      .cls-18 {
        fill: #263238;
      }

      .cls-19 {
        fill: #f1f0f0;
      }

      .cls-11 {
        font-size: 6.15px;
        letter-spacing: .05em;
      }

      .cls-11, .cls-12, .cls-13, .cls-14, .cls-15, .cls-16, .cls-17 {
        font-family: Rubik-Bold, Rubik;
        font-weight: 700;
      }

      .cls-20 {
        fill: #fff;
      }

      .cls-21 {
        opacity: .7;
      }

      .cls-22 {
        opacity: .45;
      }

      .cls-23 {
        opacity: .35;
      }

      .cls-24 {
        opacity: .55;
      }

      .cls-25 {
        opacity: .25;
      }

      .cls-26 {
        opacity: .1;
      }

      .cls-27 {
        opacity: .15;
      }

      .cls-12 {
        letter-spacing: .05em;
      }

      .cls-12, .cls-17 {
        font-size: 17.91px;
      }

      .cls-28 {
        fill: #b16669;
      }

      .cls-29 {
        letter-spacing: -.02em;
      }

      .cls-30 {
        letter-spacing: -.03em;
      }

      .cls-31 {
        fill: #fafbfb;
      }

      .cls-13 {
        font-size: 15.38px;
      }

      .cls-32 {
        letter-spacing: 0em;
      }

      .cls-14 {
        letter-spacing: .05em;
      }

      .cls-14, .cls-15 {
        font-size: 6.66px;
      }

      .cls-15 {
        letter-spacing: .05em;
      }

      .cls-16 {
        font-size: 37.18px;
      }

      .cls-33 {
        letter-spacing: .02em;
      }

      .cls-34 {
        fill: #e0e0e0;
      }

      .cls-35 {
        letter-spacing: .03em;
      }

      .cls-36 {
        letter-spacing: .05em;
      }

      .cls-37 {
        letter-spacing: .04em;
      }

      .cls-38 {
        letter-spacing: .04em;
      }
    </style>
  </defs>
  <path id="Floor" class="cls-19" d="M300.09,184.89c67.46,35.49,67.46,93.04,0,128.54-67.46,35.5-176.85,35.5-244.31,0-67.46-35.49-67.46-93.04,0-128.54,67.46-35.5,176.85-35.5,244.31,0Z"/>
  <path id="Shadow" class="cls-34" d="M298.24,246.85c19.93,11.5,19.93,30.16,0,41.66-19.93,11.51-52.24,11.51-72.16,0-19.93-11.5-19.93-30.16,0-41.66,19.93-11.51,52.24-11.51,72.16,0Z"/>
  <path id="Shadow-2" data-name="Shadow" class="cls-34" d="M27.84,271.48l2.92,1.68c.92.53,2.41.53,3.33,0l174.57-100.79c.92-.53.92-1.39,0-1.92l-2.91-1.68c-.92-.53-2.41-.53-3.33,0L27.84,269.56c-.92.53-.92,1.39,0,1.92Z"/>
  <g id="Plants">
    <g>
      <g>
        <path class="cls-7" d="M284.93,241.77s.11-12.71,3.92-22.98c3.82-10.27,10.53-17.62,17.81-19.82,7.28-2.2,14.99,5.3,8.08,11.7-6.91,6.4-19.95,14.24-22.62,33.15l-7.2-2.05Z"/>
        <path class="cls-27" d="M284.93,241.77s.11-12.71,3.92-22.98c3.82-10.27,10.53-17.62,17.81-19.82,7.28-2.2,14.99,5.3,8.08,11.7-6.91,6.4-19.95,14.24-22.62,33.15l-7.2-2.05Z"/>
      </g>
      <path class="cls-20" d="M287.95,239.85s-.06,0-.09,0c-.23-.03-.39-.24-.36-.48,3.01-21.95,16.27-34.18,22.86-37.58.21-.11.46-.02.57.18.11.21.03.46-.18.57-6.46,3.33-19.45,15.33-22.41,36.94-.03.2-.19.35-.39.36Z"/>
    </g>
    <g>
      <path class="cls-7" d="M284.33,253.96c.18-1.84.03-3.36-.38-5.15-.42-1.8-1.51-3.51-1.59-5.38-.07-1.5.87-3.2,1.93-4.22,1.1-1.05,2.55-1.78,3.29-3.1.76-1.35.59-3.02.95-4.53.39-1.66,1.45-3.15,2.88-4.06,1.43-.92,3.23-1.25,4.9-.9,1.57.32,2.96,1.2,4.39,1.9,1.49.74,3.01,1.18,4.68.91,1.78-.29,3.54-.57,5.35-.57,3.05,0,6.9,1.04,7.95,4.27.26.8.36,1.68.08,2.47-.01.03-.02.07-.04.1-.89,2.19-3.67,2.64-5.47,3.71-.49.29-1.31.71-1.5,1.31-.19.6.33,1.4.58,1.96.65,1.41,1.6,2.77,1.68,4.38.12,2.29-1.79,4.49-3.72,5.46-1.85.93-3.98,1.14-6.05,1.05-1.03-.04-2.14-.13-2.99.46-.73.51-1.08,1.43-1.19,2.31-.11.89-.03,1.79-.11,2.68-.27,2.81-2.31,5.32-4.93,6.37-2.17.87-4.66.77-6.82-.08-1.79-.7-3.33-2.86-3.68-4.74-.39-2.1-.42-4.49-.21-6.61Z"/>
      <path class="cls-20" d="M285.07,259.19s-.02,0-.03,0c-.18-.03-.31-.2-.29-.38,2.96-21.12,24.15-26.7,29.23-26.95.18,0,.35.13.36.32,0,.19-.13.35-.32.36-4.98.25-25.7,5.71-28.6,26.37-.02.18-.18.3-.36.29Z"/>
      <path class="cls-20" d="M307.75,245.91c-.07,0-.13-.03-.19-.07-.06-.05-6.22-4.8-15.17-2.34-.18.05-.37-.06-.42-.24-.05-.18.06-.37.24-.42,9.3-2.55,15.71,2.42,15.77,2.47.15.12.17.33.06.48-.07.09-.18.13-.29.13Z"/>
    </g>
  </g>
  <g id="Clouds">
    <g>
      <path class="cls-3" d="M65.32,47.3l-2.48,1.43v-6.65c-.03-6.89-3.58-9.4-8.11-6.85h0c-4.52,2.55-8.48,7.68-8.83,14.6l-.07,1.27c-.96-.75-2.24-.81-3.69.01h0c-5.07,2.63-6.1,7.35-6.36,12.33l-.03.58-4.17,2.41c-2.14,1.21-4.02,4.78-4.19,8.06-.17,3.28,1.43,5.19,3.58,3.99l33.73-19.47c2.14-1.21,4.02-4.61,4.19-7.88.17-3.28-1.43-5.02-3.58-3.81Z"/>
      <path class="cls-3" d="M105.16,57.14l-4.78,2.76c.04-.28.07-.62.08-.9l.09-1.83c.17-3.26-1.43-4.93-3.56-3.73-.86.49-1.68,1.37-2.36,2.47-.13-4.17-2.38-6.19-5.33-4.53-3.19,1.8-5.98,7.21-6.23,12.09,0,0,0,1.86,0,2.67s0,2.18.16,3.35l-3.97,2.29c-1.18.67-2.22,2.62-2.31,4.43-.09,1.81.79,2.92,1.97,2.25l25.89-14.95c1.18-.67,2.22-2.49,2.31-4.3.09-1.81-.79-2.74-1.97-2.07Z"/>
    </g>
  </g>
  <g id="Weather">
    <path class="cls-5" d="M23.99,132.17v111.15c0,.85.19,1.67.51,2.33.16.35.36.65.59.9.22.26.4.38.75.61.08.05,5.48,3.16,5.64,3.26-.04-.03-.24-.12-.58-.44-.35-.32-.61-.71-.81-1.16-.26-.62-.42-1.36-.46-2.23v-111.22c0-1.3.44-2.74,1.14-4.04l-5.62-3.24c-.71,1.32-1.16,2.77-1.16,4.08Z"/>
    <path class="cls-5" d="M23.99,132.17v111.15c0,.85.19,1.67.51,2.33.16.35.36.65.59.9.22.26.4.38.75.61.08.05,5.48,3.16,5.64,3.26-.04-.03-.24-.12-.58-.44-.35-.32-.61-.71-.81-1.16-.26-.62-.42-1.36-.46-2.23v-111.22c0-1.3.44-2.74,1.14-4.04l-5.62-3.24c-.71,1.32-1.16,2.77-1.16,4.08Z"/>
    <path class="cls-7" d="M210.54,30.99v112.29c0,2.83-1.99,6.24-4.42,7.65L34.05,250.28c-.51.29-1.01.43-1.46.42-.19,0-.38-.03-.56-.07-.13-.03-.26-.07-.38-.13-.09-.04-.16-.09-.23-.13-.09-.06-.17-.12-.26-.17-.09-.07-.17-.13-.25-.22-.35-.32-.61-.71-.81-1.16-.29-.65-.46-1.42-.46-2.23v-111.22c0-2.81,1.99-6.24,4.42-7.65L206.12,28.44c1.14-.65,2.17-.75,2.97-.38.13.06.26.13.38.22.01.01.03.03.03.03.12.09.2.17.29.29.06.04.09.1.13.16.06.07.12.14.15.23.12.17.2.36.26.57.04.12.09.25.1.39.01.03.03.06.01.09.04.13.06.26.07.41.01.17.03.36.03.55Z"/>
    <g class="cls-21">
      <path class="cls-20" d="M210.54,30.99v112.29c0,2.83-1.99,6.24-4.42,7.65L34.05,250.28c-.51.29-1.01.43-1.46.42-.19,0-.38-.03-.56-.07-.13-.03-.26-.07-.38-.13-.09-.04-.16-.09-.23-.13-.09-.06-.17-.12-.26-.17-.09-.07-.17-.13-.25-.22-.35-.32-.61-.71-.81-1.16-.29-.65-.46-1.42-.46-2.23v-111.22c0-2.81,1.99-6.24,4.42-7.65L206.12,28.44c1.14-.65,2.17-.75,2.97-.38.13.06.26.13.38.22.01.01.03.03.03.03.12.09.2.17.29.29.06.04.09.1.13.16.06.07.12.14.15.23.12.17.2.36.26.57.04.12.09.25.1.39.01.03.03.06.01.09.04.13.06.26.07.41.01.17.03.36.03.55Z"/>
    </g>
    <path class="cls-7" d="M203.69,24.99c-.81-.49-1.94-.48-3.2.26L28.4,124.53c-.32.18-.63.4-.92.65-.05.04-.09.09-.14.13-.25.22-.5.45-.73.71-.02.02-.04.05-.06.07-.53.6-1,1.27-1.39,2,0,0,0,0,0,0l5.62,3.24c.39-.73.86-1.42,1.4-2.02.02-.03.05-.06.07-.08.23-.26.48-.49.73-.71.05-.04.1-.1.15-.14.3-.25.61-.47.92-.65,0,0,0,0,0,0L206.12,28.44c1.14-.65,2.17-.75,2.97-.38-.94-.49-4.61-2.59-5.4-3.07Z"/>
    <g class="cls-8">
      <path class="cls-20" d="M203.69,24.99c-.81-.49-1.94-.48-3.2.26L28.4,124.53c-.32.18-.63.4-.92.65-.05.04-.09.09-.14.13-.25.22-.5.45-.73.71-.02.02-.04.05-.06.07-.53.6-1,1.27-1.39,2,0,0,0,0,0,0l5.62,3.24c.39-.73.86-1.42,1.4-2.02.02-.03.05-.06.07-.08.23-.26.48-.49.73-.71.05-.04.1-.1.15-.14.3-.25.61-.47.92-.65,0,0,0,0,0,0L206.12,28.44c1.14-.65,2.17-.75,2.97-.38-.94-.49-4.61-2.59-5.4-3.07Z"/>
    </g>
    <polygon class="cls-6" points="25.15 128.08 25.15 128.08 25.15 128.08 25.15 128.08"/>
    <g>
      <path class="cls-10" d="M40.57,131.98s0,0,0,0c-.01,0-.02-.01-.03-.02-.51-.29-1.19-.25-1.94.18-1.13.65-2.11,2.02-2.57,3.46-.18.57-.26.87-.26,1.42v.44c0,1.49,1.67,3.5,2.45,4.22.02.02.04.03.06.04,0,0,0,0,0,0,.19.12.44.05.54-.16.67-1.38,2.63-5.52,2.63-7.13v-.44c0-1-.34-1.7-.88-2.03ZM37.52,136.75s-.01-.06-.02-.09c-.02-.08-.02-.17-.02-.26,0-.83.58-1.85,1.31-2.26.08-.05.16-.08.24-.11.07-.02.13-.04.19-.05.51-.09.87.26.87.92,0,.83-.58,1.85-1.31,2.26-.61.35-1.12.17-1.26-.4Z"/>
      <path class="cls-4" d="M44.29,132.43c0,.75.56,1.04,1.26.64l11.68-6.74c.7-.4,1.26-1.34,1.26-2.1,0-.75-.56-1.04-1.26-.64l-11.68,6.74c-.7.4-1.26,1.34-1.26,2.1Z"/>
      <path class="cls-9" d="M44.29,132.43c0,.75.56,1.04,1.26.64l11.68-6.74c.7-.4,1.26-1.34,1.26-2.1,0-.75-.56-1.04-1.26-.64l-11.68,6.74c-.7.4-1.26,1.34-1.26,2.1Z"/>
      <path class="cls-7" d="M45.05,135.66l8.92-5.19c.42-.24.76-.07.76.38s-.34,1.02-.76,1.26l-8.92,5.19c-.42.24-.76.07-.76-.38s.34-1.02.76-1.26Z"/>
      <g>
        <path class="cls-31" d="M95.71,168.11l-1.77.99v-4.2c0-3.1-2.47-3.83-5.15-2.27h0c-2.68,1.56-4.86,5.34-4.86,8.43v.57c-.61-.24-1.39-.14-2.25.36h0c-1.93,1.12-3.5,3.84-3.5,6.07v.26l-2.47,1.44c-1.27.74-2.3,2.53-2.3,4s1.03,2.06,2.3,1.32l20.01-11.63c1.27-.74,2.3-2.53,2.3-4s-1.03-2.06-2.3-1.32Z"/>
        <path class="cls-2" d="M85.26,164.66c-1.29,1.79-2.12,3.98-2.16,5.98-.61-.03-1.29.17-1.96.56-1.26.73-2.36,2.05-3.04,3.51-1.35-.19-2.25-1.39-2.25-3.36,0-3.02,2.15-6.71,4.79-8.23,2.27-1.31,4.15-.6,4.63,1.54Z"/>
      </g>
      <text class="cls-16" transform="translate(38.49 176.47) rotate(-30) scale(.75 .87) skewX(-33.69)"><tspan class="cls-32" x="0" y="0">2</tspan><tspan x="24.02" y="0">4°C</tspan></text>
      <path class="cls-7" d="M35.77,184.78c-.13,0-.26-.07-.33-.19-.11-.18-.04-.42.14-.52l65.54-37.84c.18-.11.42-.04.52.14.11.18.04.42-.14.52l-65.54,37.84c-.06.04-.13.05-.19.05Z"/>
      <text class="cls-11" transform="translate(54.53 184.41) rotate(-30) scale(.75 .87) skewX(-33.69)"><tspan x="0" y="0">27°C</tspan></text>
      <text class="cls-11" transform="translate(54.53 195.22) rotate(-30) scale(.75 .87) skewX(-33.69)"><tspan x="0" y="0">11°C</tspan></text>
      <text class="cls-14" transform="translate(55.57 208.17) rotate(-30) scale(.75 .87) skewX(-33.69)"><tspan x="0" y="0">75%</tspan></text>
      <text class="cls-15" transform="translate(78.69 194.78) rotate(-30) scale(.75 .87) skewX(-33.69)"><tspan x="0" y="0">15 km/h</tspan></text>
      <text class="cls-11" transform="translate(42.05 191.62) rotate(-30) scale(.75 .87) skewX(-33.69)"><tspan x="0" y="0">MAX</tspan></text>
      <text class="cls-11" transform="translate(42.05 202.43) rotate(-30) scale(.75 .87) skewX(-33.69)"><tspan x="0" y="0">MIN</tspan></text>
      <g>
        <g>
          <path class="cls-7" d="M51.2,207.64l-.73.41v-1.73c0-1.28-1.02-1.58-2.12-.94h0c-1.11.64-2,2.2-2,3.47v.23c-.25-.1-.57-.06-.93.15h0c-.8.46-1.44,1.58-1.44,2.5v.11l-1.02.59c-.52.3-.95,1.04-.95,1.65s.42.85.95.54l8.24-4.79c.52-.3.95-1.04.95-1.65s-.42-.85-.95-.54Z"/>
          <g>
            <path class="cls-7" d="M44.88,216.21s0,0,0,0c0,0,0,0,0,0,.08.07.18.08.29.02.17-.1.32-.35.39-.62.03-.11.04-.17.04-.28v-.09c0-.3-.25-.75-.37-.92,0,0,0,0,0-.01,0,0,0,0,0,0-.03-.03-.07-.02-.08.02-.1.26-.4,1.03-.4,1.36v.09c0,.2.05.35.13.43Z"/>
            <path class="cls-7" d="M47.44,214.73s0,0,0,0c0,0,0,0,0,0,.08.07.18.08.29.02.17-.1.32-.35.39-.62.03-.11.04-.17.04-.28v-.09c0-.3-.25-.75-.37-.92,0,0,0,0,0-.01,0,0,0,0,0,0-.03-.03-.07-.02-.08.02-.1.26-.4,1.03-.4,1.36v.09c0,.2.05.35.13.43Z"/>
            <path class="cls-7" d="M49.99,213.25h0s0,0,0,0c.08.07.18.08.29.02.17-.1.32-.35.39-.62.03-.11.04-.17.04-.28v-.09c0-.3-.25-.75-.37-.92,0,0,0,0,0-.01,0,0,0,0,0,0-.03-.03-.07-.02-.08.02-.1.26-.4,1.03-.4,1.36v.09c0,.2.05.35.13.43Z"/>
          </g>
        </g>
        <g class="cls-26">
          <path d="M51.2,207.64l-.73.41v-1.73c0-1.28-1.02-1.58-2.12-.94h0c-1.11.64-2,2.2-2,3.47v.23c-.25-.1-.57-.06-.93.15h0c-.8.46-1.44,1.58-1.44,2.5v.11l-1.02.59c-.52.3-.95,1.04-.95,1.65s.42.85.95.54l8.24-4.79c.52-.3.95-1.04.95-1.65s-.42-.85-.95-.54Z"/>
          <g>
            <path d="M44.88,216.21s0,0,0,0c0,0,0,0,0,0,.08.07.18.08.29.02.17-.1.32-.35.39-.62.03-.11.04-.17.04-.28v-.09c0-.3-.25-.75-.37-.92,0,0,0,0,0-.01,0,0,0,0,0,0-.03-.03-.07-.02-.08.02-.1.26-.4,1.03-.4,1.36v.09c0,.2.05.35.13.43Z"/>
            <path d="M47.44,214.73s0,0,0,0c0,0,0,0,0,0,.08.07.18.08.29.02.17-.1.32-.35.39-.62.03-.11.04-.17.04-.28v-.09c0-.3-.25-.75-.37-.92,0,0,0,0,0-.01,0,0,0,0,0,0-.03-.03-.07-.02-.08.02-.1.26-.4,1.03-.4,1.36v.09c0,.2.05.35.13.43Z"/>
            <path d="M49.99,213.25h0s0,0,0,0c.08.07.18.08.29.02.17-.1.32-.35.39-.62.03-.11.04-.17.04-.28v-.09c0-.3-.25-.75-.37-.92,0,0,0,0,0-.01,0,0,0,0,0,0-.03-.03-.07-.02-.08.02-.1.26-.4,1.03-.4,1.36v.09c0,.2.05.35.13.43Z"/>
          </g>
        </g>
      </g>
      <g>
        <g>
          <path class="cls-7" d="M71.27,199.39c-.29,0-.57-.07-.81-.21-.58-.33-.9-1.01-.9-1.92,0-1.74,1.23-3.87,2.74-4.74.78-.45,1.53-.52,2.11-.18.58.33.9,1.01.9,1.92,0,1.74-1.23,3.87-2.74,4.74-.45.26-.89.39-1.3.39ZM73.59,192.67c-.31,0-.66.11-1.03.32h0c-1.36.79-2.47,2.7-2.47,4.28,0,.7.22,1.22.63,1.45.4.23.96.17,1.57-.18,1.36-.79,2.47-2.7,2.47-4.28,0-.7-.22-1.22-.63-1.45-.16-.09-.34-.14-.54-.14ZM72.43,192.76h0,0Z"/>
          <path class="cls-7" d="M70.64,196.64l2.67-3.07c.13-.15.36-.02.31.17l-1.16,4.28-.39-1.69-1.44.32Z"/>
          <path class="cls-7" d="M72.43,191.98c-.15,0-.27-.12-.27-.27v-1c0-.15.12-.27.27-.27s.27.12.27.27v1c0,.15-.12.27-.27.27Z"/>
          <path class="cls-7" d="M72.43,201.03c-.15,0-.27-.12-.27-.27v-1c0-.15.12-.27.27-.27s.27.12.27.27v1c0,.15-.12.27-.27.27Z"/>
          <path class="cls-7" d="M75.92,194c-.09,0-.18-.05-.23-.13-.07-.13-.03-.29.1-.37l.87-.5c.13-.07.29-.03.37.1.07.13.03.29-.1.37l-.87.5s-.09.04-.13.04Z"/>
          <path class="cls-7" d="M68.08,198.53c-.09,0-.18-.05-.23-.13-.07-.13-.03-.29.1-.37l.87-.5c.13-.07.29-.03.37.1.07.13.03.29-.1.37l-.87.5s-.09.04-.13.04Z"/>
        </g>
        <g class="cls-26">
          <g>
            <path d="M71.27,199.39c-.29,0-.57-.07-.81-.21-.58-.33-.9-1.01-.9-1.92,0-1.74,1.23-3.87,2.74-4.74.78-.45,1.53-.52,2.11-.18.58.33.9,1.01.9,1.92,0,1.74-1.23,3.87-2.74,4.74-.45.26-.89.39-1.3.39ZM73.59,192.67c-.31,0-.66.11-1.03.32h0c-1.36.79-2.47,2.7-2.47,4.28,0,.7.22,1.22.63,1.45.4.23.96.17,1.57-.18,1.36-.79,2.47-2.7,2.47-4.28,0-.7-.22-1.22-.63-1.45-.16-.09-.34-.14-.54-.14ZM72.43,192.76h0,0Z"/>
            <path d="M70.64,196.64l2.67-3.07c.13-.15.36-.02.31.17l-1.16,4.28-.39-1.69-1.44.32Z"/>
            <path d="M72.43,191.98c-.15,0-.27-.12-.27-.27v-1c0-.15.12-.27.27-.27s.27.12.27.27v1c0,.15-.12.27-.27.27Z"/>
            <path d="M72.43,201.03c-.15,0-.27-.12-.27-.27v-1c0-.15.12-.27.27-.27s.27.12.27.27v1c0,.15-.12.27-.27.27Z"/>
            <path d="M75.92,194c-.09,0-.18-.05-.23-.13-.07-.13-.03-.29.1-.37l.87-.5c.13-.07.29-.03.37.1.07.13.03.29-.1.37l-.87.5s-.09.04-.13.04Z"/>
            <path d="M68.08,198.53c-.09,0-.18-.05-.23-.13-.07-.13-.03-.29.1-.37l.87-.5c.13-.07.29-.03.37.1.07.13.03.29-.1.37l-.87.5s-.09.04-.13.04Z"/>
          </g>
        </g>
      </g>
      <text class="cls-13" transform="translate(38.93 236.67) rotate(-30) scale(.56 .87) skewX(-41.63)"><tspan class="cls-36" x="0" y="0">FRI</tspan><tspan class="cls-37" x="27.42" y="0">D</tspan><tspan class="cls-30" x="38.97" y="0">A</tspan><tspan class="cls-33" x="49.52" y="0">Y</tspan></text>
    </g>
    <g>
      <path class="cls-4" d="M110.88,198.71l21.44-12.37c1.84-1.06,3.33-3.64,3.33-5.76v-100.43c0-2.12-1.49-2.98-3.33-1.92l-21.44,12.37c-1.84,1.06-3.33,3.64-3.33,5.76v100.43c0,2.12,1.49,2.98,3.33,1.92Z"/>
      <text class="cls-11" transform="translate(122.22 163.35) rotate(-30) scale(.75 .87) skewX(-33.69)"><tspan x="0" y="0">27°C</tspan></text>
      <text class="cls-11" transform="translate(122.22 174.16) rotate(-30) scale(.75 .87) skewX(-33.69)"><tspan x="0" y="0">11°C</tspan></text>
      <text class="cls-11" transform="translate(111.68 169.44) rotate(-30) scale(.75 .87) skewX(-33.69)"><tspan x="0" y="0">MAX</tspan></text>
      <text class="cls-11" transform="translate(111.68 180.25) rotate(-30) scale(.75 .87) skewX(-33.69)"><tspan x="0" y="0">MIN</tspan></text>
      <g>
        <path class="cls-31" d="M130.48,127.58l-1.57.87v-3.73c0-2.75-2.19-3.4-4.57-2.02h0c-2.38,1.38-4.31,4.74-4.31,7.49v.5c-.54-.21-1.24-.13-2,.32h0c-1.71,1-3.1,3.41-3.1,5.39v.23l-2.2,1.28c-1.13.66-2.04,2.24-2.04,3.55s.91,1.83,2.04,1.17l17.76-10.32c1.13-.66,2.04-2.24,2.04-3.55s-.91-1.83-2.04-1.17Z"/>
        <g>
          <path class="cls-31" d="M116.85,146.03s0,0,0,0c0,0,0,0,.01.01.17.16.39.18.63.04.37-.21.68-.74.83-1.34.06-.24.08-.36.08-.6v-.19c0-.65-.54-1.62-.79-1.98,0,0-.01-.02-.02-.02,0,0,0,0,0,0-.06-.06-.14-.05-.18.03-.22.55-.86,2.23-.86,2.92v.19c0,.43.11.76.29.93Z"/>
          <path class="cls-31" d="M122.36,142.84s0,0,0,0c0,0,0,0,.01.01.17.16.39.18.63.04.37-.21.68-.74.83-1.34.06-.24.08-.36.08-.6v-.19c0-.65-.54-1.62-.8-1.98,0,0-.01-.02-.02-.02,0,0,0,0,0,0-.06-.06-.14-.05-.18.03-.22.55-.85,2.23-.85,2.92v.19c0,.43.11.76.29.93Z"/>
          <path class="cls-31" d="M127.87,139.66s0,0,0,0c0,0,0,0,.01.01.17.16.39.18.63.04.37-.21.68-.74.83-1.34.06-.24.08-.36.08-.6v-.19c0-.65-.54-1.62-.8-1.98,0,0-.01-.02-.02-.02,0,0,0,0,0,0-.06-.06-.14-.05-.18.03-.22.55-.85,2.23-.85,2.92v.19c0,.43.11.76.29.93Z"/>
        </g>
      </g>
      <text class="cls-17" transform="translate(112.61 118.43) rotate(-30) scale(.56 .87) skewX(-41.63)"><tspan class="cls-38" x="0" y="0">S</tspan><tspan class="cls-29" x="12.57" y="0">A</tspan><tspan class="cls-35" x="25.02" y="0">T</tspan></text>
    </g>
    <g>
      <path class="cls-4" d="M145.21,178.88l21.44-12.37c1.84-1.06,3.33-3.64,3.33-5.76V60.31c0-2.12-1.49-2.98-3.33-1.92l-21.44,12.37c-1.84,1.06-3.33,3.64-3.33,5.76v100.43c0,2.12,1.49,2.98,3.33,1.92Z"/>
      <text class="cls-11" transform="translate(156.55 143.52) rotate(-30) scale(.75 .87) skewX(-33.69)"><tspan x="0" y="0">27°C</tspan></text>
      <text class="cls-11" transform="translate(156.55 154.33) rotate(-30) scale(.75 .87) skewX(-33.69)"><tspan x="0" y="0">11°C</tspan></text>
      <text class="cls-11" transform="translate(146.01 149.61) rotate(-30) scale(.75 .87) skewX(-33.69)"><tspan x="0" y="0">MAX</tspan></text>
      <text class="cls-11" transform="translate(146.01 160.42) rotate(-30) scale(.75 .87) skewX(-33.69)"><tspan x="0" y="0">MIN</tspan></text>
      <path class="cls-31" d="M164.81,111.36l-1.57.87v-3.73c0-2.75-2.19-3.4-4.57-2.02h0c-2.38,1.38-4.31,4.74-4.31,7.49v.5c-.54-.21-1.24-.13-2,.32h0c-1.71,1-3.1,3.41-3.1,5.39v.23l-2.2,1.28c-1.13.66-2.04,2.24-2.04,3.55s.91,1.83,2.04,1.17l17.76-10.32c1.13-.66,2.04-2.24,2.04-3.55s-.91-1.83-2.04-1.17Z"/>
      <text class="cls-12" transform="translate(146 99.13) rotate(-30) scale(.56 .87) skewX(-41.63)"><tspan x="0" y="0">SUN</tspan></text>
      <path class="cls-2" d="M155.69,108.3c-1.16,1.61-1.92,3.6-1.95,5.4-.55-.03-1.16.16-1.77.51-1.14.66-2.13,1.85-2.75,3.17-1.22-.17-2.03-1.26-2.03-3.04,0-2.73,1.94-6.05,4.33-7.43,2.05-1.18,3.75-.54,4.18,1.39Z"/>
    </g>
    <g>
      <path class="cls-4" d="M179.54,159.07l21.44-12.37c1.84-1.06,3.33-3.64,3.33-5.76V40.5c0-2.12-1.49-2.98-3.33-1.92l-21.44,12.37c-1.84,1.06-3.33,3.64-3.33,5.76v100.43c0,2.12,1.49,2.98,3.33,1.92Z"/>
      <text class="cls-11" transform="translate(190.89 123.7) rotate(-30) scale(.75 .87) skewX(-33.69)"><tspan x="0" y="0">27°C</tspan></text>
      <text class="cls-11" transform="translate(190.89 134.51) rotate(-30) scale(.75 .87) skewX(-33.69)"><tspan x="0" y="0">11°C</tspan></text>
      <text class="cls-11" transform="translate(180.34 129.78) rotate(-30) scale(.75 .87) skewX(-33.69)"><tspan x="0" y="0">MAX</tspan></text>
      <text class="cls-11" transform="translate(180.34 140.59) rotate(-30) scale(.75 .87) skewX(-33.69)"><tspan x="0" y="0">MIN</tspan></text>
      <text class="cls-12" transform="translate(179.69 79.75) rotate(-30) scale(.56 .87) skewX(-41.63)"><tspan x="0" y="0">MON</tspan></text>
      <path class="cls-2" d="M190.26,87.11c3.45-1.99,6.24-.38,6.24,3.6,0,3.98-2.79,8.82-6.24,10.81-3.45,1.99-6.24.38-6.24-3.6,0-3.98,2.79-8.82,6.24-10.81Z"/>
    </g>
  </g>
  <g id="Character">
    <g>
      <path class="cls-7" d="M225.9,54.49c6.2,1.18,12.13,6.42,15.4,11.96,12.65-.64,28.52,3.66,43.32,11.15l11.13-43.26c-24.18-4.55-47.68-.55-69.85,20.15Z"/>
      <path class="cls-23" d="M241.3,66.45c12.65-.64,28.52,3.66,43.32,11.15l11.13-43.26c-16.69-.84-40.3,11.23-54.45,32.11Z"/>
      <path class="cls-25" d="M225.9,54.49c22.17-20.7,45.67-24.7,69.85-20.15-16.69-.84-40.3,11.23-54.45,32.11-3.27-5.55-9.2-10.78-15.4-11.96Z"/>
      <path class="cls-7" d="M347.2,85.7c-6-1.96-13.72-.24-19.26,3.04-10.77-6.67-26.74-10.56-43.32-11.15l11.13-43.26c23.37,7.68,42.02,22.53,51.45,51.36Z"/>
      <path class="cls-22" d="M327.94,88.74c-10.77-6.67-26.74-10.56-43.32-11.15l11.13-43.26c15.02,7.32,29.88,29.29,32.19,54.4Z"/>
      <path class="cls-24" d="M347.2,85.7c-9.42-28.83-28.07-43.68-51.45-51.36,15.03,7.32,29.88,29.29,32.19,54.41,5.54-3.28,13.26-5,19.26-3.04Z"/>
    </g>
    <path class="cls-10" d="M293.33,43.76s.11,0,.31.03c.1,0,.22.02.37.03.1,0,.24,0,.32,0,.48-.02.35-.26.45-.49.12-.49.3-1.2.51-2.04.41-1.69.91-3.96,1.35-6.24.22-1.14.42-2.29.59-3.37.08-.54.18-1.06.24-1.56.07-.5.13-.97.19-1.4.06-.43.1-.84.14-1.19.04-.35.07-.66.09-.92.05-.51.06-.81.06-.81,0,0-.13.27-.33.74-.11.23-.23.52-.36.85-.13.33-.3.7-.45,1.11-.16.41-.33.85-.51,1.32-.19.47-.35.97-.54,1.48-.37,1.03-.75,2.13-1.11,3.23-.72,2.21-1.37,4.44-1.83,6.12-.22.84-.41,1.54-.54,2.03-.03.26-.26.4.15.65.07.05.19.11.28.16.13.06.25.11.34.15.19.09.29.13.29.13Z"/>
    <g id="Character-2" data-name="Character">
      <g>
        <path class="cls-28" d="M254.84,98.34c-4.93,1.64-6.14,2-9.56,7.32-3.28,5.1-6.66,14.53-9.59,22.1-5.43-1.54-14.74-6.56-18.42-8.97-2.87-1.88-3.41-3.3-4.96-5.15-1.57-1.86-4.45-5.94-5.12-3.42-.45,1.7,1.36,2.65,1.23,4.49-.1.98-6.02-2.74-8.36-4.37-1.55-1.09-5.15,2.32-3.71,6.01,1.28,3.27,3.32,5.34,6.99,6.89,3.88,1.64,5.9,2.46,10.77,4.64,5.08,2.28,23.71,14.1,25.78,12.8,4.72-2.33,9.04-16.93,11.9-23.24,2.86-6.31.98-12.8,3.05-19.11Z"/>
        <path class="cls-34" d="M256.04,97.73c-2.11,2.78-1.24,1.66-1.89,5.95-.53,3.46-7.8,36.78-14.39,38.16-2.89.61-21.42-11.47-26.47-14.26,1.71-2.52,3.42-5.63,4-8.81,3.04,1.66,14.18,7.24,17.93,8.41,1.74-4.84,3.86-9.81,5.85-14.7,3.79-9.3,5.93-15.91,14.98-14.76Z"/>
      </g>
      <g>
        <rect class="cls-28" x="276.94" y="248.64" width="8.19" height="15.29" transform="translate(-1.81 2) rotate(-.41)"/>
        <polygon class="cls-28" points="254.69 254.13 245.76 254.5 245.63 239.03 255.75 238.63 254.69 254.13"/>
        <path class="cls-18" d="M283.39,153.27c.05,7.45.87,50.77.87,50.77.2,2.14,2.29,5.94,2.5,13.66.31,11.2-1.65,37.6-1.65,37.6,0,0-3.3,2.17-8.22.17,0,0-6.44-37.21-7.92-48.29-1.29-9.67-4.95-34.95-4.95-34.95l-5.04,32.92s.94,5.26.52,11.89c-.33,5.13-4.39,30.65-4.39,30.65,0,0-4.08,1.92-9.43.15,0,0-1.72-39.7-1.85-44.4-.14-5.36,1.87-51.52,1.87-51.52l37.66,1.35Z"/>
        <path class="cls-18" d="M276.96,259.92s0-1.17,0-1.17c-.44,0-.71.43-.87,1.49-.11.75-.22,1.33-.46,2.32-.37,1.52-.7,2.45-1.4,4.2-1.14,2.86-2.1,3.93-4.73,7.28-.62.8-2.03,2.06-2.52,2.95-.49.88-.65,3.34.2,3.89,3.11,2.04,7.8,2.06,11.11,1.07,2.55-.77,4.38-2.82,4.78-5.45.12-.76.07-1.53.15-2.29.19-1.73,1.04-3.32,2.02-4.77.56-.84,1.18-1.66,1.55-2.6.68-1.69.11-3.58-.34-5.25-.39-1.44-.81-3.03-1.31-2.89,0,.18,0,.89,0,.89-.59.66-2.23,1.33-4.08,1.41-1.2.05-4.1-.16-4.1-1.08Z"/>
        <path class="cls-18" d="M245.74,251.54c-.46.02-.93.88-1.94,2-1.23,1.35-3.24,2.81-5.23,3.82-3.33,1.7-9.82,4.32-12.76,5.67-1.83.84-1.73,3.06.18,4.31,1.91,1.25,6.51,2.13,12.01.86,3-.69,6.89-3.49,9.36-3.36,2.48.13,7.11.06,8.92-1.21,1.82-1.27,1.07-3.96.54-6.26-.58-2.52-1.06-6.75-1.9-6.57l-.15,1.24c-1.06,1.63-8.4,2.04-9.03.48v-.98Z"/>
        <path d="M264.04,172.22s-6.98-2.22-11.64-6.66c0,0,2.12,3.91,8.39,7.52l-1.29,28.83,4.54-29.69Z"/>
      </g>
      <path class="cls-19" d="M269.97,97.6c1.64.4,6.59.81,9.5,1.64,2.14.61,2.07,3.3,2.51,5.27,1.43,6.3,1.68,19.52,1.68,19.52l.08,34.45c-5.33,3.88-27.24,5.86-38.47-2.34,0,0,1.37-40.32,1.37-46.03s3.17-12.57,11.93-13.07l11.39.56Z"/>
      <g>
        <g>
          <path class="cls-18" d="M268.09,73.04c0,5.68-4.6,10.28-10.28,10.28s-10.28-4.6-10.28-10.28,4.6-10.28,10.28-10.28,10.28,4.6,10.28,10.28Z"/>
          <path class="cls-18" d="M275.58,80.34s-1.66,7.82-2.33,9.11c-.67,1.29-2.05,1.65-2.05,1.65l.12-5.5,4.26-5.26Z"/>
          <path class="cls-18" d="M273.59,68s1.65-.1,3.05,1.33c1.37,1.4.65,6.72-1.06,11.02l-3.14.36,1.15-12.7Z"/>
          <path class="cls-28" d="M271.5,80.71c.63.38,1.53-.83,2.3-1.64.78-.81,3.31-1.92,4.57.74,1.29,2.71-1.12,6.3-3.11,6.92-3.44,1.08-3.95-1.13-3.95-1.13l-.25,12.77h0c-2.38,3.05-7.71,6.62-10.58,6.11-2.29-.41-2.79-4.28-.6-6.82v-3.77s-3.1.47-4.62.24c-2.53-.39-4.12-2.38-4.88-5.12-1.23-4.39-1.7-7.94-.65-16.58,1.14-9.47,12.16-9.57,18.11-5.82,5.95,3.74,3.68,14.1,3.68,14.1Z"/>
          <path class="cls-18" d="M248.83,68.22c.87.67,1.86,1.19,2.89,1.58,3.29,1.24,7,1.51,10.41.68.22-.05,3.24-.86,3.18-1.11.21.86.42,1.82,1.18,2.6,1.43,1.46,2.25,1.49,2.82,1.85.22,1.7.21,3.89.31,5.6.04.58.03,3.59,1.4,2.73.45-.28.87-.96,1.2-1.34.51-.59,1-1.23,1.58-1.75.4-.37.38-1.23.4-1.72.05-1.03-.02-2.06-.1-3.08-.09-1.06-.26-2.11-.36-3.17-.05-.61.25-1.16.42-1.75.18-.65.3-1.33.27-2.01-.11-2.12-1.74-3.92-3.64-4.86-2.67-1.31-5.89-1.52-8.8-1.28-2.36.19-4.65.2-7,.16-.6,0-7.15-.31-7.15-.4-.17,1.44.17,2.93.95,4.16-.69.03-1.38.06-2.07.09-.3.01.52,1.42.57,1.48.38.48.81.92,1.28,1.31.08.07.17.14.26.2Z"/>
          <path class="cls-18" d="M274.21,69.11l3.8-2.04c-.54-1.09-1.83-1.52-2.88-.95-1.05.56-1.46,1.9-.92,2.99Z"/>
          <path class="cls-1" d="M259.89,93.89s5.64-1.14,7.61-2.18c1.32-.7,2.41-1.92,2.73-2.7,0,0-.37,1.67-1.55,3.18-1.44,1.84-8.79,3.2-8.79,3.2v-1.5Z"/>
        </g>
        <g>
          <path class="cls-18" d="M260.46,78.71c0,.69.54,1.26,1.21,1.25.67,0,1.21-.57,1.21-1.26s-.54-1.26-1.21-1.25c-.67,0-1.21.57-1.21,1.26Z"/>
          <path class="cls-18" d="M261.67,74.61l2.5,1.38c.37-.72.11-1.61-.58-1.99-.69-.38-1.55-.11-1.92.61Z"/>
          <path class="cls-1" d="M260.36,86.94l-2.8,1.05c.28.8,1.13,1.22,1.9.93.77-.29,1.17-1.17.9-1.98Z"/>
          <path class="cls-18" d="M250.47,75.62l2.28-1.76c-.47-.65-1.35-.79-1.98-.3-.63.49-.76,1.41-.3,2.06Z"/>
          <path class="cls-18" d="M250.99,78.48c0,.67.52,1.21,1.17,1.21.65,0,1.17-.55,1.17-1.22s-.52-1.21-1.17-1.21c-.65,0-1.17.55-1.17,1.22Z"/>
          <polygon class="cls-1" points="257.26 77.52 256.85 84.89 253.01 83.57 257.26 77.52"/>
        </g>
        <g>
          <path class="cls-7" d="M255.87,103.68c.72,1.71,2.04,2.4,4.44,2.67,2.4.27,5.32-.92,6.64-2.31l-2.99-2.97-3.79,2.85-.32-3.18-3.99,2.94Z"/>
          <path class="cls-9" d="M255.87,103.68c.72,1.71,2.04,2.4,4.44,2.67,2.4.27,5.32-.92,6.64-2.31l-2.99-2.97-3.79,2.85-.32-3.18-3.99,2.94Z"/>
          <g>
            <path class="cls-7" d="M257.75,102.74s-.59,1.65-.39,3.2c.21,1.66,1.07,2.66,1.07,2.66,0,0,.95.76,2.58.28,1.27-1.17,2.55-3.05,2.46-5.34l-3.28.37-2.43-1.17Z"/>
            <path class="cls-7" d="M258.41,108.6s-4.89,26.97-5.08,29.14c-.2,2.18,2.81,9.91,4.67,9.97,1.86.07,5.52-6.93,5.58-8.91.05-1.98-2.35-30.14-2.35-30.14l-2.81-.07Z"/>
            <path class="cls-9" d="M261.23,108.67s-1.23,1.11-2.81-.07l-.08.43s.93.95,2.94.38l-.05-.74Z"/>
          </g>
          <g>
            <path class="cls-34" d="M260.18,103.91l10.94-8.34.04-2.19s2.56.68,3.13,5.17c-1.56,3.62-4.39,6.72-8.54,9.08l-2.3-4.1-3.28.37Z"/>
            <path class="cls-34" d="M259.89,94.44s-2.57,1.19-3.67,3c-1.1,1.81-1.09,7.68-1.09,7.68l2.62-2.38,2.43,1.17c-.23-2.3-.3-6.25-.3-6.25v-3.23Z"/>
          </g>
        </g>
      </g>
    </g>
    <g>
      <path class="cls-28" d="M305.2,134.1c-4.57-7.79-11.78-21.85-15.44-26.72-5.1-6.78-4.81-6.65-9.56-8.13-.77,2.29-2.55,11.73.86,18.51l11.82,16.81c-4.8,1.15-13.39,3.39-16.3,2.79l-.93,8.65c17.14-1.46,25.03-1.69,29.94-4.85,2.13-1.37,1.03-4.64-.39-7.07Z"/>
      <path class="cls-34" d="M281.71,118.96c-2.59-3.07-4.46-12.81-2.24-19.72,4.49.38,5.56,1.29,8.81,5.29,4.73,5.82,9.94,16.27,12.05,19.76s7.21,12.48,6.99,14.42c-.21,1.94-1.83,3.81-6,4.96-4.18,1.15-22.51,2.36-22.51,2.36,0,0-.88-3.75-.79-8.67,5.51-1.07,10.53-2.12,13.77-3.04,0,0-7.77-12.63-10.08-15.36Z"/>
      <path class="cls-28" d="M277.34,137.52c-1.14-.12-1.81-.58-2.27-.89-.76-.52-1.47-1.1-2.27-1.57-1.93-1.12-4.12-1.9-6.19-2.72-.21-.08-.42-.16-.64-.12-.24.05-.44.25-.54.47-.1.23-.13.48-.15.73-.05.52.08,1.05.01,1.57-.63,5.23,10.88,5.11,12.06,2.53Z"/>
      <g>
        <path class="cls-7" d="M268.76,148.92h0s3.51-13.96,3.51-13.96l-4.22-1.06-3.51,13.96c-.12.33,0,.72.38,1.08.7.68,2.04,1.02,2.99.75.51-.14.8-.43.85-.78Z"/>
        <path class="cls-25" d="M268.76,148.92h0s3.51-13.96,3.51-13.96l-4.22-1.06-3.51,13.96c-.12.33,0,.72.38,1.08.7.68,2.04,1.02,2.99.75.51-.14.8-.43.85-.78Z"/>
        <path class="cls-7" d="M268.89,133.2c.94-.27,2.28.07,2.99.75.7.68.51,1.45-.43,1.72s-2.28-.07-2.99-.75c-.7-.68-.51-1.45.43-1.72Z"/>
        <path class="cls-26" d="M268.89,133.2c.94-.27,2.28.07,2.99.75.7.68.51,1.45-.43,1.72s-2.28-.07-2.99-.75c-.7-.68-.51-1.45.43-1.72Z"/>
      </g>
      <path class="cls-18" d="M269.08,134.09l24.19-94.28c.17-.65.83-1.04,1.48-.87.65.17,1.04.83.87,1.48l-24.19,94.28c-.61.49-2.18.06-2.35-.6Z"/>
      <path class="cls-28" d="M277.34,137.56c-1.16.48-3.4,0-5.7-.16-1.86,1.31-4.17-.21-4.22-1.04l-.5-1.77s-1.92-.1-2.8.73c-.88.83-.36,2.02-.72,2.51-.36.49-.77,1.37-.93,1.99-.15.62-.93,1.86-.88,2.48.05.62,0,2.02,0,2.02,0,0,1.14,2.66,4.57,2.9s9.48-1.19,9.48-1.19l1.7-8.46Z"/>
    </g>
    <g>
      <path class="cls-7" d="M289.58,58.33c13.34,1.03,25.37,5.69,36.09,13.97,10.91,1.9,17.64,6.67,21.53,13.4-8.41-29.33-29-45.58-51.45-51.36-22.45-5.78-48.33-1.48-69.85,20.15,6.65-4.01,14.85-4.94,25.32-1.34,13.39-2.08,26.18-.35,38.35,5.18Z"/>
      <path class="cls-27" d="M251.22,53.15c13.4-2.08,26.18-.35,38.35,5.18l6.17-23.99c-25.65-6.6-44.53,18.81-44.53,18.81Z"/>
      <path class="cls-26" d="M225.9,54.49c21.52-21.63,47.4-25.93,69.85-20.15-25.65-6.6-44.53,18.81-44.53,18.81-10.47-3.6-18.67-2.67-25.32,1.34Z"/>
      <path class="cls-9" d="M325.67,72.3c-10.73-8.29-22.76-12.94-36.09-13.97l6.17-23.99c25.65,6.6,29.92,37.96,29.92,37.96Z"/>
      <path class="cls-25" d="M347.2,85.7c-8.41-29.33-29-45.58-51.45-51.36,25.65,6.6,29.92,37.96,29.92,37.96,10.91,1.9,17.64,6.67,21.53,13.4Z"/>
    </g>
  </g>
</svg>