<?xml version="1.0" encoding="UTF-8"?>
<svg id="Layer_1" xmlns="http://www.w3.org/2000/svg" xmlns:xlink="http://www.w3.org/1999/xlink" viewBox="0 0 150 150">
  <defs>
    <style>
      .cls-1, .cls-2 {
        fill: #f7dfc8;
      }

      .cls-1, .cls-3 {
        opacity: .5;
      }

      .cls-4 {
        fill: #435da3;
      }

      .cls-5 {
        opacity: .52;
      }

      .cls-5, .cls-6 {
        fill: #f8974a;
      }

      .cls-7 {
        fill: url(#linear-gradient-8);
      }

      .cls-8 {
        fill: url(#linear-gradient-7);
      }

      .cls-9 {
        fill: url(#linear-gradient-5);
      }

      .cls-10 {
        fill: url(#linear-gradient-6);
      }

      .cls-11 {
        fill: url(#linear-gradient-9);
      }

      .cls-12 {
        fill: url(#linear-gradient-4);
      }

      .cls-13 {
        fill: url(#linear-gradient-3);
      }

      .cls-14 {
        fill: url(#linear-gradient-2);
      }

      .cls-15 {
        fill: #f9eada;
      }

      .cls-16 {
        fill: url(#linear-gradient);
      }

      .cls-17 {
        fill: #5f79b0;
      }

      .cls-18 {
        fill: #98b1dc;
      }

      .cls-19 {
        opacity: .9;
      }

      .cls-19, .cls-20 {
        fill: #c0cfeb;
      }

      .cls-21 {
        fill: #231f20;
        font-family: HelveticaNeue-CondensedBold, 'Helvetica Neue';
        font-size: 18px;
        font-weight: 700;
      }

      .cls-22 {
        fill: #fff;
      }

      .cls-23 {
        fill: #4978bc;
      }

      .cls-24 {
        fill: url(#linear-gradient-10);
      }

      .cls-25 {
        fill: url(#linear-gradient-11);
      }

      .cls-26 {
        fill: url(#linear-gradient-12);
      }

      .cls-27 {
        fill: url(#linear-gradient-13);
      }

      .cls-28 {
        fill: url(#linear-gradient-19);
      }

      .cls-29 {
        fill: url(#linear-gradient-14);
      }

      .cls-30 {
        fill: url(#linear-gradient-21);
      }

      .cls-31 {
        fill: url(#linear-gradient-20);
      }

      .cls-32 {
        fill: url(#linear-gradient-22);
      }

      .cls-33 {
        fill: url(#linear-gradient-23);
      }

      .cls-34 {
        fill: url(#linear-gradient-28);
      }

      .cls-35 {
        fill: url(#linear-gradient-25);
      }

      .cls-36 {
        fill: url(#linear-gradient-32);
      }

      .cls-37 {
        fill: url(#linear-gradient-31);
      }

      .cls-38 {
        fill: url(#linear-gradient-33);
      }

      .cls-39 {
        fill: url(#linear-gradient-30);
      }

      .cls-40 {
        fill: url(#linear-gradient-15);
      }

      .cls-41 {
        fill: url(#linear-gradient-16);
      }

      .cls-42 {
        fill: url(#linear-gradient-17);
      }

      .cls-43 {
        fill: url(#linear-gradient-18);
      }

      .cls-44 {
        fill: url(#linear-gradient-35);
      }

      .cls-45 {
        fill: url(#linear-gradient-34);
      }

      .cls-46 {
        fill: url(#linear-gradient-27);
      }

      .cls-47 {
        fill: url(#linear-gradient-24);
      }

      .cls-48 {
        fill: url(#linear-gradient-26);
      }

      .cls-49 {
        fill: url(#linear-gradient-29);
      }

      .cls-50 {
        fill: #425da3;
      }

      .cls-51 {
        fill: #f5928f;
      }

      .cls-52 {
        opacity: .7;
      }

      .cls-53 {
        fill: #f69992;
      }

      .cls-54 {
        fill: #8193ca;
      }
    </style>
    <linearGradient id="linear-gradient" x1="91.21" y1="78.22" x2="81.94" y2="89.63" gradientUnits="userSpaceOnUse">
      <stop offset="0" stop-color="#f5928f"/>
      <stop offset="1" stop-color="#f8b2b1"/>
    </linearGradient>
    <linearGradient id="linear-gradient-2" x1="85.46" y1="85.44" x2="64.91" y2="110.56" gradientUnits="userSpaceOnUse">
      <stop offset="0" stop-color="#f37064"/>
      <stop offset="1" stop-color="#f5928f"/>
    </linearGradient>
    <linearGradient id="linear-gradient-3" x1="116.94" y1="76.59" x2="136.78" y2="96.98" gradientUnits="userSpaceOnUse">
      <stop offset="0" stop-color="#201b59"/>
      <stop offset="1" stop-color="#2d2d84"/>
    </linearGradient>
    <linearGradient id="linear-gradient-4" x1="111.91" y1="105.67" x2="118.58" y2="105.67" gradientUnits="userSpaceOnUse">
      <stop offset="0" stop-color="#dbe2f3"/>
      <stop offset="1" stop-color="#eaeff8"/>
    </linearGradient>
    <linearGradient id="linear-gradient-5" x1="5450.27" y1="248.49" x2="5449.15" y2="250.59" gradientTransform="translate(-5413.37)" gradientUnits="userSpaceOnUse">
      <stop offset="0" stop-color="#4c57a6"/>
      <stop offset="1" stop-color="#5560ab"/>
    </linearGradient>
    <linearGradient id="linear-gradient-6" x1="5452.3" y1="249.57" x2="5451.18" y2="251.68" xlink:href="#linear-gradient-5"/>
    <linearGradient id="linear-gradient-7" x1="5533.42" y1="95.84" x2="5532.62" y2="87.55" gradientTransform="translate(-5413.37)" xlink:href="#linear-gradient"/>
    <linearGradient id="linear-gradient-8" x1="133.99" y1="102.81" x2="131.98" y2="108.9" gradientTransform="matrix(1,0,0,1,0,0)" xlink:href="#linear-gradient-5"/>
    <linearGradient id="linear-gradient-9" x1="5424.9" y1="-164.44" x2="5428.39" y2="-176.19" gradientTransform="translate(-5327.08 -24.97) rotate(4.46)" xlink:href="#linear-gradient-3"/>
    <linearGradient id="linear-gradient-10" x1="5446.22" y1="-266.06" x2="5449.81" y2="-308.1" gradientTransform="translate(-5327.08 -24.97) rotate(4.46)" xlink:href="#linear-gradient"/>
    <linearGradient id="linear-gradient-11" x1="5415.05" y1="-167.37" x2="5418.54" y2="-179.12" gradientTransform="translate(-5327.08 -24.97) rotate(4.46)" xlink:href="#linear-gradient-3"/>
    <linearGradient id="linear-gradient-12" x1="5453.45" y1="-265.43" x2="5457.05" y2="-307.49" gradientTransform="translate(-5327.08 -24.97) rotate(4.46)" xlink:href="#linear-gradient"/>
    <linearGradient id="linear-gradient-13" x1="123.61" y1="87.82" x2="138.83" y2="106.41" xlink:href="#linear-gradient-2"/>
    <linearGradient id="linear-gradient-14" x1="120.37" y1="99.04" x2="140.76" y2="111.93" gradientTransform="matrix(1,0,0,1,0,0)" xlink:href="#linear-gradient-5"/>
    <linearGradient id="linear-gradient-15" x1="126.42" y1="84.98" x2="127.63" y2="93.98" xlink:href="#linear-gradient"/>
    <linearGradient id="linear-gradient-16" x1="147.02" y1="96.35" x2="139.9" y2="96.35" xlink:href="#linear-gradient"/>
    <linearGradient id="linear-gradient-17" x1="5249.91" y1="70.32" x2="5254.01" y2="66.5" gradientTransform="translate(-5247.41 -560.79) rotate(7.69)" xlink:href="#linear-gradient"/>
    <linearGradient id="linear-gradient-18" x1="5250.88" y1="71.36" x2="5254.98" y2="67.53" gradientTransform="translate(-5247.41 -560.79) rotate(7.69)" xlink:href="#linear-gradient"/>
    <linearGradient id="linear-gradient-19" x1="119.79" y1="73.81" x2="139.64" y2="94.2" xlink:href="#linear-gradient-3"/>
    <linearGradient id="linear-gradient-20" x1="-4094.28" y1="122.98" x2="-4088.39" y2="122.98" gradientTransform="translate(4124.77)" xlink:href="#linear-gradient-3"/>
    <linearGradient id="linear-gradient-21" x1="-4088.38" y1="96.68" x2="-4086.77" y2="81.77" gradientTransform="translate(4124.77)" xlink:href="#linear-gradient-5"/>
    <linearGradient id="linear-gradient-22" x1="-4104.62" y1="123" x2="-4101.86" y2="123" gradientTransform="translate(4124.77)" xlink:href="#linear-gradient-3"/>
    <linearGradient id="linear-gradient-23" x1="-4100.18" y1="95.41" x2="-4098.57" y2="80.5" gradientTransform="translate(4124.77)" xlink:href="#linear-gradient-5"/>
    <linearGradient id="linear-gradient-24" x1="-4103.46" y1="121.1" x2="-4101.67" y2="121.1" gradientTransform="translate(4124.77)" xlink:href="#linear-gradient"/>
    <linearGradient id="linear-gradient-25" x1="-4093.98" y1="120.98" x2="-4092.49" y2="120.98" gradientTransform="translate(4124.77)" xlink:href="#linear-gradient"/>
    <linearGradient id="linear-gradient-26" x1="41.9" y1="92.28" x2="33.84" y2="104.37" xlink:href="#linear-gradient-3"/>
    <linearGradient id="linear-gradient-27" x1="30.69" y1="101.28" x2="34.11" y2="110.14" xlink:href="#linear-gradient-3"/>
    <linearGradient id="linear-gradient-28" x1="-3957" y1="-65.89" x2="-3960.49" y2="-61.66" gradientTransform="translate(4124.77)" xlink:href="#linear-gradient"/>
    <linearGradient id="linear-gradient-29" x1="37.04" y1="76.91" x2="34.96" y2="82.48" xlink:href="#linear-gradient"/>
    <linearGradient id="linear-gradient-30" x1="35.04" y1="88.81" x2="29.67" y2="92.84" xlink:href="#linear-gradient"/>
    <linearGradient id="linear-gradient-31" x1="-4036.61" y1="186.89" x2="-4039.43" y2="180.92" gradientTransform="translate(4124.77)" xlink:href="#linear-gradient"/>
    <linearGradient id="linear-gradient-32" x1="59.56" y1="65.63" x2="53.45" y2="69.86" xlink:href="#linear-gradient"/>
    <linearGradient id="linear-gradient-33" x1="-2607.35" y1="71.49" x2="-2598.68" y2="82.65" gradientTransform="translate(-2568.8) rotate(-180) scale(1 -1)" xlink:href="#linear-gradient-3"/>
    <linearGradient id="linear-gradient-34" x1="-4038.12" y1="187.61" x2="-4040.94" y2="181.63" gradientTransform="translate(4124.77)" xlink:href="#linear-gradient"/>
    <linearGradient id="linear-gradient-35" x1="110.46" y1="71.98" x2="118.94" y2="71.98" xlink:href="#linear-gradient-4"/>
  </defs>
  <g>
    <path class="cls-15" d="M147.99,62.83c.68-2.37,1.03-4.83,1.01-7.51-.04-5.49-1.7-11.89-6.81-14.94-6.31-3.75-15.52-2.37-22.45-1.94-7.8.48-16.17,1.15-23.6-1.77-7.33-2.88-14.4-4.91-22.26-3.08-7.14,1.66-13.66,5.29-20.73,7.21-4.06,1.1-8.34,1.47-12.5.65-8.77-1.73-17.16-7.09-26.11-2.91C.39,45.15-1.66,62.04,2.83,75.29c1.42,4.2,3.36,8.39,5.64,12.21,2.35,3.94,4.56,7.54,4.38,12.31-.13,3.64-1.56,7.13-1.26,10.8,1.18,14.72,23.74,11.62,33.42,10.32,9.29-1.25,18.5-3.38,27.46-6.13,8.16-2.51,15.8-2.84,24.05-.63,8.31,2.22,16.14,5.95,24.51,7.96,5.01,1.2,10.31,1.77,15.24-.07,17.17-6.39,2.62-28.16,3.54-39.69.38-4.71,3.03-8.7,5.26-12.72,1.26-2.27,2.25-4.51,2.91-6.83Z"/>
    <g>
      <g>
        <g>
          <path class="cls-2" d="M66.38,85.91c-1.46-6.95-5.06-12.75-9.64-16.4-4.09-3.27-6.81-7.99-7.47-13.18-.07-.55-.16-1.1-.28-1.65-1.76-8.36-8.31-14.07-14.63-12.74-6.32,1.33-10.02,9.18-8.26,17.55.36,1.71.92,3.31,1.64,4.76,2.29,4.63,2.83,9.95,1.32,14.89-1.35,4.41-1.61,9.51-.52,14.73,1.63,7.78,5.94,14.1,11.3,17.61,2.03,1.33,3.81,3.02,5.23,4.98,2.36,3.27,5.96,5.06,9.51,4.31,3.83-.8,6.52-4.34,7.13-8.72.34-2.48,1.17-4.86,2.35-7.07,2.79-5.21,3.79-12.04,2.31-19.07Z"/>
          <path class="cls-2" d="M38.46,50.37c1.99,5.35,3.8,10.77,5.56,16.2.44,1.36.86,2.72,1.28,4.09l.63,2.05.62,2.05c.41,1.37.83,2.73,1.22,4.1l1.17,4.12c.74,2.76,1.51,5.51,2.21,8.28.35,1.38.72,2.76,1.04,4.15l.98,4.17c1.25,5.57,2.36,11.18,3.19,16.83l-.24.04-.78-4.2-.19-1.05-.22-1.05-.44-2.09-.44-2.09c-.14-.7-.31-1.39-.47-2.09-.32-1.39-.63-2.78-.96-4.17-1.36-5.54-2.79-11.06-4.34-16.54-.79-2.74-1.56-5.48-2.38-8.22l-.6-2.05-.62-2.05c-.41-1.36-.83-2.73-1.25-4.09-.83-2.73-1.68-5.45-2.55-8.16-.86-2.72-1.74-5.43-2.64-8.14l.23-.08Z"/>
          <g class="cls-3">
            <path class="cls-2" d="M31.13,65.85c-.06-.01-.11-.05-.14-.1-3.73-6.76-3.13-11.85-1.97-14.93,1.26-3.34,3.38-5.05,3.47-5.13.09-.07.22-.06.29.03.07.09.06.22-.03.29-.02.02-2.13,1.72-3.34,4.97-1.12,2.99-1.7,7.95,1.95,14.56.06.1.02.23-.08.28-.04.02-.09.03-.14.02Z"/>
          </g>
        </g>
        <g>
          <path class="cls-2" d="M39.7,101.25c-2.37-3.21-5.56-5.33-8.75-6.14-2.85-.72-5.34-2.49-6.89-5-.16-.26-.34-.52-.53-.78-2.85-3.86-7.53-5.25-10.44-3.1-2.91,2.15-2.96,7.03-.11,10.89.58.79,1.24,1.48,1.95,2.05,2.25,1.83,3.77,4.42,4.16,7.3.35,2.57,1.4,5.24,3.18,7.64,2.65,3.59,6.33,5.82,9.88,6.37,1.35.21,2.65.65,3.83,1.33,1.97,1.12,4.22,1.2,5.86-.01,1.76-1.3,2.31-3.74,1.6-6.12-.4-1.35-.54-2.76-.45-4.16.2-3.31-.88-7.03-3.28-10.28Z"/>
          <path class="cls-2" d="M17.14,89.6c2.27,2.27,4.46,4.62,6.63,6.98.54.59,1.07,1.19,1.61,1.79l.8.9.79.9c.53.6,1.06,1.2,1.58,1.81l1.56,1.83c1.02,1.23,2.06,2.46,3.06,3.71.5.63,1.02,1.24,1.5,1.88l1.48,1.9c1.94,2.56,3.82,5.16,5.57,7.86l-.12.08-1.38-1.97-.34-.49-.36-.48-.71-.97-.71-.97c-.24-.32-.49-.64-.73-.96-.49-.63-.97-1.27-1.47-1.9-1.99-2.51-4.01-5-6.08-7.44-1.05-1.21-2.08-2.44-3.14-3.64l-.79-.91-.8-.9c-.53-.6-1.06-1.2-1.6-1.8-1.06-1.2-2.13-2.39-3.21-3.58-1.07-1.19-2.16-2.37-3.25-3.54l.1-.1Z"/>
          <g class="cls-3">
            <path class="cls-2" d="M17.89,98.87s-.07,0-.11-.02c-3.86-2.56-4.95-5.42-5.19-7.38-.26-2.12.39-3.62.42-3.68.03-.06.1-.09.16-.06.06.03.09.1.06.16,0,.01-.65,1.51-.4,3.57.23,1.9,1.31,4.69,5.08,7.19.06.04.07.12.03.17-.02.02-.04.04-.07.05Z"/>
          </g>
        </g>
      </g>
      <g>
        <g>
          <path class="cls-2" d="M89.11,92.32c1.21-5.74,4.17-10.52,7.96-13.54,3.38-2.7,5.62-6.59,6.16-10.88.06-.45.13-.9.23-1.36,1.45-6.9,6.86-11.61,12.08-10.52,5.22,1.1,8.27,7.58,6.82,14.49-.3,1.41-.76,2.73-1.35,3.93-1.89,3.82-2.34,8.21-1.09,12.29,1.11,3.64,1.33,7.85.43,12.16-1.35,6.42-4.9,11.64-9.33,14.54-1.68,1.1-3.14,2.49-4.31,4.11-1.94,2.7-4.92,4.18-7.85,3.56-3.16-.66-5.39-3.58-5.89-7.2-.28-2.05-.97-4.01-1.94-5.84-2.3-4.31-3.13-9.94-1.91-15.74Z"/>
          <path class="cls-2" d="M112.16,62.98c-1.64,4.42-3.14,8.89-4.59,13.37-.36,1.12-.71,2.25-1.06,3.37l-.52,1.69-.51,1.69c-.33,1.13-.68,2.26-1.01,3.39l-.97,3.4c-.61,2.28-1.25,4.55-1.82,6.83-.29,1.14-.6,2.28-.86,3.43l-.81,3.44c-1.03,4.6-1.95,9.23-2.63,13.89l.2.03.64-3.47.16-.87.18-.86.36-1.73.36-1.73c.12-.58.26-1.15.39-1.72.27-1.15.52-2.29.8-3.44,1.12-4.57,2.3-9.13,3.58-13.66.66-2.26,1.29-4.53,1.96-6.78l.5-1.69.51-1.69c.34-1.13.68-2.25,1.04-3.38.69-2.25,1.39-4.5,2.11-6.74.71-2.25,1.44-4.48,2.18-6.72l-.19-.07Z"/>
          <path class="cls-1" d="M118.22,75.76s.09-.04.12-.09c3.08-5.58,2.58-9.79,1.62-12.33-1.04-2.76-2.79-4.17-2.86-4.23-.07-.06-.18-.05-.24.03-.06.07-.05.18.03.24.02.01,1.76,1.42,2.76,4.1.93,2.47,1.4,6.56-1.61,12.02-.05.08-.02.19.07.23.04.02.08.03.11.02Z"/>
        </g>
        <g>
          <path class="cls-2" d="M111.62,102.45c2.24-3.03,5.25-5.04,8.26-5.79,2.69-.68,5.04-2.36,6.51-4.72.15-.25.32-.49.5-.73,2.69-3.65,7.11-4.96,9.86-2.93,2.75,2.03,2.8,6.63.1,10.28-.55.75-1.17,1.39-1.84,1.94-2.12,1.73-3.56,4.18-3.93,6.89-.33,2.43-1.32,4.94-3,7.22-2.5,3.39-5.97,5.49-9.33,6.01-1.27.19-2.5.62-3.62,1.25-1.86,1.06-3.99,1.13-5.53-.01-1.67-1.23-2.18-3.53-1.51-5.77.38-1.27.51-2.6.43-3.93-.19-3.13.83-6.64,3.1-9.7Z"/>
          <path class="cls-2" d="M132.91,91.45c-2.14,2.15-4.21,4.36-6.25,6.59-.51.56-1.01,1.12-1.52,1.69l-.76.85-.75.85c-.5.57-1,1.14-1.49,1.71l-1.47,1.73c-.97,1.17-1.94,2.32-2.89,3.51-.47.59-.96,1.17-1.42,1.77l-1.39,1.8c-1.83,2.41-3.61,4.87-5.25,7.42l.11.07,1.3-1.86.32-.46.34-.46.67-.91.67-.91c.22-.3.46-.6.69-.9.46-.6.92-1.2,1.38-1.8,1.88-2.37,3.79-4.72,5.74-7.03.99-1.15,1.96-2.3,2.96-3.44l.74-.86.75-.85c.5-.57,1-1.13,1.51-1.7,1-1.13,2.01-2.26,3.03-3.38,1.01-1.12,2.04-2.24,3.07-3.35l-.09-.09Z"/>
          <path class="cls-1" d="M132.21,100.21s.07,0,.1-.01c3.64-2.41,4.67-5.12,4.9-6.97.24-2.01-.37-3.42-.39-3.48-.03-.06-.1-.09-.15-.06-.06.03-.09.1-.06.15,0,.01.61,1.42.37,3.37-.22,1.79-1.23,4.43-4.79,6.79-.05.04-.07.11-.03.16.02.02.04.04.06.05Z"/>
        </g>
      </g>
    </g>
    <g>
      <rect class="cls-23" x="53.53" y="37.55" width="42.65" height="16.5"/>
      <path class="cls-17" d="M98.28,47.79c-.01-.35-.21-.69-.55-.92-.34-.24-.79-.35-1.24-.32l-45.73,3.08c-.85.06-1.53.61-1.53,1.27v71.51c0,.71.79,1.23,1.7,1.23h47.88c.44,0,.87-.11,1.18-.36.31-.25.48-.57.47-.91l-2.18-74.58Z"/>
      <path class="cls-54" d="M101.3,98.49h-52.89c-.11,0-.22.05-.3.13-.08.09-.11.2-.1.31l.42,4.25c.02.21.2.37.4.37h52.46c.22,0,.41-.18.41-.41v-4.25c0-.22-.18-.41-.41-.41Z"/>
      <path class="cls-54" d="M101.3,46.5h-52.89c-.11,0-.22.05-.3.13-.08.09-.11.2-.1.31l.42,4.25c.02.21.2.37.4.37h52.46c.22,0,.41-.18.41-.41v-4.25c0-.22-.18-.41-.41-.41Z"/>
      <path class="cls-50" d="M97.19,35.01h-44.51c-.1,0-.19.03-.25.1-.06.06-.1.14-.09.22l.36,3.05c.02.15.16.26.34.26h44.15c.19,0,.34-.13.34-.29v-3.05c0-.16-.15-.29-.34-.29Z"/>
      <g>
        <path class="cls-4" d="M48.61,120.18c-.28,0-.55.12-.74.34-.19.21-.27.5-.23.78l.23,1.62c.07.48.48.85.97.85h15.51l-.2-3.58h-15.54Z"/>
        <path class="cls-4" d="M101.84,120.51c-.19-.21-.46-.34-.74-.34h-15.54l-.2,3.58h15.51c.49,0,.9-.36.97-.85l.23-1.62c.04-.28-.05-.57-.23-.78Z"/>
      </g>
      <g>
        <g>
          <g>
            <path class="cls-19" d="M56.95,54.02h-.04c-1.53,0-2.76,1.27-2.76,2.8v2.65h2.8v-5.45Z"/>
            <path class="cls-19" d="M54.15,60.24v2.03c0,.27.22.46.49.46h2.31v-2.49h-2.8Z"/>
            <path class="cls-19" d="M57.77,54.02h-.04v5.45h2.8v-2.65c0-1.53-1.24-2.8-2.76-2.8Z"/>
            <path class="cls-19" d="M57.73,62.74h2.31c.27,0,.49-.19.49-.46v-2.03h-2.8v2.49Z"/>
          </g>
          <g>
            <path class="cls-19" d="M68.63,54.02h-.04c-1.53,0-2.76,1.27-2.76,2.8v2.65h2.8v-5.45Z"/>
            <path class="cls-19" d="M65.82,60.24v2.03c0,.27.22.46.49.46h2.31v-2.49h-2.8Z"/>
            <path class="cls-19" d="M69.44,54.02h-.04v5.45h2.8v-2.65c0-1.53-1.24-2.8-2.76-2.8Z"/>
            <path class="cls-19" d="M69.4,62.74h2.31c.27,0,.49-.19.49-.46v-2.03h-2.8v2.49Z"/>
          </g>
          <g>
            <path class="cls-19" d="M80.3,54.02h-.04c-1.53,0-2.76,1.27-2.76,2.8v2.65h2.8v-5.45Z"/>
            <path class="cls-19" d="M77.5,60.24v2.03c0,.27.22.46.49.46h2.31v-2.49h-2.8Z"/>
            <path class="cls-19" d="M81.12,54.02h-.04v5.45h2.8v-2.65c0-1.53-1.24-2.8-2.76-2.8Z"/>
            <path class="cls-19" d="M81.08,62.74h2.31c.27,0,.49-.19.49-.46v-2.03h-2.8v2.49Z"/>
          </g>
          <g>
            <path class="cls-19" d="M91.98,54.02h-.04c-1.53,0-2.76,1.27-2.76,2.8v2.65h2.8v-5.45Z"/>
            <path class="cls-19" d="M89.17,60.24v2.03c0,.27.22.46.49.46h2.31v-2.49h-2.8Z"/>
            <path class="cls-19" d="M92.79,54.02h-.04v5.45h2.8v-2.65c0-1.53-1.24-2.8-2.76-2.8Z"/>
            <path class="cls-19" d="M92.75,62.74h2.31c.27,0,.49-.19.49-.46v-2.03h-2.8v2.49Z"/>
          </g>
        </g>
        <g>
          <g>
            <path class="cls-19" d="M56.95,69.27h-.04c-1.53,0-2.76,1.27-2.76,2.8v2.65h2.8v-5.45Z"/>
            <path class="cls-19" d="M54.15,75.5v2.03c0,.27.22.46.49.46h2.31v-2.49h-2.8Z"/>
            <path class="cls-19" d="M57.77,69.27h-.04v5.45h2.8v-2.65c0-1.53-1.24-2.8-2.76-2.8Z"/>
            <path class="cls-19" d="M57.73,77.99h2.31c.27,0,.49-.19.49-.46v-2.03h-2.8v2.49Z"/>
          </g>
          <g>
            <path class="cls-19" d="M68.63,69.27h-.04c-1.53,0-2.76,1.27-2.76,2.8v2.65h2.8v-5.45Z"/>
            <path class="cls-19" d="M65.82,75.5v2.03c0,.27.22.46.49.46h2.31v-2.49h-2.8Z"/>
            <path class="cls-19" d="M69.44,69.27h-.04v5.45h2.8v-2.65c0-1.53-1.24-2.8-2.76-2.8Z"/>
            <path class="cls-19" d="M69.4,77.99h2.31c.27,0,.49-.19.49-.46v-2.03h-2.8v2.49Z"/>
          </g>
          <g>
            <path class="cls-19" d="M80.3,69.27h-.04c-1.53,0-2.76,1.27-2.76,2.8v2.65h2.8v-5.45Z"/>
            <path class="cls-19" d="M77.5,75.5v2.03c0,.27.22.46.49.46h2.31v-2.49h-2.8Z"/>
            <path class="cls-19" d="M81.12,69.27h-.04v5.45h2.8v-2.65c0-1.53-1.24-2.8-2.76-2.8Z"/>
            <path class="cls-19" d="M81.08,77.99h2.31c.27,0,.49-.19.49-.46v-2.03h-2.8v2.49Z"/>
          </g>
          <g>
            <path class="cls-19" d="M91.98,69.27h-.04c-1.53,0-2.76,1.27-2.76,2.8v2.65h2.8v-5.45Z"/>
            <path class="cls-19" d="M89.17,75.5v2.03c0,.27.22.46.49.46h2.31v-2.49h-2.8Z"/>
            <path class="cls-19" d="M92.79,69.27h-.04v5.45h2.8v-2.65c0-1.53-1.24-2.8-2.76-2.8Z"/>
            <path class="cls-19" d="M92.75,77.99h2.31c.27,0,.49-.19.49-.46v-2.03h-2.8v2.49Z"/>
          </g>
        </g>
        <g>
          <g>
            <path class="cls-19" d="M56.95,84.53h-.04c-1.53,0-2.76,1.27-2.76,2.8v2.65h2.8v-5.45Z"/>
            <path class="cls-19" d="M54.15,90.75v2.03c0,.27.22.46.49.46h2.31v-2.49h-2.8Z"/>
            <path class="cls-19" d="M57.77,84.53h-.04v5.45h2.8v-2.65c0-1.53-1.24-2.8-2.76-2.8Z"/>
            <path class="cls-19" d="M57.73,93.24h2.31c.27,0,.49-.19.49-.46v-2.03h-2.8v2.49Z"/>
          </g>
          <g>
            <path class="cls-19" d="M68.63,84.53h-.04c-1.53,0-2.76,1.27-2.76,2.8v2.65h2.8v-5.45Z"/>
            <path class="cls-19" d="M65.82,90.75v2.03c0,.27.22.46.49.46h2.31v-2.49h-2.8Z"/>
            <path class="cls-19" d="M69.44,84.53h-.04v5.45h2.8v-2.65c0-1.53-1.24-2.8-2.76-2.8Z"/>
            <path class="cls-19" d="M69.4,93.24h2.31c.27,0,.49-.19.49-.46v-2.03h-2.8v2.49Z"/>
          </g>
          <g>
            <path class="cls-19" d="M80.3,84.53h-.04c-1.53,0-2.76,1.27-2.76,2.8v2.65h2.8v-5.45Z"/>
            <path class="cls-19" d="M77.5,90.75v2.03c0,.27.22.46.49.46h2.31v-2.49h-2.8Z"/>
            <path class="cls-19" d="M81.12,84.53h-.04v5.45h2.8v-2.65c0-1.53-1.24-2.8-2.76-2.8Z"/>
            <path class="cls-19" d="M81.08,93.24h2.31c.27,0,.49-.19.49-.46v-2.03h-2.8v2.49Z"/>
          </g>
          <g>
            <path class="cls-19" d="M91.98,84.53h-.04c-1.53,0-2.76,1.27-2.76,2.8v2.65h2.8v-5.45Z"/>
            <path class="cls-19" d="M89.17,90.75v2.03c0,.27.22.46.49.46h2.31v-2.49h-2.8Z"/>
            <path class="cls-19" d="M92.79,84.53h-.04v5.45h2.8v-2.65c0-1.53-1.24-2.8-2.76-2.8Z"/>
            <path class="cls-19" d="M92.75,93.24h2.31c.27,0,.49-.19.49-.46v-2.03h-2.8v2.49Z"/>
          </g>
        </g>
      </g>
      <g>
        <rect class="cls-16" x="62.56" y="94.96" width="23.82" height="7.78" rx="1.91" ry="1.91"/>
        <rect class="cls-14" x="62.87" y="95.3" width="23.19" height="7.16" rx="1.6" ry="1.6"/>
      </g>
      <g>
        <rect class="cls-18" x="75.01" y="40.48" width="9.34" height="4.2" rx="1.05" ry="1.05"/>
        <rect class="cls-18" x="65.2" y="40.48" width="9.34" height="4.2" rx="1.05" ry="1.05"/>
        <path class="cls-18" d="M63.68,40.48h-7.51c-.56,0-1.09.49-1.09,1.05v2.65c0,.3.32.51.62.51h7.98c.58,0,1.05-.44,1.05-1.02v-2.1c0-.58-.47-1.08-1.05-1.08Z"/>
        <path class="cls-18" d="M94,40.48h-8.13c-.58,0-1.05.5-1.05,1.08v2.1c0,.58.47,1.02,1.05,1.02h8.13c.3,0,.47-.21.47-.51v-3.11c0-.3-.17-.58-.47-.58Z"/>
      </g>
      <g>
        <path class="cls-19" d="M56.33,106.01h-3.77c-.58,0-1.05.5-1.05,1.08v7.32h4.83v-8.41Z"/>
        <path class="cls-19" d="M60.57,106.01h-3.62v8.41h4.67v-7.32c0-.58-.47-1.08-1.05-1.08Z"/>
        <path class="cls-19" d="M51.5,116.82c0,.58.47,1.02,1.05,1.02h8.02c.58,0,1.05-.44,1.05-1.02v-1.79h-10.12v1.79Z"/>
      </g>
      <g>
        <path class="cls-19" d="M92.6,106.01h-3.77c-.58,0-1.05.5-1.05,1.08v7.32h4.83v-8.41Z"/>
        <path class="cls-19" d="M96.84,106.01h-3.62v8.41h4.67v-7.32c0-.58-.47-1.08-1.05-1.08Z"/>
        <path class="cls-19" d="M87.77,116.82c0,.58.47,1.02,1.05,1.02h8.02c.58,0,1.05-.44,1.05-1.02v-1.79h-10.12v1.79Z"/>
      </g>
      <rect class="cls-4" x="65.82" y="121.92" width="18.21" height="1.87"/>
      <g>
        <g>
          <rect class="cls-54" x="63.49" y="105.23" width="2.8" height="17.28"/>
          <path class="cls-54" d="M66.76,103.52h-3.58c-.17,0-.31.18-.31.36v1.13c0,.18.14.23.31.23h3.58c.17,0,.31-.05.31-.23v-1.13c0-.18-.14-.36-.31-.36Z"/>
          <path class="cls-54" d="M66.76,122.51h-3.58c-.17,0-.31.17-.31.34v1.13c0,.18.14.24.31.24h3.58c.17,0,.31-.07.31-.24v-1.13c0-.18-.14-.34-.31-.34Z"/>
        </g>
        <g>
          <rect class="cls-54" x="83.26" y="105.23" width="2.8" height="17.28"/>
          <path class="cls-54" d="M86.53,103.52h-3.58c-.17,0-.31.18-.31.36v1.13c0,.18.14.23.31.23h3.58c.17,0,.31-.05.31-.23v-1.13c0-.18-.14-.36-.31-.36Z"/>
          <path class="cls-54" d="M86.53,122.51h-3.58c-.17,0-.31.17-.31.34v1.13c0,.18.14.24.31.24h3.58c.17,0,.31-.07.31-.24v-1.13c0-.18-.14-.34-.31-.34Z"/>
        </g>
      </g>
      <g>
        <path class="cls-20" d="M68.08,107.25c0-.93,3.03-1.48,6.77-1.48s6.77.54,6.77,1.48h-13.54Z"/>
        <g>
          <rect class="cls-19" x="68" y="107.88" width="6.54" height="14.01"/>
          <rect class="cls-19" x="75.16" y="107.88" width="6.38" height="14.01"/>
        </g>
      </g>
      <g>
        <path class="cls-22" d="M66.34,96.49v1.74h1.69v-1.74h1.02v4.53h-1.02v-1.89h-1.69v1.89h-1.03v-4.53h1.03Z"/>
        <path class="cls-22" d="M74.09,98.71c0,1.49-.9,2.39-2.22,2.39s-2.13-1.01-2.13-2.3c0-1.36.87-2.37,2.2-2.37s2.15,1.04,2.15,2.29ZM70.82,98.77c0,.89.42,1.51,1.1,1.51s1.09-.66,1.09-1.54c0-.81-.39-1.51-1.1-1.51s-1.1.66-1.1,1.54Z"/>
        <path class="cls-22" d="M75.45,97.35h-1.22v-.86h3.48v.86h-1.24v3.67h-1.03v-3.67Z"/>
        <path class="cls-22" d="M80.95,99.11h-1.67v1.08h1.86v.84h-2.89v-4.53h2.8v.84h-1.77v.94h1.67v.83Z"/>
        <path class="cls-22" d="M81.84,96.49h1.03v3.67h1.8v.86h-2.83v-4.53Z"/>
      </g>
    </g>
    <g>
      <g>
        <path class="cls-6" d="M69.07,54.9l-3.38-1.46c-.26-.11-.56-.09-.81.06l-3.12,1.96c-.61.38-1.4-.1-1.33-.82l.34-3.66c.03-.28-.09-.56-.31-.75l-2.82-2.36c-.55-.46-.34-1.36.37-1.52l3.59-.81c.28-.06.51-.26.62-.52l1.37-3.41c.27-.67,1.19-.74,1.56-.12l1.88,3.17c.15.25.4.4.69.42l3.67.25c.72.05,1.07.9.59,1.44l-2.43,2.76c-.19.21-.26.51-.19.79l.9,3.57c.18.7-.53,1.3-1.19,1.01Z"/>
        <path class="cls-5" d="M61.39,50.02c-.1-.17-.22-.31-.37-.44l-1.84-1.54c-.19-.16-.28-.42-.22-.66.06-.25.25-.43.5-.49l2.35-.53c.55-.12,1-.51,1.21-1.03l.9-2.23c.09-.23.31-.39.56-.41.25-.02.49.1.62.32l.63,1.06-.16.1-.63-1.06c-.09-.16-.26-.24-.44-.23-.18.01-.33.12-.4.29l-.9,2.23c-.23.58-.74,1.01-1.35,1.14l-2.35.53c-.18.04-.31.17-.36.35-.04.18.01.36.16.47l1.84,1.54c.16.14.3.3.41.48l-.16.1Z"/>
        <path class="cls-5" d="M62.06,54.17c-.12,0-.24-.03-.35-.1-.22-.13-.33-.37-.31-.62l.17-1.83.19.02-.17,1.83c-.02.18.07.35.22.45.16.1.34.1.5,0l2.04-1.28c.52-.33,1.19-.38,1.76-.13l2.21.95c.17.07.35.04.49-.07.14-.12.2-.3.15-.47l-.59-2.33c-.15-.61,0-1.25.42-1.72l1.59-1.8c.12-.14.15-.32.08-.49-.07-.17-.22-.28-.4-.29l-2.4-.16c-.25-.02-.49-.08-.71-.19l.08-.17c.2.1.42.16.64.17l2.4.16c.25.02.47.17.56.41.1.23.05.5-.11.69l-1.59,1.8c-.37.42-.51,1-.38,1.55l.59,2.33c.06.24-.02.5-.21.66-.19.16-.46.2-.69.1l-2.21-.95c-.51-.22-1.12-.17-1.59.12l-2.04,1.28c-.11.07-.23.1-.35.1Z"/>
      </g>
      <g>
        <path class="cls-6" d="M84.02,50.58l-3.44-1.48c-.27-.12-.57-.09-.82.06l-3.17,1.99c-.62.39-1.42-.1-1.35-.83l.35-3.73c.03-.29-.09-.57-.31-.76l-2.87-2.4c-.56-.47-.34-1.38.37-1.54l3.65-.82c.28-.06.52-.26.63-.53l1.4-3.47c.27-.68,1.21-.75,1.58-.12l1.91,3.22c.15.25.41.41.7.43l3.74.25c.73.05,1.09.92.6,1.47l-2.47,2.81c-.19.22-.26.52-.19.8l.91,3.63c.18.71-.54,1.32-1.21,1.03Z"/>
        <path class="cls-5" d="M76.21,45.62c-.1-.17-.23-.32-.38-.44l-1.88-1.57c-.2-.16-.28-.42-.22-.67.06-.25.25-.44.5-.5l2.39-.53c.56-.13,1.02-.52,1.23-1.05l.91-2.27c.1-.24.31-.4.57-.42.26-.02.5.11.63.33l.64,1.07-.16.1-.64-1.07c-.1-.16-.26-.25-.45-.23-.19.01-.34.13-.41.3l-.91,2.27c-.24.59-.75,1.02-1.37,1.16l-2.39.53c-.18.04-.32.17-.36.36-.04.18.02.36.16.48l1.88,1.57c.17.14.31.3.42.49l-.16.1Z"/>
        <path class="cls-5" d="M76.88,49.84c-.12,0-.24-.03-.35-.1-.22-.13-.34-.38-.32-.63l.17-1.86.19.02-.17,1.86c-.02.19.07.36.23.45.16.1.35.1.51,0l2.07-1.3c.53-.33,1.21-.39,1.79-.14l2.24.97c.17.07.36.05.5-.07.14-.12.2-.3.15-.48l-.6-2.37c-.15-.62,0-1.27.42-1.75l1.62-1.84c.12-.14.15-.33.08-.5-.07-.17-.22-.28-.41-.3l-2.44-.17c-.25-.02-.5-.08-.72-.19l.08-.17c.2.1.42.16.65.18l2.44.17c.26.02.48.18.57.41.1.24.05.51-.12.7l-1.62,1.84c-.38.43-.52,1.02-.38,1.57l.6,2.37c.06.25-.02.51-.22.67-.2.17-.46.21-.7.1l-2.24-.97c-.52-.22-1.14-.18-1.61.12l-2.07,1.3c-.11.07-.23.1-.36.1Z"/>
      </g>
      <g>
        <path class="cls-6" d="M101.7,52.66l-3.44-3.37c-.27-.26-.65-.38-1.01-.3l-4.72.92c-.93.18-1.66-.78-1.24-1.62l2.14-4.31c.17-.34.16-.73-.02-1.06l-2.33-4.21c-.46-.82.23-1.82,1.16-1.68l4.76.71c.37.06.74-.08,1-.35l3.28-3.52c.64-.69,1.8-.34,1.95.59l.8,4.75c.06.37.3.68.64.84l4.36,2.03c.85.4.88,1.6.05,2.04l-4.27,2.23c-.33.17-.56.5-.6.87l-.59,4.78c-.11.94-1.25,1.33-1.93.67Z"/>
        <path class="cls-5" d="M94.62,43.09c-.04-.25-.13-.49-.25-.71l-1.52-2.75c-.16-.29-.14-.64.05-.91.19-.27.51-.41.83-.36l3.11.46c.73.11,1.46-.15,1.97-.69l2.14-2.3c.23-.24.56-.33.88-.24.32.1.55.36.6.68l.27,1.58-.24.04-.27-1.58c-.04-.24-.2-.42-.43-.49-.23-.07-.47,0-.63.17l-2.14,2.3c-.56.6-1.37.88-2.18.76l-3.11-.46c-.24-.04-.46.06-.6.26-.14.2-.15.44-.03.65l1.52,2.75c.14.24.23.51.28.78l-.24.04Z"/>
        <path class="cls-5" d="M93.48,48.47c-.15-.06-.28-.15-.38-.28-.2-.26-.23-.61-.09-.91l1.07-2.15.22.11-1.07,2.15c-.11.22-.08.46.06.65.15.19.37.28.61.23l3.09-.6c.79-.15,1.64.1,2.21.66l2.24,2.2c.17.17.41.22.64.14.23-.08.38-.27.41-.51l.38-3.12c.1-.81.59-1.52,1.32-1.9l2.79-1.45c.21-.11.34-.32.33-.56,0-.24-.14-.44-.36-.55l-2.85-1.33c-.29-.14-.56-.33-.78-.57l.18-.17c.2.22.43.39.7.51l2.85,1.33c.3.14.49.43.5.76,0,.33-.17.63-.46.78l-2.79,1.45c-.65.34-1.1.98-1.19,1.71l-.38,3.12c-.04.33-.26.6-.57.71-.31.11-.65.03-.89-.2l-2.24-2.2c-.52-.51-1.28-.74-1.99-.6l-3.09.6c-.16.03-.33.02-.47-.04Z"/>
      </g>
      <g>
        <path class="cls-6" d="M54.85,61.15l-2.47-1.07c-.19-.08-.41-.07-.59.05l-2.28,1.43c-.45.28-1.02-.07-.97-.6l.25-2.68c.02-.21-.06-.41-.23-.55l-2.06-1.73c-.4-.34-.25-.99.27-1.11l2.62-.59c.2-.05.37-.19.45-.38l1-2.5c.2-.49.87-.54,1.14-.09l1.37,2.31c.11.18.29.3.5.31l2.68.18c.53.04.78.66.43,1.05l-1.78,2.02c-.14.16-.19.37-.14.57l.66,2.61c.13.51-.38.95-.87.74Z"/>
        <path class="cls-5" d="M49.23,57.58c-.07-.12-.16-.23-.27-.32l-1.35-1.13c-.14-.12-.2-.3-.16-.48.04-.18.18-.32.36-.36l1.71-.38c.4-.09.73-.37.89-.75l.66-1.63c.07-.17.23-.29.41-.3.18-.01.36.08.45.23l.46.77-.12.07-.46-.77c-.07-.12-.19-.18-.32-.17-.13.01-.24.09-.29.22l-.66,1.63c-.17.42-.54.74-.98.84l-1.71.38c-.13.03-.23.12-.26.26-.03.13.01.26.11.35l1.35,1.13c.12.1.22.22.3.35l-.12.07Z"/>
        <path class="cls-5" d="M49.72,60.61c-.09,0-.17-.02-.25-.07-.16-.1-.24-.27-.23-.45l.13-1.34h.14s-.13,1.35-.13,1.35c-.01.13.05.26.16.33.11.07.25.07.36,0l1.49-.93c.38-.24.87-.28,1.29-.1l1.61.7c.12.05.26.03.36-.05.1-.09.14-.22.11-.35l-.43-1.7c-.11-.44,0-.91.3-1.25l1.16-1.32c.09-.1.11-.23.06-.36-.05-.12-.16-.2-.3-.21l-1.75-.12c-.18-.01-.36-.06-.52-.14l.06-.12c.15.07.3.11.47.13l1.75.12c.18.01.34.13.41.3.07.17.04.36-.08.5l-1.16,1.32c-.27.31-.37.73-.27,1.13l.43,1.7c.05.18-.01.36-.16.48-.14.12-.33.15-.5.08l-1.61-.7c-.37-.16-.82-.13-1.16.09l-1.49.93c-.08.05-.17.07-.26.07Z"/>
      </g>
      <g>
        <path class="cls-6" d="M47.63,69.06l-2.36.12c-.18,0-.35.11-.45.26l-1.24,2.01c-.24.39-.83.34-1-.1l-.84-2.21c-.07-.17-.21-.3-.39-.34l-2.3-.56c-.45-.11-.58-.69-.22-.98l1.84-1.48c.14-.12.22-.29.21-.48l-.18-2.36c-.03-.46.48-.76.86-.51l1.98,1.29c.15.1.35.12.52.05l2.19-.9c.43-.18.87.22.75.66l-.62,2.28c-.05.18,0,.37.11.51l1.53,1.8c.3.35.06.9-.4.92Z"/>
        <path class="cls-5" d="M41.81,68.42c-.1-.07-.22-.12-.34-.15l-1.5-.37c-.16-.04-.28-.16-.31-.32-.04-.16.02-.32.15-.42l1.2-.97c.28-.23.43-.58.41-.94l-.12-1.54c-.01-.16.07-.31.21-.4.14-.08.31-.08.45.01l.66.43-.07.1-.66-.43c-.1-.06-.22-.07-.32,0-.1.06-.16.17-.15.28l.12,1.54c.03.4-.14.79-.45,1.04l-1.2.97c-.09.07-.13.19-.11.3.03.12.11.2.22.23l1.5.37c.13.03.26.09.37.16l-.07.1Z"/>
        <path class="cls-5" d="M43.37,70.62c-.07.03-.15.05-.23.04-.16-.02-.3-.12-.36-.27l-.42-1.1.11-.04.42,1.1c.04.11.14.18.25.19.12.01.22-.04.29-.14l.81-1.31c.21-.34.58-.56.98-.58l1.54-.08c.12,0,.22-.07.26-.18.05-.11.03-.23-.05-.32l-1-1.18c-.26-.31-.35-.72-.25-1.11l.4-1.49c.03-.11,0-.23-.09-.31-.09-.08-.21-.1-.32-.05l-1.43.59c-.15.06-.3.09-.46.09v-.12c.14,0,.28-.03.42-.08l1.43-.59c.15-.06.32-.03.44.07.12.11.17.27.13.43l-.4,1.49c-.09.35-.01.72.22,1l1,1.18c.1.12.13.29.07.44-.06.15-.21.25-.37.25l-1.54.08c-.36.02-.69.22-.88.52l-.81,1.31c-.04.07-.1.12-.17.16Z"/>
      </g>
    </g>
    <g>
      <path class="cls-13" d="M127.93,79.28c.86.08,1.76.45,2.43.99,1.24,1,1.29,2.55,1.75,3.95.25.77.71,1.72,1.36,2.25,1.27,1.03,2.83,1.13,3.79,2.58,2.44,3.69.96,10-4.01,10.32-3.07.2-6.99-1.26-7.15-4.84-.23-4.98.22-15.72,1.84-15.24Z"/>
      <g>
        <path class="cls-12" d="M118.48,102.34l-4.76-.87c-.07-.01-.13.03-.15.1l-1.66,7.19s0,.07.02.1c.02.03.05.05.09.06l6.42.95s.08,0,.1-.03c.03-.02.04-.06.04-.1v-7.27c0-.06-.04-.12-.11-.13Z"/>
        <path class="cls-9" d="M114.95,102.06c0,.09-.08.17-.17.17s-.17-.08-.17-.17.08-.17.17-.17.17.08.17.17Z"/>
        <path class="cls-10" d="M117.3,102.56c0,.09-.08.17-.17.17s-.17-.08-.17-.17.08-.17.17-.17.17.08.17.17Z"/>
      </g>
      <path class="cls-22" d="M117.13,102.62h0s-.06-.03-.06-.06c0-.83-.13-3-.72-3.06-.68-.07-1.48,2.4-1.52,2.56,0,.03-.03.05-.06.05s-.06-.03-.06-.06c0-.06.57-1.92,1.22-2.5.15-.13.29-.19.43-.18.35.04.59.59.72,1.64.1.76.1,1.53.1,1.53,0,.03-.03.06-.06.06Z"/>
      <path class="cls-8" d="M123.62,90.73s-2.6,5.94-6.31,6.86c-.72.14-1.56.08-1.93.31-.43.27.09.98.3,1.53.21.54.29.29.38.12.09-.17-.3-.72.21-.94.51-.22.35.12.12.4-.24.29-.23.72-.22.75.02.02.4-.17.76-.34.31-.15.48-.55.53-.66.73-.09,5.32-.81,7.27-5.63,0,0,.19-4.79-1.12-2.4Z"/>
      <path class="cls-22" d="M134.44,104.8s-.05-.02-.06-.05c0-.02-.31-1.95-.91-2.29-.1-.05-.19-.06-.29-.02-.8.32-.39,2.14-.39,2.15,0,.03-.01.06-.04.07-.03,0-.06-.01-.07-.04-.02-.08-.43-1.93.46-2.29.13-.05.27-.04.39.03.64.37.95,2.29.96,2.37,0,.03-.02.06-.05.07,0,0,0,0,0,0Z"/>
      <polygon class="cls-7" points="135.26 104.61 132.19 104.33 131.51 104.71 132.09 105.44 134.9 105.15 135.26 104.61"/>
      <path class="cls-11" d="M134.82,123.34l.05,1.18c0,.22.17.41.39.45.37.07.97.16,1.56.15.26,0,.45-.25.39-.51-.11-.46-.32-1.16-.66-1.58l-1.29-.1c-.24-.02-.44.18-.43.42Z"/>
      <path class="cls-24" d="M125.76,108.89l-.32,1.27s.15,7.46.05,10.43c-.02.47-.17.92-.45,1.29l-1.43,1.96,3.38-1.65.1-.39-.47-.77,1.34-8.24c.08-.48.02-.98-.18-1.43l-.57-1.31-1.45-1.17Z"/>
      <path class="cls-25" d="M123.38,124.13l1.03.08c.19.02.38-.06.51-.2.35-.39,1.08-1.15,1.4-1.15.43,0,.26,1.52.26,1.52l.24.02.45-1.87c.11-.47-.09-.96-.5-1.22h0s-.15.72-.71,1c-.56.28-2.28,1.3-2.28,1.3,0,0-.2-.04-.42-.02-.33.03-.32.52,0,.54Z"/>
      <path class="cls-26" d="M130.13,109.85s3.65,8.45,4.18,10.36c.54,1.91.65,3.47.65,3.62,0,.23.26.47,1.05.53.4.03.62-.12.73-.26.09-.13.11-.29.05-.44-.21-.52-.87-2.18-1.1-2.93-.28-.89-.72-4.88-1.02-6.28-.3-1.4-.65-2.92-2.33-4.42,0,0-1.13-1.3-2.2-.17Z"/>
      <path class="cls-27" d="M128.47,96.33c-.74-4.77,2.26-7.19,2.26-7.19-.9-1.01-2.25-1.77-3.3-2.25-.94-.44-2.05-.28-2.83.4-.86.75-1.8,1.8-1.68,2.79.13,1.05,1.68,6.33,1.68,6.33,0,0,1.73.99,3.86-.07Z"/>
      <path class="cls-29" d="M130.8,98.84c-.34-1.39-2.27-2.51-2.27-2.51-2.13,1.07-3.86.07-3.86.07,0,0-.52,1.51-.36,2.96.17,1.45,1.19,10.79,1.19,10.79,2.71.77,7.02-.02,7.02-.02-1.51-3.25-1.39-9.92-1.73-11.3Z"/>
      <path class="cls-40" d="M127.28,83.94l.5,3.38c.06.36-.17.4-.53.43-.58.05-1.32.03-1.54-.45-.02-.05-.03-.1-.03-.16l-.17-2.83c-.01-.22.12-.43.34-.51l.77-.27c.3-.1.62.08.67.4Z"/>
      <polygon class="cls-54" points="136.75 111.96 137.8 111.36 135.26 104.61 134.66 105.02 136.75 111.96"/>
      <path class="cls-22" d="M133.89,105.54s0,0,0,0c-.03,0-.06-.03-.05-.06,0-.02.14-1.98-.42-2.61-.1-.12-.22-.18-.36-.19-.14,0-.26.04-.37.14-.6.56-.63,2.49-.63,2.51,0,.03-.03.06-.06.06-.03,0-.06-.03-.06-.06,0-.08.04-2.01.67-2.6.13-.12.29-.18.45-.17.17,0,.32.09.44.23.6.68.45,2.68.45,2.7,0,.03-.03.05-.06.05Z"/>
      <path class="cls-41" d="M129.26,90.99c.15.2,2.44,2.92,3.09,5.95.65,3.03.43,5.06.43,5.06,0,0-.66.5-.43.85.24.35.18.59.48.66.31.07.68.16.64-.44-.05-.6.67-.72.55-1.09-.12-.36.7-10.15-3.25-12.81-.02-.01-.04-.02-.06-.04-1.67.6-1.71,1.53-1.47,1.86Z"/>
      <polygon class="cls-18" points="131.5 104.73 134.66 105.02 136.75 111.96 132.22 112.08 131.5 104.73"/>
      <path class="cls-20" d="M136.81,111.86s0,0-.01,0c-.02,0-.04-.03-.03-.05l.2-.77-1.6-4.95s0-.05.03-.05c.02,0,.05,0,.05.03l1.6,4.97s0,.02,0,.02l-.21.78s-.02.03-.04.03Z"/>
      <path class="cls-20" d="M137.73,111.37s-.01,0-.02,0l-.55-.26s-.03-.04-.02-.06c.01-.02.04-.03.06-.02l.55.26s.03.04.02.06c0,.02-.02.02-.04.02Z"/>
      <path class="cls-42" d="M126.63,80.69s-1.25.34-2.28,1.94c-1.03,1.6-.54,2.47.2,2.68.74.21,1.87.35,3.21-.6,1.34-.94.49-4.4-1.12-4.02Z"/>
      <path class="cls-43" d="M127.29,84s.62-1.23,1.16-.63c.53.59-.65,1.12-1.1,1.28l-.05-.65Z"/>
      <path class="cls-28" d="M127.08,83.69s1.23-2.38-.98-2.7l-.57.29s-.63-1.49.8-1.97c1.42-.48,3.33.38,3.66,2.25.32,1.87-.16,2.99-1.22,3.72-1.06.73-1.32-.29-1.32-.29,0,0,.62-.73.47-1.19-.15-.46-.7,0-.7,0l-.13-.09Z"/>
      <g class="cls-52">
        <path class="cls-18" d="M137.27,93.42s0,0-.01,0c-.02,0-.03-.03-.03-.05.62-2.23-1.1-3.53-2.62-4.68-.02-.01-.02-.04,0-.05.01-.02.04-.02.05,0,1.54,1.16,3.28,2.48,2.65,4.76,0,.02-.02.03-.04.03Z"/>
        <path class="cls-18" d="M132.13,86.36s-.03,0-.03-.02c-.38-.61-.56-1.33-.73-2.02-.17-.68-.35-1.39-.72-2.01-.31-.53-.7-.94-1.11-1.38-.08-.08-.16-.17-.24-.25-.01-.02-.01-.04,0-.06.02-.01.04-.01.06,0,.08.09.16.17.24.25.41.44.8.85,1.12,1.39.37.63.55,1.34.72,2.03.17.68.35,1.39.72,1.99.01.02,0,.04-.01.05,0,0-.01,0-.02,0Z"/>
      </g>
    </g>
    <g>
      <path class="cls-31" d="M32.71,124.17c1.37.06,2.7.02,3.58-.02-.81-.57-2.67-1.82-4.22-2.32l-1.07-.06s-.36.55-.49,1.81c.18.22.69.53,2.19.6Z"/>
      <path class="cls-30" d="M36.3,124.15s0,0-.01,0c-.89.05-2.21.09-3.58.02-1.5-.07-2.02-.38-2.19-.6,0,.06-.01.12-.02.18-.02.28.18.52.46.54,1.12.08,3.91.28,5.25.21.18,0,.24-.24.1-.34Z"/>
      <path class="cls-32" d="M22.9,123.8c-.1-.64-.26-1.57-.39-1.81-.2-.37-.86,0-.86,0,0,0-.47.22-.68.58-.14.23-.52.89-.78,1.34-.03.05-.04.11-.04.16l2.67.09c.07-.1.1-.23.08-.37Z"/>
      <path class="cls-33" d="M20.15,124.08c0,.15.13.29.3.3l1.91.05c.2,0,.38-.1.47-.25l-2.67-.09Z"/>
      <path class="cls-47" d="M23.11,119.85c-.02.08-.37,1.75-.52,2.49-.04.2-.22.35-.43.34-.11,0-.24-.02-.38-.03-.24-.03-.43-.24-.44-.48-.02-.64-.04-1.88.2-2.36.33-.66,1.58.05,1.58.05Z"/>
      <path class="cls-35" d="M30.79,120.33c.15,0-.06.77.17,1.52.05.17.18.3.36.31.12,0,.25,0,.39-.01.21-.02.38-.18.4-.39l.18-1.96-1.49.53Z"/>
      <path class="cls-48" d="M34.94,99.46c-.07.32-2.4,13.94-2.54,20.99,0,.12-.09.22-.21.23-.3.04-.87.09-1.43,0-.08-.01-.13-.08-.14-.16-.08-1.31-.74-12.42.07-17.65,0,0-6.64,13.98-7.65,17.83-.02.09-.11.16-.21.15-.28-.02-.88-.07-1.35-.24-.17-.06-.26-.24-.22-.41.56-2.31,4.5-18.2,7.18-21.7l6.5.95Z"/>
      <path class="cls-46" d="M30.68,102.96s-.04,0-.06-.02c-.03-.03-.04-.09,0-.12l.89-.91s.09-.03.12,0,.04.09,0,.12l-.89.91s-.04.03-.06.03Z"/>
      <path class="cls-53" d="M30.36,81.53c2.61-.47,6.44.37,8.38.88,1.45.38,2.97.39,4.42-.01,1.12-.32,2-.82,2.7-1.41.35.58.92,1.44,1.64,2.22-2.93,3.56-8.35,4.35-8.35,4.35l-3.85,12.74c-.04.15-.19.23-.34.2l-6.85-1.48,2.27-17.49Z"/>
      <path class="cls-34" d="M49.07,75.67l-.69-.3s.03,3.43-2.53,5.62c.35.58.92,1.44,1.64,2.22,1.45-1.76,2.29-4.19,1.57-7.54Z"/>
      <path class="cls-49" d="M34.63,77.73s-.52,3.09-.59,4.06c0,0,2.5.69,3.15.32l-.08-3.74-2.48-.64Z"/>
      <path class="cls-51" d="M32.55,85.21l-2.19-3.68s-4.58,3.92-5.96,9.37l2.43,1.52c1-1.78,2.73-4.15,5.72-7.21Z"/>
      <path class="cls-39" d="M25.63,96.89c-.08-.24-.42-1.57,1.2-4.46l-2.43-1.52c-.52,2.04-.59,4.3.19,6.64,0,0,.46,2.66,1.38,3.2.93.54,1.35-.37,1.25-.58-.16-.35-.42-.9-.66-1.34-.07-.14-.06-.31.04-.43.1-.12.26-.18.41-.15.5.12.92-.09.93-.36l-2.33-1Z"/>
      <path class="cls-37" d="M37.44,74.89s.83,1.91.89,2.91.27,1.65-.89,1.85c-1.16.2-2.13-.38-2.66-1.37,0,0-.83-1.54-.64-2.17.19-.63,3.31-1.22,3.31-1.22Z"/>
      <path class="cls-36" d="M48.3,75.98l-1.05-2.03,1.34-3.53s.93.46.54,1.29c-.39.82.05,1.75.1,2.1.05.35.49,2.14-.93,2.17Z"/>
      <path class="cls-38" d="M32.82,75.66c.23-.19.39-.16.5-.1.03.02.06.01.09,0,0-.03-.1-2.09,2.72-2.13.29,0,.55-.19.66-.46.24-.62.74-1.56,1.33-.8.84,1.08,1.25,2.6-.59,3.19-.11.03-.22.07-.33.09-.75.3-1.63.49-1.95.62-.53.22.07,1.44.07,1.44h-.46s-.08.06-.08.1l.05.88s-.02.08-.06.09c-.14.04-.5.07-1.12-.26-.6-.32-.37-.56-.21-.66.04-.03.04-.09,0-.13-.86-.7-1.02-1.56-.63-1.89Z"/>
      <path class="cls-45" d="M35.21,77.74s-.32-1.22-.86-.88c-.55.34.28,1.37.72,1.41l.14-.53Z"/>
      <path class="cls-18" d="M37.97,74.92s-.02,0-.03-.01c-.02-.01-.02-.04,0-.06.35-.37.52-.77.49-1.17-.04-.71-.65-1.22-.66-1.23-.02-.01-.02-.04,0-.05.01-.02.04-.02.05,0,.03.02.64.54.69,1.28.03.43-.15.85-.52,1.23,0,0-.02.01-.03.01Z"/>
    </g>
    <g>
      <path class="cls-18" d="M112.09,64.63c-4.04,1.45-7.96,5.07-7.42,9.7.46,3.93,4.98,5.1,7.72,5.51.76.12,1.46.51,1.95,1.1,1.19,1.42,3.73,3.78,6.52,2.21.2-.11.11-.43-.12-.42-.74.03-1.79-.08-2.51-.77-.98-.95-.62-2.59.64-3.11,2.39-.97,6.89-3.61,6.3-9.6-.79-8.1-13.08-4.62-13.08-4.62Z"/>
      <path class="cls-44" d="M114.56,71.09s.2-2.71,2.9-2.26c2.56.42,1.74,3.92-1.86,6.15-.39.24-.87.28-1.3.1-1.58-.67-5.26-2.6-3.23-5.27,1.31-1.73,3.5,1.29,3.5,1.29Z"/>
      <path class="cls-20" d="M106.22,70.99s-.07,0-.1-.02c-.14-.06-.2-.21-.14-.35.83-1.95,2.86-4.54,7.84-5.81.14-.04.29.05.32.19.04.14-.05.29-.19.32-2.63.67-6.07,2.16-7.48,5.5-.04.1-.14.16-.25.16Z"/>
      <path class="cls-20" d="M105.63,74.59c-.13,0-.24-.1-.26-.23,0-.02-.07-.53,0-1.31.01-.15.14-.25.29-.24.15.01.25.14.24.29-.07.71,0,1.18,0,1.19.02.15-.08.28-.23.3-.01,0-.03,0-.04,0Z"/>
    </g>
    <g>
      <g>
        <path class="cls-54" d="M38.2,44.93s-.05.04-.09.11c-.03.07-.05.18-.1.28-.09.18-.15.37-.15.37h0c-.03.06-.04.12.03.15.07.03.12,0,.15-.06,0,0,.08-.18.17-.36.02-.05.04-.09.06-.13.02-.05.03-.07.04-.1.01-.03.02-.05.03-.07.01-.02.02-.03.02-.03l.03-.05c.03-.06.03-.12-.04-.15-.06-.03-.12,0-.15.05h0Z"/>
        <path class="cls-54" d="M37.42,46.35l-.4.69c-.03.06-.01.13.05.17.06.04.14.02.17-.04l.4-.69c.03-.06.01-.13-.05-.17-.06-.04-.14-.02-.17.04h0Z"/>
        <path class="cls-54" d="M36.65,47.76l-.49.62c-.04.05-.04.11.02.15.06.04.13.02.17-.03l.46-.66c.04-.05.05-.1-.01-.14-.06-.04-.09.03-.15.06h0Z"/>
        <path class="cls-54" d="M35.75,49.08l-.57.55c-.04.05-.06.1,0,.14.06.04.12.02.16-.03l.51-.62c.04-.05.08-.07.02-.12-.06-.04-.08.04-.13.06h0Z"/>
        <path class="cls-54" d="M34.42,49.97l-.5.65s0,.17.05.21c.05.05.15.07.2.03l.59-.54s-.03-.21-.08-.26c-.05-.05-.2-.25-.25-.09h0Z"/>
        <path class="cls-54" d="M33.42,51.22l-.66.49c-.05.04-.06.12-.02.17.04.05.12.06.17.02l.65-.49c.05-.04.07-.12.03-.17-.04-.05-.12-.03-.16-.03h0Z"/>
        <path class="cls-54" d="M31.94,52.05l-.64.45c-.06.03-.04.13,0,.18.04.06.13.09.19.06l.72-.4c.06-.03,0-.15-.03-.21-.04-.06-.02-.02-.24-.09h0Z"/>
        <path class="cls-54" d="M30.65,52.88l-.77.31c-.06.02-.09.09-.06.15.03.06.1.09.16.06l.77-.3c.06-.02.09-.1.06-.16-.03-.06-.1-.1-.16-.07h0Z"/>
        <path class="cls-54" d="M29.14,53.5l-.8.27c-.06.02-.1.08-.07.14.03.06.09.09.16.07l.78-.28c.06-.02.11-.08.08-.14-.03-.06-.13-.1-.14-.06h0Z"/>
        <path class="cls-54" d="M27.59,54.02l-.83.23c-.06.02-.11.08-.09.14.02.06.09.09.15.08l.8-.23c.06-.02.12-.08.1-.14-.02-.06-.08-.08-.13-.08h0Z"/>
        <path class="cls-54" d="M25.92,54.4l-.82.17c-.06.01-.1.08-.08.14.02.06.08.11.15.09l.83-.15c.06-.01.1-.09.08-.15-.02-.06-.1-.14-.15-.11h0Z"/>
        <path class="cls-54" d="M24.3,54.64s-.22.03-.43.04c-.21,0-.42,0-.42,0h0c-.07,0-.12.06-.11.12,0,.06.06.11.12.12,0,0,.22,0,.44,0,.21,0,.42-.02.42-.02.07,0,.12-.08.11-.14,0-.06-.08-.13-.13-.13h0Z"/>
        <path class="cls-54" d="M22.71,54.56s-.09,0-.17-.02c-.04-.01-.1-.01-.15-.03-.05-.01-.1-.03-.15-.04-.09-.04-.2-.07-.26-.11-.07-.03-.12-.06-.12-.06h-.01c-.06-.03-.13-.01-.16.04-.03.05,0,.12.06.15,0,0,.05.03.13.06.07.04.18.08.28.12.05.02.11.04.16.05.05.02.1.03.14.04.08.02.13.03.13.03.06.02.16-.03.18-.09s-.05-.1-.05-.15h0Z"/>
        <path class="cls-54" d="M21.29,53.82s-.06-.05-.1-.12c-.03-.03-.06-.07-.08-.11-.01-.02-.03-.04-.04-.06,0,0-.02-.03-.02-.02l-.02-.04s-.02-.05-.03-.07c0-.02-.01-.04-.02-.06-.01-.04-.02-.08-.02-.11,0-.07-.01-.11-.01-.11h0c0-.07-.06-.12-.12-.12-.06,0-.11.05-.11.11,0,0,0,.05.01.14,0,.04.01.09.03.14,0,.03.02.06.03.08,0,.03.02.05.03.07l.02.04s.02.03.03.04c.01.02.03.05.04.07.03.05.05.09.08.12.05.06.08.11.08.11.04.05.14.08.19.05.05-.03.07-.1.05-.14h0Z"/>
        <path class="cls-54" d="M21.15,52.4s.06-.19.14-.37c.1-.16.19-.33.19-.33h0c.03-.06,0-.12-.05-.16-.06-.03-.09-.1-.16.04h0s-.11.17-.22.34c-.08.18-.17.35-.17.35-.03.05.03.13.09.16.06.03.16.02.18-.04h0Z"/>
        <path class="cls-54" d="M21.92,51.02s.07.02.13-.02c.03-.02.08-.03.12-.05.04-.02.09-.03.13-.06.04-.02.09-.03.13-.05.04-.02.08-.03.12-.04.07-.02.11-.03.11-.03h.02c.06-.02.09-.08.07-.14-.02-.06-.08-.09-.14-.08,0,0-.06.01-.14.04-.04,0-.09.03-.14.05-.05.02-.1.04-.15.07-.05.03-.1.06-.14.08-.05.03-.08.05-.11.08-.06.05-.1.08-.1.08-.05.04-.09.05-.05.1.04.05.08,0,.13-.03h0Z"/>
        <path class="cls-54" d="M23.34,50.96s.08,0,.15.04c.02.01.05,0,.07.02.02.01.04.02.06.03.03.03.08.05.11.08.03.04.07.07.1.1.03.03.07.06.1.09.05.06.09.09.09.09h0c.04.06.1.08.15.04.05-.03.05-.1.01-.15,0,0-.04-.04-.09-.11-.03-.03-.06-.07-.09-.11-.04-.04-.08-.08-.12-.12-.04-.04-.09-.08-.14-.11-.04-.04-.08-.06-.12-.08-.07-.04-.12-.07-.12-.07-.05-.03-.16,0-.19.06-.03.05-.02.13,0,.18h0Z"/>
        <path class="cls-54" d="M24.44,52.11s.04.21.12.4c.06.19.1.39.1.39h0c.02.07.08.11.14.09.06-.01.09-.07.08-.13,0,0-.06-.2-.12-.41-.07-.19-.14-.39-.14-.39-.02-.06-.06-.1-.12-.09-.06.02-.07.07-.04.12h0Z"/>
        <path class="cls-54" d="M24.68,53.55s.07.27.08.47c0,.2.03.43.03.43v.02c.01.06.07.12.13.12.06,0,.11-.04.11-.1,0,0,0-.2,0-.41-.02-.2-.03-.4-.03-.4,0-.06-.11-.18-.17-.17-.06,0-.11.04-.15.04h0Z"/>
        <path class="cls-54" d="M24.76,55.11l-.11.88c0,.06.04.16.1.17.06.01.12,0,.13-.06l.12-.78c0-.06-.04-.19-.1-.2-.06-.01-.22-.15-.14,0h0Z"/>
        <path class="cls-54" d="M24.49,56.82l-.23.77c-.02.05.02.12.08.14.06.02.12,0,.13-.06l.23-.76c.02-.05-.02-.12-.07-.14-.06-.02-.09.06-.13.06h0Z"/>
        <path class="cls-54" d="M23.99,58.34s-.02.05-.04.12c-.03.07-.06.16-.1.25-.08.18-.15.37-.15.37-.02.05,0,.11.06.14.06.02.12,0,.14-.05,0,0,.08-.18.15-.37.04-.09.08-.19.1-.26.03-.07.04-.12.04-.12.02-.05,0-.11-.07-.14-.06-.02-.12,0-.14.05h0Z"/>
        <path class="cls-54" d="M23.38,59.8l-.34.72c-.02.05,0,.11.06.14.05.03.12,0,.14-.04l.34-.72c.02-.05,0-.11-.06-.14-.05-.03-.12,0-.14.04h0Z"/>
        <path class="cls-54" d="M22.68,61.23l-.39.7s0,.11.05.14c.05.03.12.01.14-.04l.39-.7s0-.11-.05-.14c-.05-.03-.12-.01-.14.04h0Z"/>
        <path class="cls-54" d="M21.89,62.6l-.44.67s-.01.11.04.14c.05.03.12.02.15-.03l.44-.67s.01-.11-.04-.14c-.05-.03-.12-.02-.15.03h0Z"/>
        <path class="cls-54" d="M20.97,63.9l-.48.63s-.02.11.03.14c.05.03.12.03.15-.01l.49-.63s.01-.11-.03-.14-.14-.04-.16.01h0Z"/>
        <path class="cls-54" d="M20,65.16l-.49.63s-.02.1.03.14.11.03.14-.02l.49-.63s.02-.11-.03-.14c-.05-.03-.11-.03-.15.02h0Z"/>
        <path class="cls-54" d="M19.03,66.44l-.46.65s-.02.1.03.14c.05.03.11.02.14-.02l.46-.65s.02-.1-.03-.14c-.05-.03-.11-.02-.14.02h0Z"/>
        <path class="cls-54" d="M18.12,67.76l-.43.67s-.01.1.04.13c.05.03.11.02.14-.03l.43-.67s.01-.1-.04-.13c-.05-.03-.11-.02-.14.03h0Z"/>
        <path class="cls-54" d="M17.27,69.11l-.4.69s0,.1.04.13c.05.03.11.01.14-.03l.4-.69s0-.1-.04-.13c-.05-.03-.11-.01-.14.03h0Z"/>
        <path class="cls-54" d="M16.49,70.5l-.37.71s0,.1.05.13c.05.03.11,0,.13-.04l.37-.71s0-.1-.05-.13c-.05-.03-.11,0-.13.04h0Z"/>
        <path class="cls-54" d="M15.77,71.93l-.33.72s0,.1.05.13c.05.02.11,0,.13-.04l.33-.72s0-.1-.05-.13c-.05-.02-.11,0-.13.04h0Z"/>
        <path class="cls-54" d="M15.12,73.38l-.3.74s0,.1.06.12c.05.02.11,0,.13-.05l.3-.74s0-.1-.06-.12c-.05-.02-.11,0-.13.05h0Z"/>
        <path class="cls-54" d="M14.54,74.87l-.26.75s.01.1.06.12c.05.02.11,0,.12-.05l.26-.75s-.01-.1-.06-.12c-.05-.02-.11,0-.12.05h0Z"/>
        <path class="cls-54" d="M14.04,76.39l-.22.77s.02.1.07.11c.05.02.1-.01.12-.06l.22-.77s-.02-.1-.07-.12c-.05-.02-.1.01-.12.06h0Z"/>
        <path class="cls-54" d="M13.63,77.94l-.17.78s.02.1.07.11c.05.01.1-.02.11-.06l.18-.78s-.02-.1-.07-.11c-.05-.01-.1.02-.11.06h0Z"/>
        <path class="cls-54" d="M13.3,79.51l-.13.79s.03.1.08.11c.05.01.1-.02.11-.07l.13-.79s-.03-.1-.08-.11c-.05-.01-.1.02-.11.07h0Z"/>
        <path class="cls-54" d="M13.07,81.09l-.08.8s.03.09.08.1c.05,0,.1-.03.1-.07l.08-.8s-.03-.09-.08-.1c-.05,0-.1.03-.1.07h0Z"/>
        <path class="cls-54" d="M12.93,82.7s0,.2-.02.4c0,.1,0,.2-.01.28,0,.08,0,.13,0,.13,0,.05.04.09.09.09.05,0,.09-.03.09-.08,0,0,0-.05,0-.13,0-.08,0-.17.01-.27,0-.2.02-.4.02-.4,0-.05-.04-.09-.09-.1-.05,0-.09.03-.1.08h0Z"/>
        <path class="cls-54" d="M12.89,84.31l.02.81s.04.09.09.09c.05,0,.09-.04.09-.08l-.02-.81s-.04-.09-.09-.09c-.05,0-.09.04-.09.08h0Z"/>
        <path class="cls-54" d="M12.96,85.93l.08.81s.05.08.1.08c.05,0,.09-.04.08-.09l-.08-.81s-.05-.08-.1-.08c-.05,0-.09.04-.08.09h0Z"/>
        <path class="cls-54" d="M13.15,87.55l.14.8s.05.08.1.07c.05,0,.08-.05.07-.09l-.14-.8s-.05-.08-.1-.08c-.05,0-.08.05-.07.09h0Z"/>
        <path class="cls-54" d="M13.46,89.16l.2.79s.06.08.11.07c.05,0,.08-.05.06-.1l-.2-.79s-.06-.08-.11-.07c-.05,0-.08.05-.06.1h0Z"/>
        <path class="cls-54" d="M13.9,90.75l.27.78s.06.07.11.06c.05-.01.07-.06.05-.1l-.27-.78s-.06-.07-.11-.06c-.05.01-.07.06-.06.1h0Z"/>
        <path class="cls-54" d="M14.49,92.3l.34.76s.07.06.11.05c.04-.02.06-.06.04-.1l-.34-.76s-.07-.06-.11-.05c-.04.02-.06.06-.04.11h0Z"/>
        <path class="cls-54" d="M15.21,93.81l.34.6s.07.06.12.04c.04-.02.06-.07.03-.11l-.34-.6s-.08-.06-.12-.04c-.04.02-.06.07-.03.11h0Z"/>
      </g>
      <g>
        <polygon class="cls-54" points="38.09 40.99 39.29 44.05 40.84 41.92 38.09 40.99"/>
        <path class="cls-18" d="M51.13,33.84l-5.4,10.48c-.1.2-.28.35-.5.42-.22.06-.45.04-.65-.07l-10.31-5.82c-.12-.07-.18-.2-.17-.33.02-.13.11-.24.25-.28l16.78-4.39Z"/>
        <polygon class="cls-54" points="38.09 40.99 51.13 33.84 39.75 41.94 40.05 42.8 38.09 40.99"/>
        <polygon class="cls-54" points="40.74 42.49 39.29 44.05 39.75 41.94 40.74 42.49"/>
      </g>
    </g>
  </g>
  <text class="cls-21" transform="translate(57.66 144.07)"><tspan x="0" y="0">Hotel</tspan></text>
</svg>