<?xml version="1.0" encoding="UTF-8"?>
<svg id="Layer_1" xmlns="http://www.w3.org/2000/svg" xmlns:xlink="http://www.w3.org/1999/xlink" viewBox="0 0 360 140">
  <defs>
    <style>
      .cls-1 {
        font-size: 15.96px;
      }

      .cls-1, .cls-2 {
        fill: #fff;
      }

      .cls-1, .cls-3 {
        font-family: Montserrat-Light, Montserrat;
        font-weight: 300;
      }

      .cls-4 {
        fill: url(#Degradado_sin_nombre_14-3);
      }

      .cls-5 {
        fill: #171717;
        font-family: Montserrat-Medium, Montserrat;
        font-size: 16.31px;
        font-weight: 500;
      }

      .cls-6 {
        letter-spacing: 0em;
      }

      .cls-6, .cls-7, .cls-8 {
        font-size: 10px;
      }

      .cls-7 {
        letter-spacing: -.02em;
      }

      .cls-9 {
        fill: url(#Degradado_sin_nombre_14-2);
        filter: url(#outer-glow-2);
      }

      .cls-10 {
        letter-spacing: 0em;
      }

      .cls-11, .cls-12 {
        font-size: 11px;
      }

      .cls-13 {
        letter-spacing: 0em;
      }

      .cls-14 {
        letter-spacing: 0em;
      }

      .cls-15, .cls-12 {
        letter-spacing: 0em;
      }

      .cls-16 {
        fill: url(#Degradado_sin_nombre_114);
      }

      .cls-17 {
        fill: url(#Degradado_sin_nombre_14);
      }

      .cls-18 {
        letter-spacing: -.02em;
      }

      .cls-19 {
        letter-spacing: -.02em;
      }

      .cls-20 {
        letter-spacing: -.01em;
      }

      .cls-21 {
        fill: #253a8a;
        filter: url(#drop-shadow-1);
      }

      .cls-22 {
        letter-spacing: 0em;
      }

      .cls-23 {
        letter-spacing: 0em;
      }

      .cls-24 {
        letter-spacing: 0em;
      }

      .cls-3 {
        fill: #010101;
      }
    </style>
    <filter id="drop-shadow-1" filterUnits="userSpaceOnUse">
      <feOffset dx="12" dy="12"/>
      <feGaussianBlur result="blur" stdDeviation="7"/>
      <feFlood flood-color="#010101" flood-opacity=".3"/>
      <feComposite in2="blur" operator="in"/>
      <feComposite in="SourceGraphic"/>
    </filter>
    <linearGradient id="Degradado_sin_nombre_114" data-name="Degradado sin nombre 114" x1="149.63" y1="-39.15" x2="214.34" y2="72.93" gradientUnits="userSpaceOnUse">
      <stop offset="0" stop-color="#524845"/>
      <stop offset=".28" stop-color="#3f3531"/>
      <stop offset=".73" stop-color="#281d19"/>
      <stop offset="1" stop-color="#201510"/>
    </linearGradient>
    <linearGradient id="Degradado_sin_nombre_14" data-name="Degradado sin nombre 14" x1="20.15" y1="-28.02" x2="103.13" y2="115.7" gradientUnits="userSpaceOnUse">
      <stop offset="0" stop-color="#6697cb"/>
      <stop offset=".07" stop-color="#578fc6"/>
      <stop offset=".23" stop-color="#3780bc"/>
      <stop offset=".4" stop-color="#1f74b5"/>
      <stop offset=".58" stop-color="#0d6cb0"/>
      <stop offset=".77" stop-color="#0367ad"/>
      <stop offset="1" stop-color="#0066ac"/>
    </linearGradient>
    <linearGradient id="Degradado_sin_nombre_14-2" data-name="Degradado sin nombre 14" x1="86.33" y1="37.69" x2="32.53" y2="68.75" gradientTransform="translate(96.89 -12.22) rotate(76.72)" xlink:href="#Degradado_sin_nombre_14"/>
    <filter id="outer-glow-2" filterUnits="userSpaceOnUse">
      <feOffset dx="0" dy="0"/>
      <feGaussianBlur result="blur-2" stdDeviation="6"/>
      <feFlood flood-color="#151b4a" flood-opacity=".75"/>
      <feComposite in2="blur-2" operator="in"/>
      <feComposite in="SourceGraphic"/>
    </filter>
    <linearGradient id="Degradado_sin_nombre_14-3" data-name="Degradado sin nombre 14" x1="40.81" y1="28.22" x2="71.86" y2="81.99" xlink:href="#Degradado_sin_nombre_14"/>
  </defs>
  <path class="cls-21" d="M297.83,27.39h-4.61v-5.96c0-10.91-8.84-19.75-19.75-19.75H57.26c-.16,0-.32,0-.48,0h0C27.47,1.68,3.49,25.66,3.49,54.97h0c0,24.32,16.52,44.98,38.89,51.3,3.94,1.29,8.14,1.99,12.49,1.99h1.9s0,0,0,0h0s0,0,0,0h241.05c22.24,0,40.43-18.19,40.43-40.43h0c0-22.24-18.19-40.43-40.43-40.43Z"/>
  <rect class="cls-2" x="14.44" y="27.39" width="323.82" height="80.86" rx="40.43" ry="40.43"/>
  <path class="cls-16" d="M78.9,1.68h188.6c14.19,0,25.71,11.52,25.71,25.71H78.9V1.68h0Z"/>
  <path class="cls-17" d="M110.06,55.18c-.12,29.21-24.05,53.07-53.28,53.07h0c-29.31,0-53.28-23.98-53.28-53.29h0C3.49,25.66,27.47,1.68,56.78,1.68h0c.16,0,.32,0,.48,0h0s52.8,0,52.8,0v53.28h0v.21h0Z"/>
  <text class="cls-1" transform="translate(145.52 19.62)"><tspan x="0" y="0">@</tspan><tspan class="cls-20" x="16.49" y="0">r</tspan><tspan class="cls-13" x="22.55" y="0">od</tspan><tspan class="cls-22" x="43.22" y="0">r</tspan><tspan x="49.37" y="0">igobru</tspan><tspan class="cls-14" x="102.06" y="0">n</tspan><tspan x="112.81" y="0">er</tspan></text>
  <text class="cls-5" transform="translate(195.14 57.03)"><tspan x="0" y="0">In</tspan><tspan class="cls-23" x="16.16" y="0">f</tspan><tspan class="cls-10" x="21.79" y="0">o</tspan><tspan class="cls-24" x="32.14" y="0">r</tspan><tspan x="38.71" y="0">mation</tspan></text>
  <g>
    <circle class="cls-9" cx="56.17" cy="55.1" r="31.05" transform="translate(-10.37 97.11) rotate(-76.72)"/>
    <path class="cls-4" d="M56.33,86.16c-17.12,0-31.05-13.93-31.05-31.05s13.93-31.05,31.05-31.05,31.05,13.93,31.05,31.05-13.93,31.05-31.05,31.05ZM56.33,27.39c-15.28,0-27.71,12.43-27.71,27.71s12.43,27.71,27.71,27.71,27.71-12.43,27.71-27.71-12.43-27.71-27.71-27.71Z"/>
    <g>
      <path class="cls-2" d="M39.93,48.54h7.05v22.67h-7.05v-22.67ZM43.46,37.27c2.26,0,4.08,1.83,4.08,4.08s-1.83,4.09-4.08,4.09-4.09-1.83-4.09-4.09,1.82-4.08,4.09-4.08"/>
      <path class="cls-2" d="M51.41,48.54h6.75v3.1h.1c.94-1.78,3.24-3.66,6.67-3.66,7.13,0,8.45,4.69,8.45,10.8v12.43h-7.04v-11.02c0-2.63-.05-6.01-3.66-6.01s-4.23,2.86-4.23,5.82v11.21h-7.04v-22.67Z"/>
    </g>
  </g>
  <text class="cls-3" transform="translate(129.81 70.33)"><tspan class="cls-11"><tspan x="0" y="0">Student at </tspan><tspan class="cls-18" x="60.65" y="0">C</tspan><tspan x="68.27" y="0">o</tspan><tspan class="cls-15" x="75.09" y="0">n</tspan><tspan x="82.5" y="0">es</tspan><tspan class="cls-19" x="94.32" y="0">t</tspan><tspan x="98.49" y="0">oga </tspan><tspan class="cls-18" x="122.06" y="0">C</tspan><tspan x="129.67" y="0">ollege</tspan></tspan><tspan class="cls-8" x="7.28" y="13.2">Mobile Solutions D</tspan><tspan class="cls-6" x="100.27" y="13.2">e</tspan><tspan class="cls-7" x="106.14" y="13.2">v</tspan><tspan class="cls-8" x="111.27" y="13.2">elop</tspan><tspan class="cls-12" x="132.8" y="13.2">m</tspan><tspan class="cls-11" x="144.52" y="13.2">ent</tspan></text>
</svg>