<?xml version="1.0" encoding="UTF-8"?>
<svg id="Layer_1" xmlns="http://www.w3.org/2000/svg" viewBox="0 0 150 150">
  <defs>
    <style>
      .cls-1 {
        fill: #2e3652;
      }

      .cls-2 {
        fill: #d58d5c;
      }

      .cls-3 {
        fill: #1c478a;
      }

      .cls-4 {
        fill: #243962;
      }

      .cls-5 {
        fill: #ba5727;
      }

      .cls-6 {
        fill: #82b379;
      }

      .cls-7 {
        fill: #a3c0e5;
      }

      .cls-8 {
        fill: #c1d7f0;
      }

      .cls-9 {
        fill: #c75548;
      }

      .cls-10 {
        fill: #231f20;
        font-family: HelveticaNeue-CondensedBold, 'Helvetica Neue';
        font-size: 18px;
        font-weight: 700;
      }

      .cls-11 {
        fill: #e3915a;
      }

      .cls-12 {
        fill: #cb7d45;
      }

      .cls-13 {
        fill: #e59a64;
      }

      .cls-14 {
        fill: #9e332a;
      }

      .cls-15 {
        fill: #2b488c;
      }

      .cls-16 {
        letter-spacing: -.07em;
      }

      .cls-17 {
        fill: #7ba3d6;
      }

      .cls-18 {
        fill: #e8f0fa;
      }

      .cls-19 {
        fill: #d76927;
      }

      .cls-20 {
        fill: #faebdb;
      }

      .cls-21 {
        fill: #fab17e;
      }

      .cls-22 {
        fill: #183660;
      }

      .cls-23 {
        fill: #a8d29f;
      }

      .cls-24 {
        fill: #d9935c;
      }

      .cls-25 {
        fill: #b2cbea;
      }

      .cls-26 {
        fill: #ee994b;
      }
    </style>
  </defs>
  <g>
    <path class="cls-20" d="M143.25,125.03s16.27-34.04-16.58-34.04c-17.35,0-10.7-15.99-22.5-27.61-11.8-11.62-54.95-18.13-63.73,4.31-8.78,22.44,15.65,40.34-5.33,37.41C9.92,101.6.02,125.03.02,125.03h143.24Z"/>
    <g>
      <g>
        <path class="cls-8" d="M72.65,78.67c.23-.23,1.89-.66,1.89-.66h0s2.65-5.39,4.33-8.18c.58-.96.97-4.66,1.37-6.68h0s.24-1.78,1.08-2.77c.56-.66,3.58-.98,3.58-.98,0,0,0,0,0,0,.1-.02.19-.04.28-.06.29-.06.57-.23.6-.52,0-.01,0-.03,0-.04.04-.36.05-.74.04-1.06,0,0,0,0,0-.01,0-.53-.05-.92-.05-.92h0s3.16-.51,3.16-.51c.04.99.1,1.72.16,2.27.05.42.39.74.81.77.06,0,.13,0,.19.01h0s2.04-.08,2.81.16c.88.27,2.82,2.39,2.82,2.39,0,0,0,0-.01,0,2.33,2.29,4.83,5.55,4.69,6.17-.19.88-3.51,5.85-4.71,6.77h-1.2s2.66-6.07,2.7-6.57c.03-.42-2.28-1.99-4.2-3.36-.03.1,0,.21.04.35,0,0,0,0,0,0,.17.47.64,1.2.28,2.37-.88,2.87-.82,3.26-.82,3.26-.02.01-.04.03-.06.04-.04.38-.1.78-.17,1.2,0,0,2.12,2.49,3.6,4l-4.89,4.88-8.31-4.88s.32-.9.66-1.83c.31-.85.62-1.71.71-1.91.04-.09.05-.39.03-.84-.07-.01-.79-2.15-1.25-3.61-.08-.24-.12-.41-.14-.58h0c-.4,1.93-.9,3.85-1.45,4.83-1.06,1.88-5.73,6.7-5.73,6.7h0c-.19.41-1.08.6-1.7,1.29,0,0-.63.64-1.82.55-.23-.02.42-1.82.65-2.05Z"/>
        <path class="cls-8" d="M88.55,113.72s-.94-10.06.29-15.63c0,0,.44-1.42-.42-4.19-1.43-4.6-1.03-12.14-.5-13.19.2-.4.8-.87,1.57-1.34,2.32-1.43,6.08-2.89,6.08-2.89,0,0,2.62,4.22,2.61,6.84-.01,2.52-4.36,14.28-4.52,16.09-.17,1.81-.25,6.63-3.17,14.31,0,0,.11,1.26.27,1.52.16.26.84,1.14,1.62,1.43.78.29,3.01.14,3.18.95h-7.85s-.11-1.21.19-2.01c.3-.8.65-1.89.65-1.89Z"/>
        <path class="cls-25" d="M85.79,58.78c1.31-.18,3.16-2.5,3.16-2.5l-3.17.42s0,.03,0,.09c.02.16.05.51.04.92,0,0,0,0,0,.01,0,.32,0,.69-.04,1.06Z"/>
        <path class="cls-8" d="M84.84,56.86s3.69,1.23,4.42-1.08c.73-2.31,1.7-3.71-.62-4.59-2.33-.88-3.06-.15-3.5.56-.43.71-1.24,4.73-.3,5.11Z"/>
        <path class="cls-8" d="M76.26,115.12c.22-.48,1.09-1.68,1.09-1.68,2.21-13.4,5.06-13.6,5.11-15.16.02-.51-.24-2.16-.57-4.22-.67-4.18-1.65-10.05-1.3-11.6.16-.7.41-1.57.69-2.42.64-1.97,1.4-3.92,1.4-3.92l8.69,2.7s-2.72,15.37-3.08,19.26c-.29,3.11-8.76,15.36-8.76,15.36.11.7-.45,1.94-.41,2.58.04.65-.35,1.6-.35,1.6,0,0-3.81.02-3.98,0-.17-.02,1.25-2.03,1.47-2.51Z"/>
        <path class="cls-8" d="M95.72,74.83s1.2,1.52,1.2,1.79-.19,1.66-.48,1.67c-.29.02-.45-1.17-.67-1.35-.23-.18-1.04-.51-1.15-.82-.11-.31-.1-1.29-.1-1.29h1.2Z"/>
        <polygon class="cls-8" points="101.19 117.63 106.95 100.85 102.97 96.28 102.97 81.59 94.38 77.02 87.02 73.1 78.27 82.42 80.06 92.85 74.02 103 68.57 108.85 72.65 117.63 101.19 117.63"/>
        <polygon class="cls-7" points="68.57 108.85 74.02 103 87.69 108.08 101.19 117.63 72.65 117.63 68.57 108.85"/>
        <polygon class="cls-25" points="87.69 108.08 106.95 100.85 101.19 117.63 87.69 108.08"/>
        <polygon class="cls-17" points="106.95 100.85 92.8 84.75 87.69 108.08 106.95 100.85"/>
        <polygon class="cls-25" points="80.06 92.85 92.8 84.75 87.69 108.08 80.06 92.85"/>
        <polygon class="cls-25" points="102.97 81.59 92.8 84.75 102.97 96.28 102.97 81.59"/>
        <polygon class="cls-7" points="92.8 84.75 78.27 82.42 80.06 92.85 92.8 84.75"/>
        <polygon class="cls-17" points="102.97 81.59 92.8 84.75 96.57 78.19 102.97 81.59"/>
        <polygon class="cls-7" points="84.09 71.85 81.73 78.74 96.57 78.19 84.09 71.85"/>
      </g>
      <rect class="cls-17" x="54.36" y="117.53" width="66.8" height="7.34" rx="1.18" ry="1.18"/>
      <g>
        <path class="cls-17" d="M52.13,98.54s3.34,2.49,3.99,2.33c.65-.15-2.44-2.68-2.44-2.68,1.16-.56,4.78-.21,4.78-.21,0,0,1.21,3.89,1.8,3.58.59-.31-1.24-3.39-1.24-3.39,1.3-.08,2.89.88,2.89.88,2.18,1.72-.14,4.43-.14,4.43,0,0,.45,1.34,1.82,2.56,0,0,1.96,1.45,2.1,4.05l-.36.03s-.57-2.44-1.61-3.58c-.04-.04-.09-.09-.15-.16-.17-.15-.28-.27-.36-.36-.51-.49-1.22-1.12-1.56-1.18,0,0,.02-.06.01-.17,0,.05,0,.11-.01.17-.12,1.37-2.77,2.56-4.4,2.81-1.63.25-1.13-.43-.57-1.42.56-1,2.34-1.44,2.75-1.9.41-.46-.43-.46-1.42-.01-.98.45-1.12,1.65-2.7,2.4-1.58.76-3.95-1.86-3.95-1.86,1.26-.06,3.05-1.43,2.99-1.85-.06-.42-3.05.72-3.56.78-.51.05-1.67-.58-1.85-2.64-.18-2.06,3.19-2.63,3.19-2.63Z"/>
        <path class="cls-17" d="M69.88,100.09s-3.69-2.07-1.97-4.87c0,0,1.38-1.72,2.85-2.17,0,0-.79,4.18,0,4.28.79.1.54-4.73.54-4.73,0,0,3.89-1.87,5.41-1.72,0,0-2.41,4.09-1.62,3.99.79-.1,3.49-4.23,3.49-4.23,0,0,3.99-.74,4.63,1.62.64,2.36-.39,3.54-.98,3.69-.59.15-4.38.1-4.28.59.1.49,2.66,1.28,4.09.84,0,0-1.58,3.89-3.64,3.69-2.07-.2-2.71-1.48-3.99-1.58-1.28-.1-2.22.25-1.58.59.64.34,2.81.11,3.84.99,1.03.88,1.87,1.42-.05,1.81-1.92.39-5.37.15-6.05-1.33-.03-.06-.06-.13-.09-.18.04.12.09.18.09.18-.35.21-.89,1.19-1.26,1.95-.05.13-.13.3-.26.54-.04.1-.08.18-.11.24-.69,1.69-.33,4.64-.33,4.64l-.41.11c-.91-2.95.69-5.37.69-5.37,1.03-1.92.98-3.59.98-3.59Z"/>
        <path class="cls-7" d="M46.43,86.92c.84-3.11,6.1-2.14,6.1-2.14,0,0,3.57,5.45,4.61,5.58,1.04.13-2.14-5.26-2.14-5.26,2.01-.19,7.14,2.27,7.14,2.27,0,0-.32,6.36.71,6.23,1.04-.13,0-5.64,0-5.64,1.95.58,3.76,2.85,3.76,2.85,2.27,3.7-2.6,6.42-2.6,6.42,0,0-.06,2.21,1.3,4.74,0,0,2.1,3.19.9,7.08l-.54-.15s.47-3.85-.42-6.09c-.04-.08-.09-.2-.16-.35-.16-.32-.27-.55-.34-.72-.49-1-1.19-2.3-1.65-2.57,0,0,.06-.08.11-.24-.04.08-.07.16-.11.24-.91,1.95-5.45,2.27-7.98,1.75-2.53-.52-1.43-1.23-.06-2.39,1.36-1.16,4.22-.85,5.06-1.31.84-.45-.39-.91-2.08-.78-1.69.13-2.53,1.82-5.26,2.08-2.73.26-4.8-4.87-4.8-4.87,1.88.58,5.26-.45,5.39-1.1.13-.65-4.87-.58-5.64-.78-.78-.19-2.14-1.75-1.3-4.87Z"/>
        <g>
          <path class="cls-8" d="M54.64,108c0,4.66,3.35,8.54,7.77,9.37.39.07.78.12,1.18.15.19.01.39.02.58.02,5.26,0,9.53-4.27,9.53-9.53h-19.06Z"/>
          <path class="cls-25" d="M64.31,116.69c-.33.06-.67.1-1.01.12-4.26-.26-7.64-3.79-7.64-8.12h2.02c0,3.98,2.85,7.29,6.62,7.99Z"/>
        </g>
        <rect class="cls-17" x="54.43" y="107.94" width="19.59" height=".29"/>
      </g>
    </g>
    <g>
      <g>
        <path class="cls-24" d="M32.67,95.01c.26.12.59.26.88.4.13-.24.32-.52.32-.52,0,0,3.8-6.42,4.12-7.92.1-.49.36-1.47.65-2.56.61-2.27,1.4-5.04,1.4-5.04l.26-1.12.88-3.83s-1.69.17-2.69.59c-.33.14-.58.3-.67.49-.73,1.6-1.45,5.64-1.97,8.52-.28,1.61-.5,2.85-.62,3.12-.32.74-1.28,4.79-2.11,6.79,0,0-.22.7-.48,1.08Z"/>
        <path class="cls-24" d="M33.56,95.44s.04.39-.09.63c-.13.24-.65.58-.73.41-.12-.23.82-1.04.82-1.04Z"/>
        <path class="cls-22" d="M36.5,122.71s1.31,1.02,1.85,1.22c.53.2,1.26.38,1.26.74h-2.54s-.69-.32-.98-.18c-.47.22-.86.19-1.18.19-.32,0-.34-1.08-.07-1.46.27-.38.47-.96.47-.96l1.19.45Z"/>
        <path class="cls-24" d="M46.85,75.89c.12-.36.2-.62.25-.74.02-.06.03-.09.03-.09,0,0,.04.03.09.11.36.45,1.59,2.39.67,6.87-.14.66-.32,1.38-.56,2.15,0,0,3.42-.6,4.38-1.25.04-.1.54-1.59.92-1.79.38-.2,1.09-.42,1.25-.34.16.08.46,1.21,0,1.79-.46.58-1.65,1.15-1.65,1.15,0,0-3.82,3.06-6.47,2.98-2.22-.07.23-8.17,1.09-10.83Z"/>
        <path class="cls-4" d="M34.79,73.01c1.49-.92-.67-2.95,0-5.91.67-2.95,3.12-2.4,4.92-3.34,1.31-.69,2.24,0,2.65.44,1.62-.12,3.52,2.16,3.52,2.16l-3.14,4.16.12,5.06s-2.71,4.03-5.32,3.92c-2.61-.11-5.39-4.85-2.74-6.48Z"/>
        <path class="cls-22" d="M43.34,117.74c1.21,3.41,1.98,4.58,1.98,4.58l1.62.39s-.49-1.83-.8-5.46c-.22-2.54-.19-5.57.54-8.53,2.51-10.17,1.28-17.29,1.28-17.29l-6.41,1.37-.3.06c.26,2.98.56,7.03.8,10.2.21,2.85.36,4.98.36,4.98-.99,2.8-.18,6.55.94,9.69Z"/>
        <path class="cls-3" d="M36.02,114.75c-.86,4.01-.71,7.5-.71,7.5,0,0,.27.36.51.41.26.06.68.04.68.04,0,0,.7-3.27,2.32-6.22,1.67-3.04,3.13-5.7,3.68-6.73,2.17-4.08,2.26-19.07,2.26-19.07l-6.6-.33c-.66,1.12-.95,2.95-1.02,5.03-.17,5.26,1.06,12.11,1.25,13.1,0,0,0,0,0,0,.01.08,0,.15-.04.22-1.31,2.6-1.77,3.46-2.33,6.05Z"/>
        <path class="cls-24" d="M47.65,92.17c-1.66-.02-6.18-.11-7.26-.47-1.34-.45-1.64-1.76-1.64-1.9,0-.03.11-.64.28-1.6.35-.73.52-1.17.53-1.63,0-.23-.03-.46-.1-.73-.14-.56-.44-1.29-.88-2.51-.16-.43-.26-.87-.33-1.31-.44-2.98.68-6.58,2.04-7.42.16-.1.54-.09.73-.13.35-.09.94-1.36.94-3.4l.16.03,2.65.52s-.06.83-.06,1.62c0,.65.04,1.28.19,1.35.19.02.3.03.3.03,0,0,0,0,0,.01.5.03,1.85.15,2.02.51l-.49,1.49-.14.43c.38.81.72,1.74.9,2.68.05.27.08.53.1.8.01.23.02.44,0,.65-.11,2.43-1.63,3.9,0,9.15.24.75.23,1.35.05,1.81Z"/>
        <path class="cls-26" d="M47.65,92.17c-.83,1.12-5.7,1.12-6.79.76-1.34-.45-2.12-2.98-2.12-3.12,0-.03.11-.64.28-1.6.12-.66.27-1.47.43-2.37.72-3.93,1.73-9.36,1.73-9.36,0,0,2.19,1.9,3.66,1.5,1.46-.4,1.86-1.39,1.86-1.39,0,0,0,.02.01.05.1.31.63,2.04.74,2.93,0,.04.01.1.02.18.03.28.06.79.11,1.45-.11,2.43-1.63,3.9,0,9.15.24.75.23,1.35.05,1.81Z"/>
        <path class="cls-12" d="M44.76,71.63s-.06.83-.06,1.62c-1.48-.04-2.27-1.4-2.59-2.15l2.65.53Z"/>
        <path class="cls-4" d="M41.84,70.82s-.78-1.23-.96-2.28c-.13-.75.25-3.53,3.04-3.13,0,0,.81.08,1.57.6.61.41,1.48,1.29.5,3.72l-.25.82-3.9.27Z"/>
        <path class="cls-24" d="M45.26,72.38s-3.51.06-3.51-2.13c0-2.19-.46-3.65,1.78-3.78,2.24-.13,2.68.7,2.86,1.43.18.73-.21,4.4-1.13,4.48Z"/>
        <path class="cls-4" d="M42.69,69.36c-1.48.38-2.11-.02-2.11-.02,0,0,.38-1.32.62-2.89,0,0,2.26-.79,3.9-.08.23-.2.64-.34,1.18.32.81.99.09,2.73.09,2.73-.33.04-.41-1.11-.59-1.66-.13-.41-.55-.83-.77-1.02-.07.25-.78,2.71-2.54,3.52,0,0,.81-.72,1.41-1.72-.34.39-.74.71-1.19.82Z"/>
        <path class="cls-19" d="M43.26,100.09c-.3,2.58-.44,8.93.39,11.32-2.65-.27-7.44-1.98-8.86-3.44.76-2.86,1.51-6.25,1.69-9.01.04-.66.11-1.47.2-2.38.36-3.73,1.02-9.25,1.59-13.8.56-4.48,1.03-8.04,1.03-8.04l1.29-.23s1.85,1.51,2.14,6.64c.3,5.13.97,15.11.53,18.95Z"/>
        <path class="cls-19" d="M45.19,74.64s1.43.03,1.94.42c.49.38,1.82,2.9,1.63,6.67.14.62.28,1.26.4,1.9.36.09.87-.04.87-.04,0,0,.27,2.57-.28,4.39.02.27.03.55.04.81.17,5.57-1.89,13.41-1.89,13.41,0,0-.7-6.29-1-13.22-.2-4.75.5-7.69-.31-10.18-.38-1.17-1.39-4.16-1.39-4.16Z"/>
        <path class="cls-22" d="M46.85,122.42s1.45,1.31,1.99,1.5c.53.2,1.26.38,1.26.74h-2.54s-.69-.32-.98-.18c-.47.22-.86.19-1.18.19-.32,0-.34-1.08-.07-1.46.27-.38-.01-.89-.01-.89l1.53.1Z"/>
        <g>
          <path class="cls-22" d="M51.24,82.29l1.12-3.36c.02-.05.08-.08.13-.07l1.49.49c.05.02.08.08.07.13l-1.12,3.36c-.02.05-.08.08-.13.07l-1.49-.49c-.05-.02-.08-.08-.07-.13Z"/>
          <rect class="cls-3" x="50.96" y="80.06" width="3.75" height="1.77" rx=".19" ry=".19" transform="translate(-40.66 105.5) rotate(-71.58)"/>
        </g>
        <path class="cls-24" d="M53.97,80.96s-.3-.62-.85-.37c-.55.25-.31,1.2.01,1.53.32.33.41.48.41.48l.43-1.64Z"/>
        <path class="cls-5" d="M36.69,96.58c.36-3.73,1.02-9.25,1.59-13.8.47-.37.96-.51.96-.51,0,0,3.14,9.09-2.55,14.31Z"/>
        <path class="cls-19" d="M39.31,74.74s-1.27.28-1.9,1.19c-.83,1.21-2.17,10.24-2.88,11.79-.71,1.55-1.04,2.22-1.04,2.22,0,0-.38,2.4,2.01,3.81,0,0,2.88-5.23,3.26-5.99.38-.75,1.58-11.41.56-13.02Z"/>
        <path class="cls-24" d="M32.67,95.01s-1.08.75-1.16,1.01c-.09.26.31.96.65.95.34-.01.25-.55.44-.73.19-.17,1.07-.36.95-.84-.12-.48-.88-.4-.88-.4Z"/>
      </g>
      <g>
        <g>
          <path class="cls-23" d="M21.31,71.48s3.99-.03,4.96,1.31c.96,1.35,3.07,8.6,1.97,11.02-1.1,2.41-3.16-1-4.3-2.48-1.14-1.48-2.62-9.85-2.62-9.85Z"/>
          <path class="cls-21" d="M21.35,70.88v.41s.11,1.29-1.48,1.48c-1.59.19-2.8-.5-2.75-1.5.14-.77.3-1.3.31-1.94,0-.24-.01-.49-.06-.77l3.08-.06.91.15v2.23Z"/>
          <path class="cls-11" d="M21.36,68.64v2.23c-.34.15-.71.25-1.12.25-1.42,0-2.33-1.04-2.81-1.79,0-.24-.01-.49-.06-.77l3.08-.06.91.15Z"/>
          <path class="cls-21" d="M17.14,68.06c.36,1.92,2.84,1.86,3.91,1.74.3-.03.49-.07.49-.07.34-.09.53-.63.62-1.33.18-1.39-.05-3.43-.28-3.95-.35-.79-1.02-1.63-3.52-1.02-2.5.61-1.68,2.17-1.22,4.64Z"/>
          <path class="cls-4" d="M18.63,124.78s-.15-1.15-.49-1.83c-.34-.68-2.52-.25-2.52-.25,0,0-.43.37-.53,2.11l3.53-.03Z"/>
          <path class="cls-4" d="M26.04,124.76c-.51-.31-.22-2.64-.22-2.64,0,0,2.38-1.9,2.71-.45.33,1.46,2.26,2.11,3.36,2.29.76.12,1,.54,1.07.79h-6.92Z"/>
          <path class="cls-6" d="M25.39,76.89s2.01,4.19,1.97,5.21c0,0-.71-.68-1.97-.59-1.26.09,0-4.63,0-4.63Z"/>
          <path class="cls-11" d="M21.05,69.8c.3-.03.49-.07.49-.07.34-.09.53-.63.62-1.33-.64.16-.93.65-1.05.86-.06.09-.07.31-.06.54Z"/>
          <path class="cls-21" d="M22.67,70.89s1.39-2.29.31-2.39c-1.08-.1-1.52.63-1.67.9-.16.27.04,1.48.04,1.48h1.32Z"/>
          <path class="cls-15" d="M21.11,107.85c.1.53.16.97.17,1.29.22,4.32,3.63,14.18,4.24,14.41.94.36,2.43-.4,3.21-.65.32-.1.54-.43.47-.76-1.69-7.77-2.31-18.95-2.54-25.57-.11-3.33-.69-5.64-.69-5.64,0,0-8.32-2.22-8.37.59-.04,2.48,2.76,12.23,3.5,16.33Z"/>
          <path class="cls-4" d="M21.11,107.85l5.56-11.28c-.11-3.33-.69-5.64-.69-5.64,0,0-8.32-2.22-8.37.59-.04,2.48,2.76,12.23,3.5,16.33Z"/>
          <path class="cls-15" d="M22.96,91.53l-4.4,31.88s-1.93.47-3.43.09c0,0-1.29-16.95-1.18-21.05.11-4.1-.92-10.97.24-11.73,1.16-.76,8.78.81,8.78.81Z"/>
          <path class="cls-23" d="M13.54,89.81c.33-3.77.26-7.07.52-9.62-1.96-2.32-2.97-5.34-2.2-6.45,1.25-1.79,5.25-2.47,5.25-2.47,0,.66,1.44,1.49,2.59,1.42.19-.01.37-.05.53-.11.38-.92.63-1.53.63-1.53,0,0,.46-.94,2.09-.4,0,0,.05.83,0,2.06,0,.02,0,.05,0,.07,1.24,1.13,2.73,2.83,2.73,4.47,0,2.31.03,4.25.07,5.89.05,1.82.11,3.26.18,4.39.2,3.35.42,4.06.28,4.05,0,0-1.28,1.16-4.64,1.14-2.12-.01-3.84-.25-5.12-.51-1.72-.36-2.64-.77-2.64-.77-.37,0-.29-1.28-.26-1.63Z"/>
          <path class="cls-4" d="M22.65,62.61s-1.1-.08-2.4-.65c-1.05-.46-2.38.05-2.81.27.01-.07.04-.16.11-.26,0,0-.19.14-.22.33-.02.01-.03.02-.02.03,0,0-.22-.04-.36.02,0,0,.1-.01.13.05,0,0,0,.01.02.02-1.64.79-1.8,3.39-1.27,3.99.64.72,1.4,2.35,1.4,2.35,0,0,.28-.38.16-1.02-.12-.64.43-.64,1.13-.93.69-.29.12-1.1.72-1.59.61-.49,2.83-.2,2.81-.58.83-.3.61-1.96.61-2.04Z"/>
          <path class="cls-6" d="M16.63,83.28c.65,2.62,7.71,3.97,9.31,4.25-.07-1.14-.13-2.58-.18-4.39l-9.13.15Z"/>
          <path class="cls-21" d="M18.18,84.13c-.07,0-1.57-.22-1.84-.36-.27-.13-1.5-1.88-.69-2.33.81-.45,2.97,1.34,2.97,1.34l-.44,1.34Z"/>
          <path class="cls-23" d="M27.31,84.65s-5.8.31-9.7-.52c0,0-.1-1.13,1.13-1.63,0,0,6.07-1.29,7.53-.93,1.46.36,1.04,3.07,1.04,3.07Z"/>
          <path class="cls-6" d="M13.98,80.1c1.2,1.45,2.78,2.64,4.52,2.92h0c3.61-1.63,4.34-7.23,4.46-10.3,0,0-1.71,6.2-4.03,8.36-.42.39-.86.65-1.32.72,0,0-2.93-.83-3.55-1.61-.04-.06-.07-.08-.08-.09Z"/>
        </g>
        <path class="cls-6" d="M15.18,76.58s1.81,2.27,2.89.25c0,0-1.13,1.1-2.89-.25Z"/>
      </g>
    </g>
    <path class="cls-1" d="M159.57,125.12H-8.37c-.14,0-.25-.11-.25-.25h0c0-.14.11-.25.25-.25h167.94c.14,0,.25.11.25.25h0c0,.14-.11.25-.25.25Z"/>
    <g>
      <g>
        <polygon class="cls-13" points="129.76 118.05 128.87 121.81 127.53 121.8 127.49 118.05 129.76 118.05"/>
        <polygon class="cls-13" points="118.51 118.21 115.97 121.81 114.98 120.54 116.51 117.71 118.51 118.21"/>
        <path class="cls-22" d="M125.12,68.63c.46-.26,1.02-.29,1.4-.27-.1-.1-.3-.14-.3-.14.24-.04.78.2.78.2,3.34-1.29,3.86,3.63,3.79,4.77-.07,1.14,1.12,1.51,2.86,2.41,3.31,1.72,3.6,4.02,3.6,4.02-.03.02-.05.03-.08.05-.16-.28-.5-.8-.79-.88.01.03.34.72.46,1.12-.98.74-2.81,2.39-4.08,3.56,0-.23,0-.55-.09-.72l-.16.95c-.68.63-1.15,1.07-1.15,1.07.08-.92-4.17-5.79-6.4-7.25-.54-.8-.73-2.2-.75-2.31.09,1.12.28,1.74.45,2.09-1.88-1.73-.79-7.97.44-8.67Z"/>
        <path class="cls-13" d="M125.11,77.59s1.07.57,1.89.34c.77-.21,1.27-1.2,1.26-1.21-.32-.06-.42-.51-.41-2.43l-.15.03-2.47.49s.06.78.06,1.51c0,.61-.04,1.2-.18,1.26Z"/>
        <path class="cls-2" d="M125.22,74.82s.06.78.06,1.51c1.38-.04,2.11-1.3,2.41-2l-2.47.49Z"/>
        <path class="cls-22" d="M127.95,74.06s.72-1.14.9-2.12c.12-.7-.23-3.29-2.83-2.91,0,0-.76.07-1.47.55-.56.38-1.38,1.2-.47,3.46l.24.76,3.63.26Z"/>
        <path class="cls-15" d="M115.39,119.55l1.31.04,1.42.04s3.27-3.64,5.11-9.48c.04-.14.09-.27.14-.41,1-2.93,3.09-6.6,4.18-9.93.17-.53.33-1.03.47-1.5.05-.15.09-.3.13-.45.81-2.81,1.04-4.65,1.26-6.62l-7.92.06s-1.28,13.46-6.09,28.25Z"/>
        <path class="cls-18" d="M122.58,86.75c.02,3.77-.55,5.39-.55,5.39,0,0,3.39,1.72,7.42.45.05-.01,3.11-.71,3.11-.71-.07-.15-1.11-2.68-1.17-2.82-.85-1.83-.83-2.69-.93-3.25-.19-1.05-.19-2.13-.1-3.16.25-2.71.98-4.96.98-4.96-1.1-.25-2.13-.69-3.27-1.12-.26.33-1.07.67-1.76.65-.8-.02-1.06-.36-1.02-.74-.86.48-1.54.93-1.54.93-.73,1.26-2.2,2.49-2.31,4.43-.03.48,1.15,4.81,1.15,4.91Z"/>
        <path class="cls-9" d="M117.98,81.15c1.16-1.36,4.18-4.3,7.29-4.67l-2.68,5.23s-.15.9-.95,1.42c-1.95,1.28-4.42,1.84-4.42,1.84,0,0-1.68-.73-3.97-2.41-.72-.53-1.98-2.54-1.98-2.54l.34-1.14s2.15,1.2,2.91,1.55c.44.2,1.44.67,2.15,1,.45.21.99.1,1.31-.28Z"/>
        <path class="cls-13" d="M124.76,75.51s3.27.05,3.27-1.98c0-2.04.43-3.4-1.66-3.52-2.09-.12-2.49.66-2.66,1.34-.17.68.2,4.1,1.05,4.17Z"/>
        <path class="cls-22" d="M124.88,69.96s.89,2.39,2.27,2.74c1.37.35,1.97-.01,1.97-.01,0,0-.2-2.08-.41-3.54,0,0-3.15-.32-3.82.81Z"/>
        <path class="cls-22" d="M125.11,70.15s-.67.53-.83,1.05c-.16.52-.24,1.59-.55,1.55,0,0-.67-1.62.08-2.54.8-.97,1.29-.06,1.29-.06Z"/>
        <path class="cls-13" d="M111.61,78.89s-.46-1.66-2.29-1.43c-.21.07-.82.31-.43.96.29.48.41.23.87.88.45.65.95.8,1.51.72l.34-1.14Z"/>
        <path class="cls-13" d="M128.92,121.6s-.11.74.17,1.54c0,0,.22,1-.76,1.02-.98.02-1.22-.07-1.11-.69.11-.61.32-1.67.32-1.67l1.38-.2Z"/>
        <path class="cls-14" d="M127.12,124.58s.02.01.06.03h1.92s.05-.03.05-.03c.11-.5-.07-1.44-.07-1.44-1.11,1.02-1.81-.03-1.81-.03-.18.44-.16,1.47-.16,1.47Z"/>
        <path class="cls-13" d="M112.62,123.57s1.81-2.01,2.37-3.03l1.35.69-3.01,2.83-.7-.09v-.39Z"/>
        <path class="cls-14" d="M111.49,124.61h2.48c.24-.18.46-.59.74-1.15.15-.3.48-.46.82-.55v1.67h.51l.49-1.78c.32-.59.03-1.12-.2-1.59-.26,0-.97.18-2.31,1.69-.44.49-.93.67-1.41.66,0,0-.01,0-.02.01-.81.36-1.04.81-1.1,1.03Z"/>
        <path class="cls-9" d="M125.28,76.48s-1.89,4.67-1.95,5.62c-.06.95-.22,15.46-.22,15.46,0,0,.11.67-1.17.39-1.28-.28-1.61-.56-1.61-.56,0,0,1.22-8.95.89-12.07-.33-3.11,2.56-8.19,2.56-8.19l1.5-.65Z"/>
        <path class="cls-4" d="M116.69,119.59l1.42.04s3.27-3.64,5.11-9.48c.04-.14.09-.27.14-.41,1-2.93,3.09-6.6,4.18-9.93.17-.53.33-1.03.47-1.5.05-.15.09-.3.13-.45l-1.17-.89s-3.5,5.67-4.59,11.01c-.94,4.64-4.71,10.21-5.69,11.6Z"/>
        <path class="cls-15" d="M126.85,108.48c-.02,2.6.11,8.56.45,11.03h1.25c.69,0,1.04,0,1.04,0,.85-4.3,1.45-7.85,1.89-10.91.36-2.51.68-4.67.93-6.52.25-1.87.42-3.43.48-4.75,0-.21.02-.41.02-.61,0-.2,0-.39,0-.58l-6.84-.67c.09,4.55.79,11.5.78,13.01Z"/>
        <path class="cls-4" d="M128.55,119.52c.69,0,1.04,0,1.04,0,.85-4.3,1.45-7.85,1.89-10.91.36-2.51.68-4.67.93-6.52.25-1.87.42-3.43.48-4.75l-2.51,1.48s1.6.57.99,4.85c-.61,4.28-1.97,15.26-2.82,15.87Z"/>
        <path class="cls-9" d="M128.23,97.28s.48,1.74,2.15,1.52c1.67-.22,4.04-1.22,4.04-1.22,0,0-.71-2.25-1.6-5.21-1.07-3.58-2.4-8.2-3.03-11.11-.18-.82-.3-1.5-.34-1.99l-1.38-2.69s-2.06,4.63-2.17,5.8c-.11,1.17,2.34,14.9,2.34,14.9Z"/>
        <path class="cls-13" d="M129.9,82.2l-1.83-5.62s2.31.68,3.46,1.27c0,0,.72.93,1.17,3.09,0,0,.47,5.17-.58,7.06,0,0-3.34.67-8.67-1.17v-1.22s5.84.31,7.03.44l-.59-3.84Z"/>
        <path class="cls-14" d="M128.3,84.83c.07,1.89.52,5.56,4.49,7.52.01,0,.02.01.03.01-1.07-3.58-2.4-8.2-3.03-11.11-.73,1.09-1.53,2.53-1.49,3.57Z"/>
        <path class="cls-9" d="M128.07,76.58s3.39.24,4.2,2.05c.82,1.82,1.08,7.86.04,9.64,0,0-1.43.41-3.96-.07-.03,0-.06-.01-.09-.02,0,0-.81-1.97-.08-2.36,0,0,2.13.11,1.91-.59-.22-.7-2.01-8.65-2.01-8.65Z"/>
        <path class="cls-13" d="M124.05,85.93s-.47-.56-.56-1.14c-.1-.58-.41-1-1.21-1.11-.8-.11-1.15-.12-1.15.11s.66,1.81,1.81,2.75c1.15.94,1.11-.61,1.11-.61Z"/>
      </g>
      <path class="cls-14" d="M110.48,79.16s-.05,0-.08-.02l-12.6-7.65c-.07-.04-.1-.14-.05-.21.04-.07.14-.1.21-.05l12.6,7.65c.07.04.1.14.05.21-.03.05-.08.07-.13.07Z"/>
    </g>
    <path class="cls-13" d="M109.09,78.43s-.33-.46.13-.44c.47.02,1.54.33,1.54.33,0,0,.39,1.22-.71,1.08,0,0-.33-.7-.96-.97Z"/>
    <polygon class="cls-25" points="92.28 72.12 93.25 67.89 90.06 70.63 92.28 72.12"/>
  </g>
  <text class="cls-10" transform="translate(10.36 143.86)"><tspan class="cls-16" x="0" y="0">T</tspan><tspan x="7.31" y="0">ourist attractions</tspan></text>
</svg>