<?xml version="1.0" encoding="UTF-8"?>
<svg xmlns="http://www.w3.org/2000/svg" xmlns:xlink="http://www.w3.org/1999/xlink" viewBox="0 0 150 150">
  <defs>
    <style>
      .cls-1, .cls-2 {
        fill: none;
      }

      .cls-3, .cls-4, .cls-5, .cls-6 {
        font-weight: 700;
      }

      .cls-3, .cls-7 {
        fill: #f58a82;
      }

      .cls-3, .cls-5 {
        font-size: 17.05px;
      }

      .cls-3, .cls-5, .cls-6 {
        font-family: Montserrat-Bold, Montserrat;
      }

      .cls-8, .cls-9, .cls-10, .cls-11, .cls-12, .cls-13, .cls-14, .cls-15 {
        mix-blend-mode: multiply;
      }

      .cls-8, .cls-13 {
        opacity: .49;
      }

      .cls-16 {
        fill: url(#linear-gradient-3);
      }

      .cls-17 {
        fill: url(#linear-gradient-2);
      }

      .cls-9 {
        opacity: .75;
      }

      .cls-10 {
        opacity: .37;
      }

      .cls-10, .cls-18, .cls-12 {
        fill: #82c0e9;
      }

      .cls-2 {
        stroke: #253e89;
        stroke-miterlimit: 10;
        stroke-width: .75px;
      }

      .cls-19 {
        font-size: 3.68px;
      }

      .cls-20 {
        fill: #d2d3d4;
      }

      .cls-21 {
        font-size: 5.22px;
      }

      .cls-22 {
        fill: #fdcf95;
      }

      .cls-23, .cls-24, .cls-25, .cls-6 {
        fill: #fff;
      }

      .cls-23, .cls-14 {
        opacity: .31;
      }

      .cls-24 {
        opacity: .3;
      }

      .cls-11 {
        fill: #20b35b;
        opacity: .43;
      }

      .cls-26 {
        fill: #2b90cf;
      }

      .cls-27 {
        isolation: isolate;
      }

      .cls-28 {
        clip-path: url(#clippath-1);
      }

      .cls-29 {
        fill: url(#linear-gradient);
        opacity: .51;
      }

      .cls-30 {
        letter-spacing: 0em;
      }

      .cls-13, .cls-14, .cls-15 {
        fill: #f9aa1a;
      }

      .cls-15 {
        opacity: .22;
      }

      .cls-4 {
        fill: #231f20;
        font-family: HelveticaNeue-CondensedBold, 'Helvetica Neue';
        font-size: 18px;
      }

      .cls-31 {
        letter-spacing: 0em;
      }

      .cls-32 {
        fill: #9ad3b5;
      }

      .cls-5 {
        fill: #b71e44;
      }

      .cls-33 {
        letter-spacing: 0em;
      }

      .cls-34 {
        fill: #32baec;
      }

      .cls-35 {
        letter-spacing: 0em;
      }

      .cls-36 {
        opacity: .73;
      }

      .cls-37 {
        fill: #f36c21;
      }

      .cls-38 {
        fill: #1c75bc;
      }

      .cls-39 {
        letter-spacing: -.02em;
      }

      .cls-40 {
        letter-spacing: -.01em;
      }

      .cls-41 {
        letter-spacing: 0em;
      }

      .cls-42 {
        fill: #92c7c1;
      }

      .cls-43 {
        letter-spacing: .02em;
      }

      .cls-44 {
        letter-spacing: .02em;
      }

      .cls-45 {
        clip-path: url(#clippath);
      }

      .cls-46 {
        letter-spacing: .05em;
      }
    </style>
    <linearGradient id="linear-gradient" x1="71.46" y1="114.25" x2="70.98" y2="34.3" gradientUnits="userSpaceOnUse">
      <stop offset="0" stop-color="#52c4c6" stop-opacity=".6"/>
      <stop offset=".99" stop-color="#82c0e9" stop-opacity=".2"/>
    </linearGradient>
    <linearGradient id="linear-gradient-2" x1="76.57" y1="125.18" x2="76.41" y2="100.22" gradientUnits="userSpaceOnUse">
      <stop offset=".01" stop-color="#82c0e9" stop-opacity="0"/>
      <stop offset="1" stop-color="#52c4c6"/>
    </linearGradient>
    <linearGradient id="linear-gradient-3" x1="76.55" y1="123.22" x2="76.43" y2="104.22" xlink:href="#linear-gradient-2"/>
    <clipPath id="clippath">
      <rect class="cls-1" x="29.22" y="64.29" width="90.15" height="49.27"/>
    </clipPath>
    <clipPath id="clippath-1">
      <rect class="cls-1" x="29.22" y="64.29" width="90.15" height="49.27"/>
    </clipPath>
  </defs>
  <g class="cls-27">
    <g id="Layer_1">
      <g>
        <path class="cls-29" d="M27.36,109.88c4.61.2,9.33-.07,13.73-.05,10.18.04,20.37.08,30.55.12,10.43.04,20.89-.1,31.3-.03,8.81.06,18.09,1.27,25.86-3.27,4.64-2.71,7.78-7.22,8.36-12.01.58-4.78-1.41-9.75-5.29-13.22-1.22-1.09-2.62-2.05-3.54-3.33-1.85-2.56-1.42-5.89-.3-8.75,1.11-2.86,2.84-5.56,3.45-8.53.85-4.14-.68-8.6-4.01-11.69-3.33-3.09-8.39-4.74-13.28-4.34-4.71.39-8.59,2.69-13.09,3.63-5.33,1.12-9.61-.6-14.28-3-7.4-3.79-15.84-7.17-24.69-5.97-7.42,1.01-14.09,5.42-17.1,11.31-1.04,2.03-1.82,4.38-4.03,5.54-3.43,1.8-7.67-.39-11.55-1.32-5.54-1.32-11.88.3-15.67,4-3.79,3.7-4.83,9.3-2.57,13.83,1.46,2.94,4.25,5.88,3.17,8.94-.85,2.4-3.75,3.73-5.76,5.56-5.13,4.68-3.65,12.85,1.75,17.3,4.69,3.87,10.74,4.99,17.01,5.26Z"/>
        <g class="cls-36">
          <path class="cls-17" d="M149.16,113.39c0-2.19-27.16-3.96-60.67-3.96-4.11,0-8.12.03-12,.08-3.88-.05-7.89-.08-12-.08-33.51,0-60.67,1.77-60.67,3.96,0,1.07,6.57,2.05,17.23,2.76-5.01.58-7.87,1.24-7.87,1.95,0,2.19,27.16,3.96,60.67,3.96s60.67-1.77,60.67-3.96c0-.62-2.2-1.21-6.11-1.73,12.71-.73,20.74-1.79,20.74-2.98Z"/>
          <path class="cls-16" d="M131.81,114.24c0-1.66-20.68-3.01-46.19-3.01-3.13,0-6.18.02-9.13.06-2.95-.04-6.01-.06-9.13-.06-25.51,0-46.19,1.35-46.19,3.01,0,.82,5,1.56,13.12,2.1-3.81.44-5.99.94-5.99,1.48,0,1.66,20.68,3.01,46.19,3.01s46.19-1.35,46.19-3.01c0-.47-1.67-.92-4.65-1.32,9.68-.55,15.79-1.36,15.79-2.27Z"/>
        </g>
        <g>
          <path class="cls-42" d="M105.83,104.39s1.38-37.83,20.09-49.66c18.72-11.83,21.57,5.29,16.52,14.99-5.05,9.7-28.1,20.94-36.61,34.67Z"/>
          <path class="cls-11" d="M135.92,58c3.29-2.86,5.67-4.51,6.35-4.96-2.72-3.09-7.93-3.63-16.35,1.69-18.72,11.83-20.09,49.66-20.09,49.66,1.52-5.08,3.38-9.77,5.46-14.09,3.24-1.42,6.93-1.74,6.93-1.74-2.28-.66-5.01.16-6.42.7.63-1.27,1.28-2.51,1.94-3.71,4.66-2.38,10.56-2.89,10.56-2.89-3.71-1.08-8.28.71-9.68,1.32.93-1.62,1.88-3.18,2.85-4.67,4.51-2.39,10.4-2.91,10.4-2.91-3.58-1.04-7.98.69-9.31,1.27,1.08-1.59,2.17-3.11,3.26-4.55,5.97-3.15,13.74-3.83,13.74-3.83-4.41-1.28-9.77.61-11.92,1.5,1.04-1.29,2.07-2.51,3.09-3.66,6.06-3.62,14.71-4.38,14.71-4.38-4.59-1.33-10.22.77-12.17,1.61,1.63-1.71,3.19-3.22,4.63-4.55,4.22-1.8,8.93-2.21,8.93-2.21-2.3-.67-4.95-.19-6.9.39Z"/>
        </g>
        <g>
          <path class="cls-32" d="M107.73,109.03s10.88-21.11,24.67-22.83c13.78-1.72,10.83,8.76,5.38,12.92-5.45,4.16-21.55,4.39-30.04,9.91Z"/>
          <path class="cls-11" d="M137.2,90.73c2.63-.74,4.42-1.04,4.93-1.12-.72-2.48-3.53-4.18-9.74-3.41-13.78,1.72-24.67,22.83-24.67,22.83,2.22-2.48,4.53-4.64,6.86-6.54,2.22.06,4.4.86,4.4.86-1.12-.99-2.89-1.25-3.83-1.32.7-.55,1.39-1.08,2.09-1.59,3.28-.11,6.77,1.18,6.77,1.18-1.82-1.6-4.89-1.81-5.85-1.84.96-.67,1.92-1.3,2.87-1.89,3.2-.15,6.68,1.13,6.68,1.13-1.75-1.54-4.71-1.74-5.63-1.76,1.04-.62,2.06-1.19,3.06-1.71,4.23-.2,8.82,1.49,8.82,1.49-2.16-1.9-5.71-2.26-7.17-2.33.93-.45,1.85-.87,2.73-1.25,4.41-.44,9.52,1.44,9.52,1.44-2.25-1.98-6.01-2.29-7.34-2.33,1.38-.54,2.67-.98,3.84-1.35,2.88.11,5.66,1.13,5.66,1.13-1.13-1-2.76-1.43-4.02-1.62Z"/>
        </g>
        <g>
          <path class="cls-42" d="M38.29,113.49s-8.53-13.72-17.97-14.13c-9.44-.41-6.86,6.53-2.94,9.05,3.92,2.52,14.85,1.8,20.91,5.08Z"/>
          <path class="cls-11" d="M17.31,102.69c-1.83-.36-3.06-.47-3.4-.49.35-1.72,2.17-3.03,6.42-2.84,9.44.41,17.97,14.13,17.97,14.13-1.64-1.56-3.33-2.9-5.01-4.06-1.5.16-2.94.82-2.94.82.71-.73,1.89-1,2.53-1.1-.5-.34-1-.66-1.5-.96-2.23.11-4.52,1.17-4.52,1.17,1.15-1.19,3.22-1.49,3.86-1.56-.69-.4-1.37-.78-2.05-1.13-2.18.07-4.47,1.13-4.47,1.13,1.1-1.14,3.1-1.44,3.72-1.5-.74-.36-1.46-.69-2.17-.99-2.88.1-5.9,1.49-5.9,1.49,1.36-1.41,3.75-1.85,4.73-1.97-.66-.26-1.3-.49-1.92-.7-3.01-.06-6.38,1.5-6.38,1.5,1.42-1.47,3.95-1.88,4.85-1.98-.97-.29-1.86-.52-2.68-.7-1.95.23-3.78,1.08-3.78,1.08.71-.74,1.79-1.12,2.64-1.32Z"/>
        </g>
        <g>
          <path class="cls-42" d="M40.77,112.62s-5.74-33.54-23.82-41.84c-18.08-8.31-18.58,7.29-12.93,15.32,5.65,8.04,27.53,15.31,36.75,26.52Z"/>
          <path class="cls-11" d="M8.43,74.88c-3.27-2.15-5.59-3.34-6.25-3.66,2.06-3.08,6.63-4.18,14.77-.44,18.08,8.31,23.82,41.84,23.82,41.84-1.96-4.34-4.18-8.3-6.54-11.9-3.06-.88-6.38-.73-6.38-.73,1.96-.86,4.48-.46,5.8-.14-.71-1.06-1.44-2.08-2.17-3.08-4.43-1.56-9.75-1.32-9.75-1.32,3.18-1.4,7.46-.36,8.78.02-1.02-1.33-2.06-2.61-3.1-3.82-4.3-1.59-9.61-1.35-9.61-1.35,3.06-1.35,7.19-.34,8.45.02-1.15-1.29-2.3-2.51-3.45-3.66-5.7-2.1-12.69-1.77-12.69-1.77,3.78-1.67,8.77-.62,10.79-.08-1.08-1.02-2.14-1.99-3.19-2.89-5.83-2.51-13.63-2.14-13.63-2.14,3.93-1.74,9.19-.53,11.03-.02-1.65-1.33-3.22-2.49-4.66-3.5-3.98-1.1-8.22-.9-8.22-.9,1.97-.87,4.39-.76,6.19-.48Z"/>
        </g>
        <rect class="cls-22" x="29.22" y="64.29" width="90.15" height="49.27"/>
        <g class="cls-45">
          <g>
            <g>
              <rect class="cls-13" x="80.06" y="102.32" width="4.12" height="1.62" rx=".81" ry=".81" transform="translate(164.24 206.26) rotate(180)"/>
              <rect class="cls-13" x="82.08" y="104.1" width="4.12" height="1.62" rx=".81" ry=".81" transform="translate(168.28 209.83) rotate(180)"/>
              <rect class="cls-13" x="77.72" y="104.1" width="4.12" height="1.62" rx=".81" ry=".81" transform="translate(159.56 209.83) rotate(180)"/>
              <rect class="cls-14" x="75.78" y="102.32" width="4.12" height="1.62" rx=".81" ry=".81" transform="translate(155.68 206.26) rotate(180)"/>
              <rect class="cls-14" x="73.08" y="100.5" width="4.12" height="1.62" rx=".81" ry=".81" transform="translate(150.28 202.63) rotate(-180)"/>
              <rect class="cls-13" x="80.06" y="105.88" width="4.12" height="1.62" rx=".81" ry=".81" transform="translate(164.24 213.39) rotate(-180)"/>
              <rect class="cls-14" x="75.78" y="105.88" width="4.12" height="1.62" rx=".81" ry=".81" transform="translate(155.68 213.39) rotate(180)"/>
              <rect class="cls-15" x="73.42" y="104.06" width="4.12" height="1.62" rx=".81" ry=".81" transform="translate(150.96 209.75) rotate(180)"/>
              <rect class="cls-15" x="66.93" y="104.06" width="4.12" height="1.62" rx=".81" ry=".81" transform="translate(137.97 209.75) rotate(-180)"/>
              <rect class="cls-13" x="77.66" y="98.69" width="4.12" height="1.62" rx=".81" ry=".81" transform="translate(159.44 199) rotate(-180)"/>
            </g>
            <g>
              <rect class="cls-13" x="123.6" y="109.58" width="4.12" height="1.62" rx=".81" ry=".81" transform="translate(251.33 220.78) rotate(-180)"/>
              <rect class="cls-13" x="125.62" y="111.36" width="4.12" height="1.62" rx=".81" ry=".81" transform="translate(255.37 224.34) rotate(180)"/>
              <rect class="cls-13" x="121.27" y="111.36" width="4.12" height="1.62" rx=".81" ry=".81" transform="translate(246.65 224.34) rotate(180)"/>
              <rect class="cls-14" x="119.33" y="109.58" width="4.12" height="1.62" rx=".81" ry=".81" transform="translate(242.77 220.78) rotate(180)"/>
              <rect class="cls-14" x="116.62" y="107.76" width="4.12" height="1.62" rx=".81" ry=".81" transform="translate(237.37 217.14) rotate(180)"/>
              <rect class="cls-13" x="123.6" y="113.14" width="4.12" height="1.62" rx=".81" ry=".81" transform="translate(251.33 227.91) rotate(180)"/>
              <rect class="cls-14" x="119.33" y="113.14" width="4.12" height="1.62" rx=".81" ry=".81" transform="translate(242.77 227.91) rotate(-180)"/>
              <rect class="cls-15" x="116.96" y="111.32" width="4.12" height="1.62" rx=".81" ry=".81" transform="translate(238.05 224.26) rotate(180)"/>
              <rect class="cls-15" x="110.47" y="111.32" width="4.12" height="1.62" rx=".81" ry=".81" transform="translate(225.06 224.26) rotate(180)"/>
              <rect class="cls-13" x="121.2" y="105.95" width="4.12" height="1.62" rx=".81" ry=".81" transform="translate(246.52 213.52) rotate(180)"/>
            </g>
            <g>
              <rect class="cls-13" x="29.27" y="93.48" width="4.12" height="1.62" rx=".81" ry=".81" transform="translate(62.65 188.58) rotate(180)"/>
              <rect class="cls-13" x="31.29" y="95.26" width="4.12" height="1.62" rx=".81" ry=".81" transform="translate(66.69 192.14) rotate(-180)"/>
              <rect class="cls-13" x="26.93" y="95.26" width="4.12" height="1.62" rx=".81" ry=".81" transform="translate(57.97 192.14) rotate(-180)"/>
              <rect class="cls-14" x="24.99" y="93.48" width="4.12" height="1.62" rx=".81" ry=".81" transform="translate(54.09 188.58) rotate(180)"/>
              <rect class="cls-14" x="22.29" y="91.66" width="4.12" height="1.62" rx=".81" ry=".81" transform="translate(48.69 184.94) rotate(180)"/>
              <rect class="cls-13" x="29.27" y="97.04" width="4.12" height="1.62" rx=".81" ry=".81" transform="translate(62.65 195.71) rotate(180)"/>
              <rect class="cls-14" x="24.99" y="97.04" width="4.12" height="1.62" rx=".81" ry=".81" transform="translate(54.09 195.71) rotate(180)"/>
              <rect class="cls-15" x="22.63" y="95.22" width="4.12" height="1.62" rx=".81" ry=".81" transform="translate(49.37 192.07) rotate(180)"/>
              <rect class="cls-15" x="16.13" y="95.22" width="4.12" height="1.62" rx=".81" ry=".81" transform="translate(36.38 192.07) rotate(-180)"/>
              <rect class="cls-13" x="26.86" y="89.85" width="4.12" height="1.62" rx=".81" ry=".81" transform="translate(57.85 181.32) rotate(-180)"/>
            </g>
            <g>
              <rect class="cls-13" x="36.4" y="82.27" width="4.12" height="1.62" rx=".81" ry=".81" transform="translate(76.91 166.17) rotate(-180)"/>
              <rect class="cls-13" x="38.42" y="84.06" width="4.12" height="1.62" rx=".81" ry=".81" transform="translate(80.95 169.74) rotate(-180)"/>
              <rect class="cls-13" x="34.06" y="84.06" width="4.12" height="1.62" rx=".81" ry=".81" transform="translate(72.23 169.74) rotate(180)"/>
              <rect class="cls-14" x="32.12" y="82.27" width="4.12" height="1.62" rx=".81" ry=".81" transform="translate(68.35 166.17) rotate(-180)"/>
              <rect class="cls-14" x="29.42" y="80.45" width="4.12" height="1.62" rx=".81" ry=".81" transform="translate(62.95 162.53) rotate(-180)"/>
              <rect class="cls-13" x="36.4" y="85.84" width="4.12" height="1.62" rx=".81" ry=".81" transform="translate(76.91 173.3) rotate(-180)"/>
              <rect class="cls-14" x="32.12" y="85.84" width="4.12" height="1.62" rx=".81" ry=".81" transform="translate(68.35 173.3) rotate(180)"/>
              <rect class="cls-15" x="29.76" y="84.02" width="4.12" height="1.62" rx=".81" ry=".81" transform="translate(63.63 169.66) rotate(-180)"/>
              <rect class="cls-15" x="23.26" y="84.02" width="4.12" height="1.62" rx=".81" ry=".81" transform="translate(50.64 169.66) rotate(-180)"/>
              <rect class="cls-13" x="33.99" y="78.64" width="4.12" height="1.62" rx=".81" ry=".81" transform="translate(72.11 158.91) rotate(180)"/>
            </g>
            <g>
              <rect class="cls-13" x="73.29" y="110.96" width="4.12" height="1.62" rx=".81" ry=".81" transform="translate(150.7 223.55) rotate(180)"/>
              <rect class="cls-13" x="75.31" y="112.74" width="4.12" height="1.62" rx=".81" ry=".81" transform="translate(154.74 227.11) rotate(180)"/>
              <rect class="cls-13" x="70.96" y="112.74" width="4.12" height="1.62" rx=".81" ry=".81" transform="translate(146.03 227.11) rotate(-180)"/>
              <rect class="cls-14" x="69.01" y="110.96" width="4.12" height="1.62" rx=".81" ry=".81" transform="translate(142.15 223.55) rotate(180)"/>
              <rect class="cls-14" x="66.31" y="109.14" width="4.12" height="1.62" rx=".81" ry=".81" transform="translate(136.74 219.91) rotate(-180)"/>
              <rect class="cls-13" x="73.29" y="114.53" width="4.12" height="1.62" rx=".81" ry=".81" transform="translate(150.7 230.68) rotate(180)"/>
              <rect class="cls-14" x="69.01" y="114.53" width="4.12" height="1.62" rx=".81" ry=".81" transform="translate(142.15 230.68) rotate(180)"/>
              <rect class="cls-15" x="66.65" y="112.7" width="4.12" height="1.62" rx=".81" ry=".81" transform="translate(137.42 227.03) rotate(180)"/>
              <rect class="cls-15" x="60.16" y="112.7" width="4.12" height="1.62" rx=".81" ry=".81" transform="translate(124.44 227.03) rotate(180)"/>
              <rect class="cls-13" x="70.89" y="107.33" width="4.12" height="1.62" rx=".81" ry=".81" transform="translate(145.9 216.29) rotate(180)"/>
            </g>
            <g>
              <rect class="cls-13" x="121.14" y="78.57" width="4.12" height="1.62" rx=".81" ry=".81" transform="translate(246.4 158.77) rotate(180)"/>
              <rect class="cls-13" x="123.16" y="80.36" width="4.12" height="1.62" rx=".81" ry=".81" transform="translate(250.44 162.34) rotate(-180)"/>
              <rect class="cls-13" x="118.8" y="80.36" width="4.12" height="1.62" rx=".81" ry=".81" transform="translate(241.72 162.34) rotate(-180)"/>
              <rect class="cls-14" x="116.86" y="78.57" width="4.12" height="1.62" rx=".81" ry=".81" transform="translate(237.84 158.77) rotate(180)"/>
              <rect class="cls-14" x="114.16" y="76.76" width="4.12" height="1.62" rx=".81" ry=".81" transform="translate(232.44 155.13) rotate(180)"/>
              <rect class="cls-13" x="121.14" y="82.14" width="4.12" height="1.62" rx=".81" ry=".81" transform="translate(246.4 165.9) rotate(-180)"/>
              <rect class="cls-14" x="116.86" y="82.14" width="4.12" height="1.62" rx=".81" ry=".81" transform="translate(237.84 165.9) rotate(180)"/>
              <rect class="cls-15" x="114.5" y="80.32" width="4.12" height="1.62" rx=".81" ry=".81" transform="translate(233.12 162.26) rotate(-180)"/>
              <rect class="cls-15" x="108.01" y="80.32" width="4.12" height="1.62" rx=".81" ry=".81" transform="translate(220.13 162.26) rotate(-180)"/>
              <rect class="cls-13" x="118.74" y="74.94" width="4.12" height="1.62" rx=".81" ry=".81" transform="translate(241.6 151.51) rotate(180)"/>
            </g>
            <g>
              <rect class="cls-13" x="113.29" y="99.88" width="4.12" height="1.62" rx=".81" ry=".81" transform="translate(230.7 201.39) rotate(180)"/>
              <rect class="cls-13" x="115.31" y="101.67" width="4.12" height="1.62" rx=".81" ry=".81" transform="translate(234.74 204.96) rotate(180)"/>
              <rect class="cls-13" x="110.95" y="101.67" width="4.12" height="1.62" rx=".81" ry=".81" transform="translate(226.02 204.96) rotate(-180)"/>
              <rect class="cls-14" x="109.01" y="99.88" width="4.12" height="1.62" rx=".81" ry=".81" transform="translate(222.14 201.39) rotate(-180)"/>
              <rect class="cls-14" x="106.31" y="98.07" width="4.12" height="1.62" rx=".81" ry=".81" transform="translate(216.74 197.76) rotate(-180)"/>
              <rect class="cls-13" x="113.29" y="103.45" width="4.12" height="1.62" rx=".81" ry=".81" transform="translate(230.7 208.52) rotate(-180)"/>
              <rect class="cls-14" x="109.01" y="103.45" width="4.12" height="1.62" rx=".81" ry=".81" transform="translate(222.14 208.52) rotate(-180)"/>
              <rect class="cls-15" x="106.65" y="101.63" width="4.12" height="1.62" rx=".81" ry=".81" transform="translate(217.42 204.88) rotate(-180)"/>
              <rect class="cls-15" x="100.16" y="101.63" width="4.12" height="1.62" rx=".81" ry=".81" transform="translate(204.43 204.88) rotate(-180)"/>
              <rect class="cls-13" x="110.89" y="96.26" width="4.12" height="1.62" rx=".81" ry=".81" transform="translate(225.9 194.14) rotate(180)"/>
            </g>
            <g>
              <rect class="cls-13" x="117.43" y="88.93" width="4.12" height="1.62" rx=".81" ry=".81" transform="translate(238.97 179.49) rotate(-180)"/>
              <rect class="cls-13" x="119.45" y="90.72" width="4.12" height="1.62" rx=".81" ry=".81" transform="translate(243.02 183.06) rotate(-180)"/>
              <rect class="cls-13" x="115.09" y="90.72" width="4.12" height="1.62" rx=".81" ry=".81" transform="translate(234.3 183.06) rotate(180)"/>
              <rect class="cls-14" x="113.15" y="88.93" width="4.12" height="1.62" rx=".81" ry=".81" transform="translate(230.42 179.49) rotate(-180)"/>
              <rect class="cls-14" x="110.45" y="87.12" width="4.12" height="1.62" rx=".81" ry=".81" transform="translate(225.02 175.86) rotate(-180)"/>
              <rect class="cls-13" x="117.43" y="92.5" width="4.12" height="1.62" rx=".81" ry=".81" transform="translate(238.97 186.62) rotate(-180)"/>
              <rect class="cls-14" x="113.15" y="92.5" width="4.12" height="1.62" rx=".81" ry=".81" transform="translate(230.42 186.62) rotate(180)"/>
              <rect class="cls-15" x="110.79" y="90.68" width="4.12" height="1.62" rx=".81" ry=".81" transform="translate(225.7 182.98) rotate(-180)"/>
              <rect class="cls-15" x="104.3" y="90.68" width="4.12" height="1.62" rx=".81" ry=".81" transform="translate(212.71 182.98) rotate(180)"/>
              <rect class="cls-13" x="115.03" y="85.31" width="4.12" height="1.62" rx=".81" ry=".81" transform="translate(234.17 172.24) rotate(-180)"/>
            </g>
            <g>
              <rect class="cls-13" x="87.28" y="83.12" width="4.12" height="1.62" rx=".81" ry=".81" transform="translate(178.68 167.87) rotate(-180)"/>
              <rect class="cls-13" x="89.3" y="84.91" width="4.12" height="1.62" rx=".81" ry=".81" transform="translate(182.72 171.44) rotate(-180)"/>
              <rect class="cls-13" x="84.94" y="84.91" width="4.12" height="1.62" rx=".81" ry=".81" transform="translate(174 171.44) rotate(-180)"/>
              <rect class="cls-14" x="83" y="83.12" width="4.12" height="1.62" rx=".81" ry=".81" transform="translate(170.12 167.87) rotate(180)"/>
              <rect class="cls-14" x="80.3" y="81.31" width="4.12" height="1.62" rx=".81" ry=".81" transform="translate(164.72 164.24) rotate(180)"/>
              <rect class="cls-13" x="87.28" y="86.69" width="4.12" height="1.62" rx=".81" ry=".81" transform="translate(178.68 175) rotate(180)"/>
              <rect class="cls-14" x="83" y="86.69" width="4.12" height="1.62" rx=".81" ry=".81" transform="translate(170.12 175) rotate(-180)"/>
              <rect class="cls-15" x="80.64" y="84.87" width="4.12" height="1.62" rx=".81" ry=".81" transform="translate(165.4 171.36) rotate(180)"/>
              <rect class="cls-15" x="74.15" y="84.87" width="4.12" height="1.62" rx=".81" ry=".81" transform="translate(152.41 171.36) rotate(180)"/>
              <rect class="cls-13" x="84.88" y="79.5" width="4.12" height="1.62" rx=".81" ry=".81" transform="translate(173.88 160.62) rotate(180)"/>
            </g>
            <g>
              <rect class="cls-13" x="28.51" y="74.17" width="4.12" height="1.62" rx=".81" ry=".81" transform="translate(61.15 149.97) rotate(-180)"/>
              <rect class="cls-13" x="30.53" y="75.96" width="4.12" height="1.62" rx=".81" ry=".81" transform="translate(65.19 153.53) rotate(180)"/>
              <rect class="cls-13" x="26.18" y="75.96" width="4.12" height="1.62" rx=".81" ry=".81" transform="translate(56.47 153.53) rotate(180)"/>
              <rect class="cls-14" x="24.24" y="74.17" width="4.12" height="1.62" rx=".81" ry=".81" transform="translate(52.59 149.97) rotate(-180)"/>
              <rect class="cls-14" x="21.53" y="72.35" width="4.12" height="1.62" rx=".81" ry=".81" transform="translate(47.19 146.33) rotate(-180)"/>
              <rect class="cls-13" x="28.51" y="77.74" width="4.12" height="1.62" rx=".81" ry=".81" transform="translate(61.15 157.1) rotate(-180)"/>
              <rect class="cls-14" x="24.24" y="77.74" width="4.12" height="1.62" rx=".81" ry=".81" transform="translate(52.59 157.1) rotate(-180)"/>
              <rect class="cls-15" x="21.87" y="75.92" width="4.12" height="1.62" rx=".81" ry=".81" transform="translate(47.87 153.45) rotate(-180)"/>
              <rect class="cls-15" x="15.38" y="75.92" width="4.12" height="1.62" rx=".81" ry=".81" transform="translate(34.88 153.45) rotate(-180)"/>
              <rect class="cls-13" x="26.11" y="70.54" width="4.12" height="1.62" rx=".81" ry=".81" transform="translate(56.34 142.71) rotate(-180)"/>
            </g>
            <g>
              <rect class="cls-13" x="33.49" y="105.66" width="4.12" height="1.62" rx=".81" ry=".81"/>
              <rect class="cls-13" x="31.47" y="107.44" width="4.12" height="1.62" rx=".81" ry=".81"/>
              <rect class="cls-13" x="35.83" y="107.44" width="4.12" height="1.62" rx=".81" ry=".81"/>
              <rect class="cls-14" x="37.77" y="105.66" width="4.12" height="1.62" rx=".81" ry=".81"/>
              <rect class="cls-13" x="33.49" y="109.22" width="4.12" height="1.62" rx=".81" ry=".81"/>
              <rect class="cls-14" x="37.77" y="109.22" width="4.12" height="1.62" rx=".81" ry=".81"/>
              <rect class="cls-15" x="40.13" y="107.4" width="4.12" height="1.62" rx=".81" ry=".81"/>
              <rect class="cls-13" x="35.89" y="103.88" width="4.12" height="1.62" rx=".81" ry=".81"/>
            </g>
            <g>
              <rect class="cls-13" x="72.63" y="74.89" width="4.12" height="1.62" rx=".81" ry=".81"/>
              <rect class="cls-13" x="70.61" y="76.67" width="4.12" height="1.62" rx=".81" ry=".81"/>
              <rect class="cls-13" x="74.97" y="76.67" width="4.12" height="1.62" rx=".81" ry=".81"/>
              <rect class="cls-14" x="76.91" y="74.89" width="4.12" height="1.62" rx=".81" ry=".81"/>
              <rect class="cls-13" x="72.63" y="78.45" width="4.12" height="1.62" rx=".81" ry=".81"/>
              <rect class="cls-14" x="76.91" y="78.45" width="4.12" height="1.62" rx=".81" ry=".81"/>
              <rect class="cls-15" x="79.27" y="76.63" width="4.12" height="1.62" rx=".81" ry=".81"/>
              <rect class="cls-13" x="75.03" y="73.1" width="4.12" height="1.62" rx=".81" ry=".81"/>
            </g>
            <g>
              <rect class="cls-13" x="47.56" y="107.5" width="4.12" height="1.62" rx=".81" ry=".81"/>
              <rect class="cls-13" x="45.54" y="109.29" width="4.12" height="1.62" rx=".81" ry=".81"/>
              <rect class="cls-13" x="49.9" y="109.29" width="4.12" height="1.62" rx=".81" ry=".81"/>
              <rect class="cls-14" x="51.84" y="107.5" width="4.12" height="1.62" rx=".81" ry=".81"/>
              <rect class="cls-14" x="54.54" y="105.69" width="4.12" height="1.62" rx=".81" ry=".81"/>
              <rect class="cls-13" x="47.56" y="111.07" width="4.12" height="1.62" rx=".81" ry=".81"/>
              <rect class="cls-14" x="51.84" y="111.07" width="4.12" height="1.62" rx=".81" ry=".81"/>
              <rect class="cls-15" x="54.2" y="109.25" width="4.12" height="1.62" rx=".81" ry=".81"/>
              <rect class="cls-15" x="60.69" y="109.25" width="4.12" height="1.62" rx=".81" ry=".81"/>
              <rect class="cls-13" x="49.96" y="103.88" width="4.12" height="1.62" rx=".81" ry=".81"/>
            </g>
          </g>
        </g>
        <rect class="cls-38" x="31.13" y="56.27" width="89" height="4.77"/>
        <rect class="cls-38" x="86.57" y="74.91" width="26.54" height="38.88"/>
        <g>
          <rect class="cls-18" x="82.31" y="82.99" width="35.06" height="22.72" transform="translate(194.19 -5.49) rotate(90)"/>
          <polygon class="cls-12" points="89.94 78.28 111.2 78.28 111.2 76.82 88.48 76.82 88.48 111.88 89.94 111.88 89.94 78.28"/>
          <g>
            <polygon class="cls-23" points="111.28 111.97 99.2 111.97 88.48 76.82 100.56 76.82 111.28 111.97"/>
            <polygon class="cls-24" points="103.16 76.73 111.03 101.79 111.2 76.82 103.16 76.73"/>
          </g>
        </g>
        <g>
          <rect class="cls-38" x="36.42" y="76.82" width="43.15" height="25.04"/>
          <rect class="cls-18" x="47.38" y="69.67" width="21.22" height="39.33" transform="translate(147.33 31.35) rotate(90)"/>
          <g>
            <rect class="cls-38" x="49.85" y="76.8" width="2.02" height="24.95"/>
            <rect class="cls-38" x="64.22" y="76.8" width="2.02" height="24.95"/>
          </g>
          <polygon class="cls-12" points="49.78 78.73 38.33 78.73 38.33 78.77 38.33 79.64 38.33 99.95 39.1 99.95 39.1 79.64 49.78 79.64 49.78 78.73"/>
          <g>
            <polygon class="cls-23" points="39.92 78.61 49.89 90.97 49.89 85.35 45.13 78.78 39.92 78.61"/>
            <polygon class="cls-23" points="38.29 80.38 49.86 95.28 49.8 93.44 38.33 78.73 38.29 80.38"/>
          </g>
          <polygon class="cls-12" points="64.25 78.73 51.84 78.73 51.84 78.77 51.84 79.64 51.84 99.95 52.61 99.95 52.61 79.64 64.25 79.64 64.25 78.73"/>
          <g>
            <polygon class="cls-23" points="53.54 78.61 64.15 91.77 64.15 85.78 59.09 78.79 53.54 78.61"/>
            <polygon class="cls-23" points="51.81 80.49 64.13 96.36 64.06 94.4 51.84 78.74 51.81 80.49"/>
          </g>
          <polygon class="cls-12" points="77.64 78.73 66.19 78.73 66.19 78.77 66.19 79.64 66.19 99.95 66.96 99.95 66.96 79.64 77.64 79.64 77.64 78.73"/>
          <g>
            <polygon class="cls-23" points="67.79 78.61 77.75 90.97 77.75 85.35 73 78.78 67.79 78.61"/>
            <polygon class="cls-23" points="66.15 80.38 77.73 95.28 77.67 93.44 66.19 78.73 66.15 80.38"/>
          </g>
        </g>
        <polygon class="cls-25" points="124.72 71.79 28.41 71.79 31.86 58.74 116.12 58.74 124.72 71.79"/>
        <g class="cls-28">
          <g class="cls-8">
            <path class="cls-37" d="M24.64,75.65h4.1c1.28,0,2.32-1.64,2.32-3.67h-8.75c0,2.02,1.04,3.67,2.32,3.67Z"/>
            <path class="cls-37" d="M60.29,75.65h4.1c1.28,0,2.32-1.64,2.32-3.67h-8.75c0,2.02,1.04,3.67,2.32,3.67Z"/>
            <path class="cls-37" d="M95.69,75.65h4.1c1.28,0,2.32-1.64,2.32-3.67h-8.75c0,2.02,1.04,3.67,2.32,3.67Z"/>
            <path class="cls-37" d="M113.51,75.65h4.1c1.28,0,2.32-1.64,2.32-3.67h-8.75c0,2.02,1.04,3.67,2.32,3.67Z"/>
            <path class="cls-37" d="M119.81,71.98v.03c0,2.01,1.03,3.63,2.3,3.63h4.34c1.27,0,2.3-1.63,2.3-3.63v-.03h-8.95Z"/>
            <path class="cls-37" d="M48.76,71.98h-17.68c0,2.02,1.04,3.67,2.32,3.67h4.46c1.09,0,2-1.18,2.25-2.78.23,1.59,1.14,2.78,2.22,2.78h4.18c1.18,0,2.16-1.43,2.26-3.25.13,1.83,1.11,3.25,2.31,3.25h4.46c1.28,0,2.32-1.64,2.32-3.67h-9.11Z"/>
            <path class="cls-37" d="M104.41,75.65h4.46c1.28,0,2.32-1.64,2.32-3.67h-9.11c0,2.02,1.04,3.67,2.32,3.67Z"/>
            <path class="cls-37" d="M84.35,71.98h-17.79c0,2.02,1.04,3.67,2.32,3.67h4.46c1.12,0,2.05-1.24,2.27-2.9.21,1.65,1.13,2.9,2.24,2.9h4.23c1.21,0,2.2-1.48,2.28-3.36.1,1.88,1.1,3.36,2.31,3.36h4.46c1.28,0,2.32-1.64,2.32-3.67h-9.11Z"/>
          </g>
        </g>
        <path class="cls-26" d="M57.8,71.8h8.78c0,1.28-1.04,2.32-2.32,2.32h-4.13c-1.28,0-2.32-1.04-2.32-2.32h0Z"/>
        <path class="cls-26" d="M93.39,71.8h8.73c0,1.28-1.04,2.32-2.32,2.32h-4.08c-1.28,0-2.32-1.04-2.32-2.32h0Z"/>
        <path class="cls-26" d="M111.14,71.8h8.74c0,1.28-1.04,2.32-2.32,2.32h-4.09c-1.28,0-2.32-1.04-2.32-2.32h0Z"/>
        <g>
          <rect class="cls-10" x="90.98" y="89.22" width="19.32" height="12.88" rx="5.29" ry="5.29"/>
          <g>
            <polyline class="cls-2" points="91.75 89.79 100.54 84.08 108.41 90.08"/>
            <rect class="cls-7" x="90.63" y="88.7" width="19.32" height="12.88" rx="5.29" ry="5.29"/>
          </g>
          <text class="cls-6" transform="translate(92.27 93.9)"><tspan class="cls-19"><tspan class="cls-39" x="0" y="0">W</tspan><tspan class="cls-31" x="4.23" y="0">E ARE</tspan></tspan><tspan class="cls-21"><tspan x="0" y="4.88">O</tspan><tspan class="cls-40" x="4.4" y="4.88">P</tspan><tspan x="8.17" y="4.88">EN</tspan></tspan></text>
        </g>
        <g>
          <g>
            <g>
              <path class="cls-34" d="M30.96,71.94h-8.71c3.52-5.27,5.28-7.91,8.8-13.18,2.91,0,4.36,0,7.27,0-2.94,5.27-4.42,7.91-7.36,13.18Z"/>
              <path class="cls-25" d="M39.81,71.94h-8.71c2.93-5.27,4.4-7.91,7.33-13.18,2.91,0,4.36,0,7.27,0-2.36,5.27-3.54,7.91-5.9,13.18Z"/>
            </g>
            <g>
              <path class="cls-34" d="M48.75,71.94h-8.71c2.34-5.27,3.51-7.91,5.86-13.18,2.91,0,4.36,0,7.27,0-1.77,5.27-2.65,7.91-4.42,13.18Z"/>
              <path class="cls-25" d="M57.61,71.94h-8.71c1.76-5.27,2.64-7.91,4.4-13.18,2.91,0,4.36,0,7.27,0-1.18,5.27-1.77,7.91-2.96,13.18Z"/>
            </g>
            <g>
              <path class="cls-34" d="M66.55,71.94h-8.7c1.17-5.27,1.75-7.91,2.92-13.18,2.91,0,4.36,0,7.27,0-.59,5.27-.89,7.91-1.48,13.18Z"/>
              <path class="cls-25" d="M75.4,71.94h-8.7c.58-5.27.87-7.91,1.46-13.18,2.91,0,4.36,0,7.27,0,0,5.27-.01,7.91-.02,13.18Z"/>
            </g>
            <g>
              <path class="cls-34" d="M84.34,71.94h-8.7c0-5.27-.01-7.91-.02-13.18,2.91,0,4.36,0,7.27,0,.58,5.27.87,7.91,1.46,13.18Z"/>
              <path class="cls-25" d="M93.19,71.94h-8.7c-.59-5.27-.89-7.91-1.48-13.18,2.91,0,4.36,0,7.27,0,1.17,5.27,1.75,7.91,2.92,13.18Z"/>
            </g>
            <g>
              <path class="cls-34" d="M102.13,71.94h-8.71c-1.18-5.27-1.77-7.91-2.96-13.18,2.91,0,4.36,0,7.27,0,1.76,5.27,2.64,7.91,4.4,13.18Z"/>
              <path class="cls-25" d="M110.99,71.94h-8.71c-1.77-5.27-2.65-7.91-4.42-13.18,2.91,0,4.36,0,7.27,0,2.34,5.27,3.51,7.91,5.86,13.18Z"/>
            </g>
            <g>
              <path class="cls-34" d="M119.93,71.94h-8.71c-2.36-5.27-3.54-7.91-5.9-13.18,2.91,0,4.36,0,7.27,0,2.93,5.27,4.4,7.91,7.33,13.18Z"/>
              <path class="cls-25" d="M128.78,71.94h-8.71c-2.94-5.27-4.42-7.91-7.36-13.18,2.91,0,4.36,0,7.27,0,3.52,5.27,5.28,7.91,8.8,13.18Z"/>
            </g>
          </g>
          <g>
            <path class="cls-26" d="M28.75,74.12h-4.1c-1.28,0-2.32-1.04-2.32-2.32h8.75c0,1.28-1.04,2.32-2.32,2.32Z"/>
            <path class="cls-20" d="M37.86,74.12h-4.46c-1.28,0-2.32-1.04-2.32-2.32h9.11c0,1.28-1.04,2.32-2.32,2.32Z"/>
            <path class="cls-20" d="M119.81,71.8h8.95c0,1.28-1.04,2.32-2.32,2.32h-4.3c-1.28,0-2.32-1.04-2.32-2.32h0Z"/>
            <path class="cls-26" d="M40.05,71.8h8.73c0,1.28-1.04,2.32-2.32,2.32h-4.09c-1.28,0-2.32-1.04-2.32-2.32h0Z"/>
            <path class="cls-20" d="M55.54,74.12h-4.46c-1.28,0-2.32-1.04-2.32-2.32h9.11c0,1.28-1.04,2.32-2.32,2.32Z"/>
            <path class="cls-20" d="M73.34,74.12h-4.46c-1.28,0-2.32-1.04-2.32-2.32h9.11c0,1.28-1.04,2.32-2.32,2.32Z"/>
            <path class="cls-20" d="M91.14,74.12h-4.46c-1.28,0-2.32-1.04-2.32-2.32h9.11c0,1.28-1.04,2.32-2.32,2.32Z"/>
            <path class="cls-20" d="M108.87,74.12h-4.46c-1.28,0-2.32-1.04-2.32-2.32h9.11c0,1.28-1.04,2.32-2.32,2.32Z"/>
          </g>
          <path class="cls-26" d="M75.57,71.8h8.8c0,1.28-1.04,2.32-2.32,2.32h-4.15c-1.28,0-2.32-1.04-2.32-2.32h0Z"/>
        </g>
        <g>
          <g class="cls-9">
            <text class="cls-5" transform="translate(46.62 56.2)"><tspan class="cls-46" x="0" y="0">S</tspan><tspan class="cls-41" x="11.73" y="0">T</tspan><tspan class="cls-30" x="22.09" y="0">O</tspan><tspan class="cls-43" x="36.48" y="0">R</tspan><tspan x="49.35" y="0">E</tspan></text>
          </g>
          <text class="cls-3" transform="translate(44.79 56.2)"><tspan class="cls-46" x="0" y="0">S</tspan><tspan class="cls-41" x="11.73" y="0">T</tspan><tspan class="cls-35" x="22.09" y="0">O</tspan><tspan class="cls-44" x="36.48" y="0">R</tspan><tspan class="cls-33" x="49.35" y="0">E</tspan></text>
        </g>
      </g>
      <text class="cls-4" transform="translate(37.46 144.44)"><tspan x="0" y="0">Shopping</tspan></text>
    </g>
  </g>
</svg>